<svg width="59" height="82" viewBox="0 0 59 82" fill="none" xmlns="http://www.w3.org/2000/svg">
<g clip-path="url(#clip0_496_326)">
<path d="M2.72273 35.6031V35.2258C2.72273 28.3503 2.72273 21.478 2.71315 14.6024C2.71315 14.238 2.81851 14.1671 3.15691 14.1671C8.48194 14.1768 13.8038 14.1735 19.1288 14.1735H19.5758C18.1679 8.94916 19.3715 4.56327 24.0261 1.68664C28.0039 -0.770744 32.1988 -0.528875 35.9148 2.3155C39.832 5.31468 40.7546 9.4458 39.401 14.1735H39.915C45.24 14.1735 50.5619 14.1735 55.8869 14.1671C56.1614 14.1671 56.2796 14.2026 56.2796 14.5347C56.27 21.5005 56.27 28.4631 56.27 35.429V35.687C56.1423 35.7289 56.1168 35.6321 56.0721 35.5838C52.9434 32.0686 48.0175 32.5298 45.5784 36.5674C43.4969 40.0116 44.2376 44.7619 47.2321 47.1773C49.9074 49.3348 53.483 49.0413 55.8677 46.4711C55.9795 46.3518 56.088 46.2292 56.2061 46.1002C56.3179 46.2228 56.2668 46.3582 56.2668 46.4775C56.2668 52.8887 56.2668 59.2966 56.2764 65.7077C56.2764 66.0238 56.2061 66.1141 55.8837 66.1141C38.29 66.1044 20.6963 66.1044 3.10263 66.1141C2.82489 66.1141 2.70996 66.0754 2.70996 65.7464C2.71954 58.9225 2.71635 52.1018 2.71954 45.2779C2.71954 45.1811 2.68442 45.0747 2.75466 44.9812C2.87278 45.0037 2.90151 45.1166 2.95578 45.194C5.81943 49.0736 11.0359 48.9091 13.6601 44.8554C15.4766 42.0465 15.4032 38.2121 13.4813 35.4806C10.8252 31.7074 5.78431 31.6332 3.01963 35.3225C2.94301 35.4257 2.86639 35.5257 2.79297 35.6289L2.71954 35.6063L2.72273 35.6031ZM30.0918 59.9125C33.0799 59.9125 36.0681 59.9125 39.053 59.9125C39.1999 59.9125 39.3563 59.9545 39.484 59.8222C39.8767 59.4159 40.3204 59.0515 40.662 58.6065C42.1848 56.6231 42.6477 54.3689 42.1593 51.9277C41.8368 50.3023 41.1473 48.8156 40.2662 47.4192C39.1648 45.6713 37.8367 44.1072 36.3809 42.6528C35.6882 41.9594 34.9571 41.3015 34.2356 40.6404C34.076 40.4921 34.0696 40.4082 34.2356 40.2631C34.7879 39.7729 35.337 39.2827 35.8669 38.77C36.847 37.8186 37.7665 36.8157 38.6316 35.7547C39.484 34.7066 40.247 33.5972 40.8855 32.4008C41.6038 31.0527 42.0986 29.6402 42.271 28.1052C42.4115 26.8636 42.2806 25.6768 41.8783 24.5062C41.4154 23.1581 40.5694 22.081 39.5351 21.1361C39.4074 21.02 39.2893 20.9846 39.1296 20.9846C33.115 20.9846 27.1036 20.9846 21.089 20.9846C20.9645 20.9846 20.8432 20.9717 20.7378 21.0813C20.3452 21.4876 19.9014 21.8488 19.5598 22.2939C18.037 24.2772 17.5741 26.5314 18.0625 28.9727C18.3882 30.598 19.0746 32.0847 19.9557 33.4811C21.0571 35.229 22.3851 36.7931 23.8409 38.2475C24.5337 38.9409 25.2647 39.5988 25.9862 40.2599C26.1491 40.4082 26.1491 40.4921 25.9862 40.6372C25.4435 41.1177 24.8976 41.595 24.3836 42.1045C23.0939 43.3687 21.868 44.6942 20.8113 46.1712C19.3874 48.1577 18.2413 50.2604 17.9604 52.7597C17.7912 54.2528 17.9955 55.6621 18.6021 57.0262C19.0682 58.0711 19.7929 58.9096 20.6069 59.6868C20.7793 59.8513 20.939 59.9222 21.172 59.9222C24.1474 59.9158 27.1228 59.919 30.095 59.919L30.0918 59.9125Z" fill="#001A28"/>
<path d="M9.65687 78.4075C9.65687 77.3368 9.66326 76.2694 9.65049 75.1987C9.65049 74.9439 9.69518 74.831 9.9825 74.8407C10.621 74.8633 11.2595 74.8407 11.8948 74.8504C12.3417 74.8536 12.5173 75.0278 12.5205 75.4889C12.5269 76.2887 12.5269 77.0853 12.5205 77.885C12.5205 78.3752 12.3449 78.5816 11.8437 78.5526C11.4127 78.5268 11.4766 78.6848 11.5819 78.9751C11.9012 79.8297 12.2045 80.6907 12.495 81.555C12.5333 81.6711 12.7663 81.8775 12.495 81.9517C12.2843 82.0097 12.0097 82.0774 11.8948 81.6969C11.6426 80.8745 11.3425 80.0683 11.0616 79.2524C10.9562 78.9493 10.8604 78.6429 10.7455 78.343C10.6465 78.0914 10.7391 78.0237 10.9786 78.0205C11.2691 78.0173 11.6522 78.1527 11.8246 77.9657C12.0257 77.7464 11.882 77.3529 11.8916 77.0337C11.9044 76.5822 11.8852 76.1307 11.898 75.6824C11.9044 75.4696 11.8405 75.3825 11.617 75.3922C11.2978 75.4083 10.9786 75.418 10.6625 75.3922C10.3464 75.3664 10.2507 75.4631 10.2539 75.7921C10.2698 77.4142 10.2602 79.0396 10.2602 80.6617C10.2602 81.01 10.2475 81.3583 10.2634 81.7066C10.273 81.9388 10.1741 81.9839 9.96973 81.9807C9.76542 81.9807 9.64091 81.9678 9.6441 81.7001C9.65687 80.6036 9.65049 79.5104 9.65049 78.4139L9.65687 78.4075Z" fill="#001A28"/>
<path d="M-0.000317439 78.3688C-0.000317439 77.4271 -0.000317439 76.4887 -0.000317439 75.547C-0.000317439 74.9826 0.140151 74.8504 0.708411 74.8472C1.19367 74.8472 1.67892 74.8472 2.16098 74.8472C2.64943 74.8504 2.80586 75.002 2.81225 75.4857C2.81544 75.8985 2.79948 76.3113 2.81863 76.7208C2.82821 76.9595 2.7484 77.024 2.51535 77.024C2.27591 77.024 2.17056 76.9692 2.18652 76.7047C2.20887 76.3597 2.18652 76.0081 2.19291 75.6631C2.19929 75.4728 2.1546 75.3728 1.9407 75.389C1.51291 75.4244 0.973385 75.2148 0.686063 75.4793C0.453013 75.6921 0.625406 76.2371 0.622214 76.6338C0.615829 78.114 0.625406 79.5975 0.615829 81.0777C0.615829 81.3389 0.676486 81.455 0.95423 81.426C1.35648 81.3841 1.89601 81.6001 2.12267 81.3389C2.32061 81.11 2.15779 80.5778 2.20249 80.1844C2.22164 80.0038 2.00455 79.6942 2.40361 79.6426C2.69413 79.6039 2.84736 79.662 2.82182 80.0199C2.7899 80.4811 2.82182 80.9455 2.80905 81.4099C2.80267 81.7807 2.63347 81.9581 2.26953 81.9646C1.70765 81.9775 1.14578 81.9742 0.587097 81.9646C0.159306 81.9581 -0.000317439 81.7969 -0.00350991 81.3422C-0.00989484 80.3489 -0.00350991 79.3588 -0.00350991 78.3656L-0.000317439 78.3688Z" fill="#001A28"/>
<path d="M28.7225 78.4075C28.7225 77.3497 28.7352 76.2951 28.7161 75.2374C28.7097 74.9052 28.8151 74.8246 29.1247 74.8375C29.7217 74.86 30.3219 74.8375 30.9221 74.8471C31.3435 74.8504 31.5255 75.0342 31.5287 75.4631C31.535 76.4693 31.535 77.4722 31.5287 78.4784C31.5287 78.9234 31.3435 79.0976 30.8902 79.104C30.4688 79.1105 30.0474 79.1169 29.6291 79.104C29.4089 79.0976 29.3418 79.175 29.345 79.3911C29.3546 80.1392 29.345 80.8842 29.3514 81.6324C29.3514 81.8549 29.3354 81.9839 29.0481 81.9807C28.7608 81.9807 28.7161 81.8678 28.7193 81.6162C28.7289 80.5456 28.7225 79.4781 28.7225 78.4075ZM30.9061 76.9724C30.9061 76.5499 30.8965 76.1242 30.9093 75.7017C30.9157 75.476 30.8646 75.3728 30.6156 75.3889C30.2868 75.4083 29.9548 75.4051 29.6228 75.3889C29.4057 75.3793 29.3386 75.4567 29.3386 75.6727C29.3482 76.5467 29.3482 77.4206 29.3386 78.2946C29.3386 78.5236 29.428 78.5752 29.6323 78.5687C29.9612 78.5558 30.2932 78.5526 30.6252 78.5687C30.8391 78.5784 30.9157 78.5074 30.9093 78.2849C30.8934 77.8495 30.9061 77.411 30.9061 76.9756V76.9724Z" fill="#001A28"/>
<path d="M57.4867 77.4045C57.7102 76.7208 57.9369 76.0371 58.1603 75.3534C58.2753 75.003 58.5264 74.8396 58.9138 74.8633C58.9521 74.9761 58.8818 75.0761 58.8499 75.1761C58.5466 76.0629 58.2497 76.953 57.9241 77.8334C57.8092 78.1398 57.7996 78.4107 57.9145 78.7235C58.2434 79.6297 58.5466 80.5456 58.8563 81.455C58.9106 81.6098 58.9521 81.7678 59.0032 81.929C58.6009 81.9849 58.3423 81.8377 58.2274 81.4872C57.9784 80.7229 57.7294 79.9586 57.458 79.1234C57.2441 79.4781 57.1898 79.8071 57.0877 80.1134C56.9057 80.6488 56.7429 81.1905 56.5673 81.7291C56.5003 81.9355 56.1236 82.0742 55.9512 81.9516C55.8139 81.8549 55.932 81.742 55.9639 81.6485C56.3055 80.652 56.6503 79.6555 57.0111 78.6654C57.1004 78.4203 57.0941 78.2075 57.0079 77.9624C56.679 77.0433 56.363 76.121 56.0565 75.1922C56.0246 75.0954 55.8458 74.8987 56.0757 74.8633C56.264 74.831 56.5513 74.6988 56.6567 75.0374C56.8451 75.6372 57.0302 76.2403 57.2186 76.8401C57.2792 77.0304 57.3463 77.2207 57.4133 77.4109L57.4931 77.4013L57.4867 77.4045Z" fill="#001A28"/>
<path d="M47.8103 79.9973C47.8103 80.3714 47.8199 80.7455 47.8071 81.1196C47.7976 81.3486 47.8646 81.4421 48.1072 81.4324C48.4903 81.4131 48.8734 81.4356 49.2565 81.4227C49.4608 81.4163 49.5215 81.4969 49.5183 81.6936C49.5151 81.8742 49.4896 81.9806 49.2693 81.9742C48.6563 81.9613 48.0434 81.9581 47.4336 81.9742C47.1303 81.9806 47.191 81.7775 47.191 81.6098C47.191 79.8167 47.191 78.0269 47.191 76.2338C47.191 75.8598 47.1974 75.4857 47.191 75.1116C47.1846 74.9181 47.2453 74.8375 47.4528 74.8407C48.053 74.8504 48.6531 74.8568 49.2501 74.8407C49.4896 74.8342 49.4768 74.9665 49.4864 75.1309C49.4959 75.3276 49.4353 75.405 49.2278 75.3954C48.8447 75.3792 48.4616 75.4018 48.0785 75.3889C47.8742 75.3825 47.8135 75.4631 47.8167 75.6566C47.8231 76.3532 47.8263 77.0497 47.8167 77.7431C47.8135 77.9721 47.9029 78.0301 48.1104 78.0204C48.4424 78.0075 48.7745 78.0269 49.1065 78.014C49.3076 78.0043 49.3395 78.1043 49.3331 78.2688C49.3267 78.4236 49.3555 78.5816 49.1097 78.5655C48.8032 78.5493 48.4967 78.5848 48.1902 78.5558C47.871 78.5268 47.7976 78.659 47.8135 78.9492C47.8327 79.2975 47.8167 79.6458 47.8199 79.9941L47.8103 79.9973Z" fill="#001A28"/>
<path d="M20.6295 78.3752C20.8082 77.7367 20.9551 77.2078 21.0987 76.6821C21.2456 76.15 21.4052 75.6211 21.5297 75.0826C21.6127 74.7149 21.8841 74.8342 22.0693 74.8633C22.3406 74.9052 22.1459 75.1084 22.114 75.218C21.7692 76.4016 21.418 77.5819 21.0509 78.759C20.8689 79.3427 20.9583 79.9328 20.9391 80.523C20.9264 80.9229 20.9232 81.3228 20.9391 81.7194C20.9487 81.9807 20.7987 81.9678 20.6199 81.9678C20.4411 81.9678 20.3006 81.9774 20.307 81.7162C20.323 81.0712 20.2974 80.4295 20.3166 79.7845C20.3294 79.3265 20.2464 78.8944 20.1091 78.459C19.7707 77.3819 19.4419 76.2984 19.1226 75.2148C19.0939 75.1116 18.8832 74.9052 19.1545 74.8568C19.3589 74.8213 19.6302 74.7214 19.726 75.0955C19.9431 75.9694 20.1921 76.8337 20.4283 77.7012C20.4794 77.885 20.5369 78.0688 20.6263 78.3687L20.6295 78.3752Z" fill="#001A28"/>
<path d="M38.948 78.6816C38.948 77.7141 38.9321 76.7499 38.9544 75.7824C38.9608 75.4502 38.8555 75.347 38.5458 75.3889C38.4085 75.4083 38.2648 75.3825 38.1244 75.3954C37.9264 75.4115 37.8211 75.3631 37.8243 75.1245C37.8243 74.8988 37.9041 74.8407 38.1148 74.8439C38.8682 74.8536 39.6185 74.8536 40.3719 74.8439C40.5858 74.8439 40.656 74.902 40.656 75.1245C40.656 75.3599 40.5602 75.3922 40.3623 75.3954C39.5674 75.4083 39.5674 75.4147 39.5674 76.2307C39.5674 78.0076 39.5674 79.7877 39.5674 81.5647C39.5674 81.7775 39.628 81.9839 39.2641 81.9839C38.9257 81.9839 38.9385 81.8162 38.9417 81.5808C38.948 80.6133 38.9417 79.6491 38.9417 78.6816H38.948Z" fill="#001A28"/>
<path d="M30.0919 59.9126C27.1165 59.9126 24.1411 59.9126 21.1689 59.9158C20.9359 59.9158 20.7762 59.8481 20.6038 59.6804C19.7898 58.9032 19.0651 58.0647 18.599 57.0198C17.9892 55.6557 17.7881 54.2464 17.9573 52.7533C18.2414 50.2539 19.3843 48.1513 20.8082 46.1647C21.8649 44.691 23.0908 43.3655 24.3805 42.0981C24.8977 41.5918 25.4436 41.1113 25.9832 40.6308C26.146 40.4857 26.146 40.4018 25.9832 40.2535C25.2617 39.5891 24.5306 38.9345 23.8378 38.2411C22.382 36.7867 21.0572 35.2258 19.9526 33.4747C19.0715 32.0783 18.3851 30.5916 18.0594 28.9663C17.5742 26.525 18.0339 24.2708 19.5567 22.2874C19.8983 21.8424 20.3453 21.4812 20.7347 21.0749C20.8401 20.9652 20.9614 20.9781 21.0859 20.9781C27.1005 20.9781 33.1119 20.9781 39.1265 20.9781C39.2862 20.9781 39.4075 21.0168 39.532 21.1297C40.5664 22.0746 41.4124 23.1517 41.8753 24.4997C42.2743 25.6672 42.4084 26.8572 42.2679 28.0987C42.0955 29.6338 41.5975 31.0463 40.8824 32.3943C40.2471 33.5908 39.4841 34.7002 38.6285 35.7483C37.7666 36.8093 36.8439 37.8122 35.8638 38.7636C35.3339 39.2763 34.7848 39.7665 34.2325 40.2567C34.0665 40.4018 34.0729 40.4889 34.2325 40.634C34.954 41.2983 35.6851 41.953 36.3778 42.6464C37.8336 44.1008 39.1585 45.6617 40.2631 47.4128C41.1442 48.8092 41.8306 50.2959 42.1562 51.9212C42.6415 54.3625 42.1817 56.6135 40.6589 58.6C40.3173 59.0451 39.8736 59.4095 39.4809 59.8158C39.3532 59.948 39.1968 59.9061 39.0499 59.9061C36.0618 59.9061 33.0736 59.9061 30.0887 59.9061L30.0919 59.9126ZM39.3213 58.1163C37.0961 56.607 34.9444 55.2042 32.5469 54.2432C31.7934 53.94 31.0336 53.7207 30.1876 53.9271C28.8053 54.2625 27.5187 54.8494 26.2386 55.4364C24.5849 56.1942 22.9631 57.0263 21.3285 57.826C21.1881 57.8938 21.0348 57.9518 20.9518 58.1163H39.3213ZM29.9961 50.8344C30.1174 50.1185 30.0887 49.3993 30.127 48.6866C30.194 47.4386 30.2738 46.1905 30.3664 44.9425C30.4462 43.8783 30.5803 42.8205 30.7719 41.7756C30.8804 41.1855 31.0177 40.5695 31.5157 40.1535C32.416 39.4053 33.3897 38.7603 34.3442 38.0895C34.7561 37.7993 35.1743 37.5091 35.5063 37.1188C35.7713 36.806 35.701 36.5222 35.3371 36.4706C34.8008 36.3965 34.2612 36.3481 33.7217 36.3094C32.831 36.2449 31.9435 36.1643 31.1039 35.8547C29.9897 35.4419 28.8468 35.2581 27.6656 35.3032C27.4389 35.3129 27.2154 35.3645 26.992 35.3742C26.2992 35.4032 25.6256 35.5451 24.9488 35.6805C24.6966 35.7321 24.7572 35.8289 24.8626 35.9579C25.0222 36.1546 25.1914 36.3449 25.3542 36.5384C26.0757 37.3962 26.8355 38.2121 27.8061 38.7958C28.2275 39.0473 28.6872 39.2731 28.8979 39.7536C29.0639 40.1309 29.198 40.5276 29.2969 40.9307C29.7024 42.5496 29.8237 44.2137 29.8971 45.8713C29.9674 47.4354 30.044 49.0059 29.9897 50.5732C29.9897 50.6603 29.9897 50.7474 29.9897 50.8376L29.9961 50.8344Z" fill="#00C7BF"/>
<path d="M39.3216 58.1163H20.9521C21.0352 57.9518 21.1884 57.8937 21.3289 57.826C22.9634 57.023 24.5852 56.1942 26.2389 55.4364C27.5191 54.8494 28.8056 54.2625 30.188 53.9271C31.0308 53.7207 31.7938 53.9432 32.5472 54.2431C34.9447 55.2042 37.0997 56.607 39.3216 58.1163Z" fill="#001A28"/>
<path d="M29.9961 50.8344C29.9961 50.7473 29.9961 50.6602 29.9961 50.5699C30.0504 48.9994 29.9737 47.4321 29.9035 45.868C29.8301 44.2104 29.7088 42.5496 29.3033 40.9274C29.2044 40.5275 29.0703 40.1309 28.9043 39.7503C28.6936 39.2698 28.2339 39.0441 27.8124 38.7925C26.8419 38.2088 26.0853 37.3929 25.3606 36.5351C25.1978 36.3416 25.0286 36.1513 24.869 35.9546C24.7636 35.8256 24.703 35.7289 24.9552 35.6773C25.632 35.5418 26.3056 35.3999 26.9984 35.3709C27.225 35.3612 27.4485 35.3064 27.672 35.3C28.8532 35.2548 29.9961 35.4386 31.1103 35.8514C31.9531 36.1642 32.8406 36.2449 33.7281 36.3061C34.2676 36.3448 34.8071 36.3932 35.3435 36.4674C35.7074 36.5157 35.7745 36.7995 35.5127 37.1156C35.1839 37.5058 34.7656 37.796 34.3506 38.0863C33.3961 38.7571 32.4192 39.402 31.5221 40.1502C31.0241 40.5662 30.8868 41.179 30.7782 41.7724C30.5867 42.8172 30.4494 43.875 30.3728 44.9392C30.2802 46.1873 30.2004 47.4353 30.1334 48.6834C30.0951 49.3993 30.1206 50.1152 30.0025 50.8312L29.9961 50.8344Z" fill="#001A28"/>
</g>
<defs>
<clipPath id="clip0_496_326">
<rect width="59" height="82" fill="white"/>
</clipPath>
</defs>
</svg>
