<svg id="Layer_1" data-name="Layer 1" xmlns="http://www.w3.org/2000/svg" viewBox="0 0 677.92 826.79"><defs><style>.cls-1{fill:#0d0037;}.cls-2{fill:#fac008;}.cls-3{fill:#191035;}</style></defs><path class="cls-1" d="M707.34,303.49c-10.28-30-10.88-60-.31-89.75,8.61-24.21,23.7-44.11,44.32-59.54,49.07-36.71,115.89-34.88,162.21.29,38.45,29.2,65.36,82.28,43.55,149h5.65q101.57,0,203.11-.09c4.07,0,5.3.71,5.3,5.13q-.24,130.16-.12,260.3v5.76a109.45,109.45,0,0,0-13.54-13.77c-32.26-26.51-76.1-24.87-106.32,4-38.59,36.83-40.8,103-4.77,142.47,33.81,37,86.75,36.92,120.48-.19,1.15-1.26,2.28-2.53,3.55-4,1,1.78.57,3.41.57,4.94q0,120.46.14,240.92c0,4.33-1.09,5.17-5.25,5.17q-333.75-.17-667.48,0c-4.31,0-5.19-1.06-5.19-5.24q.21-127.48.11-255v-6c1.57,2.08,2.49,3.27,3.38,4.47,34.65,46.69,98.86,46.13,132.69-1.16,26.21-36.62,25.28-89-2.18-124.11-34.9-44.56-96.51-43.81-130.37,1.58-.92,1.23-1.82,2.48-2.89,3.94-1.08-1.87-.61-3.49-.61-5q0-129.68-.12-259.34c0-4,.9-5,4.95-5q101.79.21,203.59.1Z" transform="translate(-493.24 -127.38)"/><path class="cls-2" d="M889.72,632.49c10.34,9.67,20.51,18.77,30.19,28.35,18.25,18,34.82,37.52,48.65,59.22,11.16,17.52,19.89,36.18,23.92,56.58,5.55,28,1.18,54.46-15.29,78.4-5.49,8-12.79,14.16-19.62,20.82-1.32,1.29-3,.6-4.56.6q-52.1.07-104.21,0h-126c0-1.62,1.57-.42,1.77-1.74-3.26.35-5.22-1.69-7.47-3.67a92.23,92.23,0,0,1-26.78-40.42c-5.44-16.3-6.23-33-3.31-50.24,4.84-28.64,18.46-52.93,35.08-76,13.32-18.46,28.79-35.05,45.11-50.85,7.35-7.12,15.16-13.77,23-20.83-9.81-9.13-19.59-17.85-28.92-27-18.63-18.35-35.56-38.13-49.7-60.23-11.29-17.65-20.09-36.42-24.15-57-4.7-23.82-2.23-46.86,9.41-68.73,6.3-11.84,15.65-20.84,24.89-30.09,1.52-1.52,3.34-.87,5-.87q52.34-.08,104.69,0c40.42,0,80.85.05,121.27-.08,3.36,0,5.54,1.14,8,3.33,13.44,12.18,23.76,26.4,29.21,43.83,5,16,5.79,32.15,3,48.86-4.81,28.82-18.56,53.2-35.31,76.35-13.45,18.59-29.07,35.25-45.47,51.19C905,619.19,897.4,625.59,889.72,632.49Z" transform="translate(-493.24 -127.38)"/><path class="cls-3" d="M956.59,854H723.48c3.25-3.34,7.32-4.71,11-6.52,18.7-9.18,37.31-18.58,56.32-27.09,16.33-7.31,32.64-14.76,50.21-19,10.81-2.59,20.5.4,30.18,4.24C901.47,817.69,928.55,835.28,956.59,854Z" transform="translate(-493.24 -127.38)"/><path class="cls-3" d="M838.5,763.31c0-2.07-.07-4.15,0-6.22.7-19-.29-38-1.21-56.94-1.11-23.06-2.9-46.17-9.46-68.56-2.77-9.43-9.06-15.24-17.51-20-12-6.69-21.05-17-30-27.21-2.32-2.63-4.55-5.32-6.75-8-1.33-1.65-2-2.82,1.15-3.44,8.7-1.69,17.35-3.68,26.26-3.74,2.91,0,5.58-1.07,8.51-1.12a117.64,117.64,0,0,1,43.36,7.15c10.3,3.81,21.23,4.71,32.12,5.57q10.45.84,20.88,2c1.72.19,3.67.83,4.26,2.62.71,2.14-.45,4-1.87,5.62-5,5.62-11.27,9.76-17.41,14-11.3,7.82-22.82,15.34-33.32,24.23-6.18,5.24-7.8,12.93-9.18,20.32a361.91,361.91,0,0,0-5.11,39.59q-1.71,23.19-3,46.37C839.65,744.82,840,754.11,838.5,763.31Z" transform="translate(-493.24 -127.38)"/></svg>