<svg width="61" height="49" viewBox="0 0 61 49" fill="none" xmlns="http://www.w3.org/2000/svg">
<path d="M60.9171 30.7824C60.8709 29.834 60.8678 28.8823 60.7612 27.9388C60.3446 24.2631 59.4858 20.6987 58.2995 17.214C56.776 12.7394 54.6784 8.57371 52.1912 4.61066C51.9415 4.21369 51.6251 3.93465 51.2068 3.75194C49.4702 2.99122 47.7289 2.24047 45.9271 1.66079C43.8613 0.996407 41.7764 0.411749 39.6391 0.0413552C39.1398 -0.0450147 38.7994 0.0945059 38.5434 0.55127C38.1824 1.19572 37.8739 1.86675 37.5924 2.55273C37.3268 3.20216 37.1614 3.2985 36.4983 3.21711C34.609 2.9879 32.7166 2.83841 30.8115 2.82014C28.6471 2.80021 26.497 2.95966 24.3533 3.23538C23.8524 3.30016 23.5661 3.11745 23.3801 2.6474C23.1081 1.9581 22.7948 1.28874 22.4116 0.655911C21.9981 -0.0250832 21.8788 -0.0865387 21.0917 0.0646087C17.5103 0.753907 14.0547 1.87506 10.6769 3.29185C9.60983 3.74031 8.79084 4.3748 8.18812 5.43948C6.7839 7.91763 5.40513 10.4008 4.26013 13.0267C2.71596 16.5679 1.55983 20.2353 0.782181 24.0339C0.521375 25.3062 0.301916 26.5852 0.220812 27.8923C0.147659 29.0816 0.160381 30.2775 -0.00341797 31.4601V32.455C0.122214 32.6942 0.0252071 32.9533 0.0554224 33.2008C0.0252071 33.4482 0.120624 33.7074 -0.00341797 33.9465V36.0593C0.117443 36.2652 0.0283877 36.4928 0.0554224 36.7071C0.0267974 36.9878 0.115853 37.2768 -0.00341797 37.5508V38.6686C0.107902 39.1304 0.111082 39.6121 0.0967697 40.0738C0.0776864 40.7133 0.32418 41.1136 0.804445 41.464C5.17454 44.6498 9.84996 47.191 14.9484 48.8537C15.6593 49.0862 15.8803 49.0181 16.3129 48.3803C16.7947 47.6711 17.2734 46.9568 17.6948 46.2077C18.1353 45.4221 18.6045 44.6514 18.9655 43.8209C19.2119 43.2546 19.1181 42.9888 18.5949 42.7147C18.3293 42.5752 18.0463 42.4772 17.7727 42.356C16.8059 41.9258 15.8724 41.4192 14.9436 40.9076C14.7703 40.8129 14.5604 40.71 14.6113 40.4525C14.6685 40.1668 14.8991 40.0755 15.1488 40.0489C15.3969 40.0223 15.6084 40.1502 15.8262 40.2515C16.9506 40.7731 18.1019 41.2265 19.274 41.6119C23.8587 43.1217 28.5437 43.7462 33.3511 43.331C35.9099 43.1101 38.4098 42.6035 40.8732 41.8594C42.3823 41.4026 43.8295 40.788 45.2782 40.1635C45.7474 39.9609 46.1879 40.0456 46.2706 40.3661C46.3898 40.8312 45.9811 40.8993 45.7219 41.0405C44.6167 41.6501 43.4876 42.2032 42.3299 42.6998C41.7685 42.9406 41.6794 43.2645 41.9498 43.8309C42.694 45.3906 43.5703 46.8688 44.5388 48.2856C45.1033 49.1111 45.1733 49.1194 46.1259 48.8038C49.1219 47.8139 51.9908 46.5084 54.7547 44.9537C56.7283 43.8425 58.6143 42.5802 60.4273 41.2033C60.6769 41.0139 60.8471 40.8096 60.8678 40.4509C60.9298 39.338 60.9505 38.2235 60.9727 37.1107C61.0141 35.0012 61.0188 32.8885 60.9187 30.7791L60.9171 30.7824ZM25.8291 26.9007C25.7989 28.7511 25.255 30.3921 23.9828 31.7225C21.9568 33.8386 18.9146 33.8718 16.8281 31.8105C14.36 29.3723 14.2296 24.9059 16.5514 22.3132C19.3694 19.1657 24.0559 20.3283 25.4538 24.5239C25.7098 25.2913 25.8498 26.0819 25.8275 26.9007H25.8291ZM44.2795 31.676C42.2424 33.8502 39.1366 33.8867 37.0374 31.7757C34.4834 29.2062 34.5041 24.5521 37.0788 22.0092C39.9047 19.2188 44.3527 20.5127 45.6933 24.5156C45.9509 25.2846 46.0893 26.0736 46.0734 26.4938C46.0527 28.7228 45.52 30.3489 44.278 31.6743L44.2795 31.676Z" fill="#FEFEFE"/>
</svg>
