<svg width="56" height="49" viewBox="0 0 56 49" fill="none" xmlns="http://www.w3.org/2000/svg">
<path d="M55.9943 10.4596C55.9943 9.89766 55.9921 9.32654 55.9142 8.77498C55.1689 3.48628 51.6513 0.000906877 47.0746 -0.000397043C40.7136 -0.00170096 34.3526 -0.000397043 27.9904 -0.000397043C21.6283 -0.000397043 15.2683 -0.00170096 8.90732 0.00481864C8.40893 0.00481864 7.90277 0.00873039 7.41551 0.107828C2.96123 1.00623 0.00987982 5.10575 0.00431754 10.414C-0.00458213 19.7996 0.000980163 29.1839 0.00431754 38.5695C0.00431754 39.1107 0.00431754 39.6596 0.0766273 40.1903C0.79305 45.4582 4.33956 48.997 8.89508 48.9983C21.6361 49.0009 34.377 49.0009 47.118 48.9944C47.6153 48.9944 48.1214 48.984 48.6098 48.8823C53.0685 47.9604 55.9887 43.8804 55.9943 38.55C56.0032 29.1865 55.9976 19.8231 55.9943 10.4596ZM8.47568 4.74848C8.65924 4.73153 8.84502 4.73674 9.02969 4.73674C21.6761 4.73674 34.3225 4.73935 46.9689 4.73153C48.2527 4.73153 49.403 5.10706 50.4198 6.17888C49.2228 7.31459 48.0547 8.42553 46.8833 9.53126C41.4033 14.7104 35.92 19.887 30.4423 25.0688C28.9471 26.4835 27.0604 26.5083 25.5564 25.104C18.9105 18.8973 12.2647 12.6867 5.61889 6.47748C5.5755 6.43705 5.53657 6.39142 5.46426 6.31318C6.29972 5.32351 7.31873 4.85931 8.47568 4.74848ZM51.9528 38.5422C51.9505 41.9141 49.9425 44.2599 47.0624 44.2612C34.3548 44.2664 21.6472 44.2664 8.94069 44.2612C6.10726 44.2612 4.05478 41.9389 4.04921 38.6791C4.03475 29.5947 4.04365 20.5116 4.04476 11.4272C4.04476 11.3646 4.05366 11.302 4.06813 11.1129C5.59553 12.5394 7.05285 13.8994 8.51017 15.2607C13.3382 19.7709 18.1619 24.2877 22.9955 28.7901C26.077 31.6601 29.9595 31.634 33.0343 28.7315C39.1239 22.9825 45.209 17.2244 51.2953 11.4715C51.4811 11.2955 51.668 11.122 51.8549 10.946C52.0384 11.079 51.9528 11.2707 51.9528 11.4206C51.9583 20.4607 51.9617 29.5021 51.955 38.5422H51.9528Z" fill="#FEFEFE"/>
</svg>
