<svg width="57" height="57" viewBox="0 0 57 57" fill="none" xmlns="http://www.w3.org/2000/svg">
<path d="M15.7072 52.8088C15.3097 52.547 14.8366 52.6155 14.4031 52.5134C13.8951 52.3934 13.3823 52.2925 12.8936 52.104C12.9788 51.8976 13.1638 51.8579 13.3559 51.8339C13.5432 51.8099 13.733 51.8159 13.9215 51.8147C23.3653 51.8147 32.8103 51.8123 42.254 51.8195C42.6119 51.8195 43.0262 51.6983 43.282 52.1028C42.4245 52.4354 41.5191 52.547 40.6208 52.6959C40.5259 52.7115 40.4107 52.6815 40.3638 52.8076H39.5388C39.3671 52.7235 39.1954 52.7235 39.0224 52.8076H16.6367C16.5334 52.7307 16.4302 52.7307 16.3269 52.8076H15.7084L15.7072 52.8088Z" fill="white"/>
<path d="M1.67676 23.5183V22.0741C1.85809 21.9108 2.08266 21.9108 2.30482 21.9096C3.65462 21.9048 5.00321 21.9048 6.35301 21.9096C6.55716 21.9096 6.76491 21.9108 6.94504 22.0369C7.16 22.5375 7.14199 23.0405 6.96066 23.5447C6.80094 23.6684 6.6112 23.6792 6.42266 23.6804C5.03444 23.69 3.64501 23.6876 2.25679 23.6816C2.05023 23.6816 1.84248 23.6684 1.67676 23.5183H1.67676Z" fill="white"/>
<path d="M1.67676 32.5942V31.15C1.85809 30.9867 2.08266 30.9867 2.30482 30.9855C3.65462 30.9807 5.00321 30.9807 6.35301 30.9855C6.55716 30.9855 6.76491 30.9867 6.94504 31.1128C7.16 31.6134 7.14199 32.1152 6.96066 32.6207C6.80094 32.7443 6.6112 32.7551 6.42266 32.7563C5.03444 32.7659 3.64501 32.7635 2.25679 32.7575C2.05023 32.7575 1.84248 32.7443 1.67676 32.5942H1.67676Z" fill="white"/>
<path d="M6.92223 22.0753H1.67676V20.8375C1.85809 20.6742 2.08266 20.6742 2.30482 20.673C3.65342 20.6682 5.00201 20.6682 6.34941 20.673C6.55356 20.673 6.76131 20.673 6.94144 20.7979C7.13839 21.2265 7.18162 21.6527 6.92103 22.0753H6.92223Z" fill="white"/>
<path d="M1.67747 23.5183C3.42596 23.5183 5.17325 23.5183 6.92174 23.5183C7.18593 23.9361 7.13189 24.3611 6.95176 24.7897C6.75722 24.9289 6.53145 24.9193 6.30929 24.9205C4.99192 24.9253 3.67454 24.9253 2.35717 24.9205C2.1182 24.9205 1.87321 24.9313 1.67627 24.7548V23.5171L1.67747 23.5183Z" fill="white"/>
<path d="M6.92223 24.756C6.92223 24.343 6.92223 23.9312 6.92223 23.5182C6.92223 23.0368 6.92223 22.5554 6.92223 22.074C6.92223 21.6622 6.92223 21.2492 6.92463 20.8375C6.72408 20.5553 6.79734 20.2348 6.79133 19.9251C6.78533 19.6489 6.78052 19.374 6.79133 19.0979C6.78533 18.8566 6.78172 18.6165 6.79133 18.3752C6.78773 18.1086 6.78413 17.8409 6.79373 17.5732C6.80454 17.3019 6.75891 17.0246 6.87419 16.7629C6.91142 16.7004 6.96546 16.6764 7.03631 16.6908C7.08795 16.7352 7.12518 16.7893 7.1492 16.8529C7.21524 17.0534 7.20684 17.2611 7.20684 17.4664C7.20924 24.3418 7.20804 31.2172 7.20684 38.0915C7.20684 38.2115 7.20684 38.3328 7.19003 38.4516C7.16 38.7566 6.98227 38.9151 6.68445 38.9247C5.14612 38.9691 3.60778 38.9319 2.06945 38.9463C1.93975 38.9463 1.84128 38.885 1.76562 38.7842L1.71999 38.7866L1.67676 38.7818V38.1635C1.72599 38.0831 1.77643 38.0039 1.8701 37.9678C2.58103 37.8358 3.29915 37.9246 4.01368 37.9078C4.73061 37.891 5.44754 37.9018 6.16327 37.9042C6.54635 37.9054 6.79373 37.7769 6.78653 37.3508C6.78052 37.041 6.77572 36.7325 6.78893 36.424C6.78052 36.1454 6.77812 35.8669 6.78893 35.5884C6.77932 35.2786 6.77932 34.9677 6.78893 34.658C6.77692 34.3446 6.77932 34.0313 6.78893 33.7192C6.80454 33.341 6.69406 32.9484 6.92103 32.5955C6.92103 32.114 6.92103 31.6326 6.92103 31.1512C6.69646 30.7995 6.80574 30.4093 6.79013 30.0335C6.78172 29.7214 6.77932 29.4104 6.79013 29.0983C6.78172 28.7898 6.77932 28.48 6.79013 28.1715C6.78172 27.8954 6.78052 27.6181 6.79013 27.3419C6.78172 27.0658 6.78052 26.7897 6.79013 26.5124C6.78052 26.2338 6.78172 25.9553 6.79013 25.6768C6.79734 25.3647 6.72168 25.0405 6.92223 24.7572V24.756Z" fill="white"/>
<path d="M6.92103 30.0157C6.92103 30.3939 6.92103 30.772 6.92103 31.1502C5.17254 31.1502 3.42525 31.1502 1.67676 31.1502V30.0157C1.85809 29.8524 2.08266 29.8524 2.30482 29.8512C3.6354 29.8464 4.96598 29.8452 6.29657 29.8512C6.51633 29.8512 6.7457 29.838 6.92103 30.0145V30.0157Z" fill="white"/>
<path d="M6.92178 32.5942V33.7287C6.74525 33.9052 6.51588 33.8908 6.29732 33.892C4.96674 33.898 3.63616 33.898 2.30677 33.892C2.08461 33.892 1.86004 33.892 1.67871 33.7275V32.593C3.4272 32.593 5.17449 32.593 6.92298 32.593L6.92178 32.5942Z" fill="white"/>
<path d="M1.67676 33.7287C3.42525 33.7287 5.17254 33.7287 6.92103 33.7287C6.92103 34.0385 6.92103 34.347 6.92103 34.6567C6.7445 34.8332 6.51513 34.8188 6.29657 34.82C4.96598 34.826 3.6354 34.826 2.30602 34.82C2.08386 34.82 1.85929 34.82 1.67796 34.6556V33.7275L1.67676 33.7287Z" fill="white"/>
<path d="M1.67676 34.657C3.42525 34.657 5.17254 34.657 6.92103 34.657C6.92103 34.9667 6.92103 35.2752 6.92103 35.585C6.7445 35.7614 6.51513 35.747 6.29657 35.7482C4.96598 35.7542 3.6354 35.7542 2.30602 35.7482C2.08386 35.7482 1.85929 35.7482 1.67796 35.5838V34.6558L1.67676 34.657Z" fill="white"/>
<path d="M6.92103 30.0155C5.17254 30.0155 3.42525 30.0155 1.67676 30.0155V29.0875C1.85809 28.9242 2.08266 28.9242 2.30482 28.923C3.6354 28.9182 4.96598 28.917 6.29657 28.923C6.51633 28.923 6.7457 28.9098 6.92223 29.0863V30.0143L6.92103 30.0155Z" fill="white"/>
<path d="M6.92103 29.0875C5.17254 29.0875 3.42525 29.0875 1.67676 29.0875V28.1595C1.85809 27.9962 2.08266 27.9962 2.30482 27.995C3.6354 27.9902 4.96598 27.989 6.29657 27.995C6.51633 27.995 6.7457 27.983 6.92223 28.1583V29.0863L6.92103 29.0875Z" fill="white"/>
<path d="M6.92178 36.4097L6.92778 37.3378C6.75005 37.5106 6.52188 37.5022 6.30212 37.5022C4.97034 37.5082 3.63856 37.5082 2.30677 37.5022C2.08461 37.5022 1.85884 37.5022 1.67871 37.3378V36.4097C1.86004 36.2465 2.08461 36.2465 2.30677 36.2453C3.63736 36.2405 4.96794 36.2393 6.29732 36.2453C6.51708 36.2453 6.74645 36.2321 6.92298 36.4085L6.92178 36.4097Z" fill="white"/>
<path d="M6.92223 24.7561V25.6841C6.7457 25.8594 6.51633 25.8462 6.29657 25.8474C4.96598 25.8534 3.6354 25.8534 2.30482 25.8474C2.08266 25.8474 1.85809 25.8474 1.67676 25.6829V24.7549H6.92223V24.7561Z" fill="white"/>
<path d="M6.92538 19.9107C6.92538 20.2204 6.92538 20.529 6.92538 20.8387C5.17569 20.8387 3.4272 20.8387 1.67871 20.8375V19.9095C1.86004 19.7462 2.08461 19.7462 2.30677 19.745C3.63856 19.7402 4.96914 19.739 6.30092 19.745C6.52068 19.745 6.75005 19.7366 6.92658 19.9107H6.92538Z" fill="white"/>
<path d="M1.67676 14.0306C1.88331 13.9141 1.75361 13.662 1.88451 13.5144C2.06584 13.3499 2.29161 13.3511 2.51378 13.3511C3.84676 13.3463 5.17974 13.3427 6.51273 13.3535C6.79493 13.3559 7.11317 13.3175 7.25367 13.6716C7.30891 13.9562 7.34014 14.2359 7.04832 14.4268C6.87179 14.5036 6.68325 14.5036 6.49591 14.5048C5.1161 14.5084 3.73628 14.5084 2.35526 14.5048C2.11748 14.5048 1.8737 14.5156 1.67676 14.3403V14.0306H1.67676Z" fill="white"/>
<path d="M6.92174 26.5086V27.3346C6.74521 27.5099 6.51584 27.4967 6.29608 27.4979C4.9655 27.5039 3.63491 27.5039 2.30433 27.4979C2.08217 27.4979 1.8576 27.4979 1.67627 27.3334V26.5086C1.8576 26.3454 2.08217 26.3454 2.30433 26.3442C3.63491 26.3393 4.9655 26.3381 6.29608 26.3442C6.51584 26.3442 6.74521 26.3321 6.92174 26.5074V26.5086Z" fill="white"/>
<path d="M1.67676 15.8864V15.0617C1.85929 14.8996 2.08626 14.8972 2.30962 14.896C3.633 14.8912 4.95758 14.8852 6.28095 14.8984C7.05433 14.9068 7.21644 15.1565 6.97146 15.902C6.78413 16.0581 6.55596 16.0509 6.33379 16.0521C4.9924 16.0581 3.65101 16.0581 2.31083 16.0521C2.08746 16.0521 1.86049 16.0521 1.67796 15.8864H1.67676Z" fill="white"/>
<path d="M6.92103 36.4095C5.17254 36.4095 3.42525 36.4095 1.67676 36.4095V35.5847C3.42525 35.5847 5.17254 35.5847 6.92103 35.5847C6.92103 35.8596 6.92103 36.1346 6.92103 36.4095Z" fill="white"/>
<path d="M1.67676 27.335C3.42525 27.335 5.17374 27.335 6.92103 27.335C6.92103 27.6099 6.92103 27.8848 6.92103 28.1597C5.17254 28.1597 3.42525 28.1597 1.67676 28.1597V27.335Z" fill="white"/>
<path d="M1.67676 15.8865C3.42405 15.8865 5.17134 15.8865 6.91983 15.8865C7.1504 16.1518 7.12037 16.4267 6.94745 16.7052L6.93304 16.722C6.76611 16.8721 6.55716 16.8745 6.35301 16.8745C4.9864 16.8805 3.62099 16.8805 2.25438 16.8745C2.04903 16.8745 1.84248 16.8613 1.67676 16.7112V15.8865H1.67676Z" fill="white"/>
<path d="M6.92703 17.5386V18.3634C6.7481 18.5351 6.51993 18.5243 6.29897 18.5255C4.96719 18.5315 3.6366 18.5315 2.30482 18.5255C2.08266 18.5255 1.85809 18.5255 1.67676 18.361V17.5362C1.85809 17.3729 2.08266 17.3729 2.30482 17.3717C3.6366 17.3669 4.96839 17.3657 6.30017 17.3717C6.52113 17.3717 6.7481 17.3645 6.92583 17.5374L6.92703 17.5386Z" fill="white"/>
<path d="M6.92703 17.5384C5.17734 17.5384 3.42645 17.5384 1.67676 17.5372V16.7124C3.42885 16.716 5.18094 16.7196 6.93184 16.7232C6.92943 16.9957 6.92823 17.267 6.92583 17.5396L6.92703 17.5384Z" fill="white"/>
<path d="M6.92103 26.5088H1.67676V25.6841C3.42525 25.6841 5.17374 25.6841 6.92223 25.6841C6.92223 25.959 6.92223 26.2339 6.92223 26.5088H6.92103Z" fill="white"/>
<path d="M6.92463 19.9108C5.17494 19.9108 3.42645 19.9108 1.67676 19.9096V19.0848C1.85809 18.9215 2.08266 18.9215 2.30482 18.9203C3.6366 18.9155 4.96839 18.9143 6.29897 18.9203C6.51993 18.9203 6.7469 18.9119 6.92463 19.086V19.9108Z" fill="white"/>
<path d="M6.94625 16.7054C6.93784 16.4328 6.92823 16.1591 6.91983 15.8866C6.92583 15.7846 6.92583 15.6813 6.93904 15.5805C6.99188 15.1927 6.85978 15.045 6.43707 15.051C4.8507 15.0762 3.26313 15.0606 1.67676 15.0606V14.9574C1.75482 14.8553 1.75361 14.7521 1.67676 14.6488V14.3391C3.47088 14.3403 5.26621 14.3427 7.06033 14.3439C7.26208 15.1411 7.37256 15.9346 6.98948 16.7138L6.94745 16.7042L6.94625 16.7054Z" fill="white"/>
<path d="M6.92583 19.0848H1.67676V18.3608C3.42645 18.3608 5.17614 18.3608 6.92583 18.3632C6.92583 18.6033 6.92583 18.8447 6.92583 19.0848Z" fill="white"/>
<path d="M1.67747 37.3386C3.42716 37.3386 5.17685 37.3386 6.92654 37.3386C6.94696 38.0253 6.91453 38.0601 6.21442 38.0613C4.74093 38.0625 3.26864 38.0613 1.79516 38.0613C1.7243 38.0625 1.7159 37.9929 1.67627 37.9581V37.3398L1.67747 37.3386Z" fill="white"/>
<path d="M39.022 52.8087C39.1937 52.667 39.3654 52.6502 39.5384 52.8087H39.022Z" fill="white"/>
<path d="M1.67676 14.6487C1.82927 14.7519 1.80765 14.8552 1.67676 14.9584V14.6487Z" fill="white"/>
<path d="M16.3271 52.8089C16.4304 52.6612 16.5337 52.678 16.637 52.8089H16.3271Z" fill="white"/>
<path d="M1.67676 37.957C1.71639 37.9918 1.75602 38.0255 1.79565 38.0603C1.75602 38.0951 1.71639 38.1287 1.67676 38.1635V37.957Z" fill="white"/>
<path d="M49.3348 4.15015C49.6819 4.40946 50.0121 4.68558 50.2403 5.06255C50.0482 5.4095 49.7059 5.31826 49.4141 5.31946C47.0171 5.32907 44.6202 5.32427 42.2232 5.32547C41.624 5.32547 41.0247 5.33267 40.4255 5.31226C40.1793 5.30386 39.9487 5.33747 39.735 5.46473C39.4672 5.54997 39.191 5.53556 38.9172 5.53556C31.6998 5.53556 24.4825 5.53556 17.2652 5.53556C16.9914 5.53556 16.714 5.55117 16.4486 5.45752C16.2216 5.30386 15.9658 5.31106 15.7064 5.31346C12.739 5.34347 9.77045 5.32307 6.80306 5.32187C6.49323 5.32187 6.13537 5.41551 5.92041 5.06255C6.17019 4.70119 6.48483 4.40466 6.84029 4.15015C7.23418 4.17896 7.62927 4.16695 8.02436 4.16695C21.3998 4.16695 34.7753 4.16695 48.1508 4.16695C48.5459 4.16695 48.941 4.17896 49.3348 4.15015Z" fill="white"/>
<path d="M49.3346 4.14995C49.2494 4.45489 48.996 4.32883 48.817 4.33003C47.0121 4.33964 45.2072 4.33603 43.4022 4.33603C31.421 4.33603 19.441 4.33604 7.45973 4.32883C7.25197 4.32883 6.96376 4.4861 6.83887 4.15115C7.14509 3.82821 7.45732 3.51247 7.85842 3.30118C8.07698 3.24355 8.29914 3.23755 8.52251 3.23755C21.5653 3.24115 34.6082 3.24115 47.6498 3.23755C47.8743 3.23755 48.0965 3.24355 48.3139 3.30118C48.7138 3.51247 49.026 3.82821 49.3322 4.15115L49.3346 4.14995Z" fill="white"/>
<path d="M7.02404 48.8231C6.68059 48.5782 6.36115 48.3081 6.11377 47.9611C6.27709 47.6574 6.57491 47.6958 6.84151 47.6946C9.96861 47.685 13.0957 47.6766 16.2228 47.6934C19.3848 47.7102 22.5455 47.6982 25.7074 47.703C33.4904 47.7162 41.2745 47.6826 49.0575 47.6958C49.3961 47.6958 49.7948 47.5673 50.041 47.9575C49.826 48.3297 49.485 48.571 49.1523 48.8231C48.8269 48.8495 48.5014 48.8543 48.1748 48.8543C34.6804 48.8543 21.1861 48.8519 7.69173 48.8567C7.46717 48.8567 7.24741 48.8219 7.02404 48.8243V48.8231Z" fill="white"/>
<path d="M7.02393 48.823C7.15362 48.6201 7.36017 48.6862 7.54031 48.685C21.2388 48.6826 34.9373 48.6826 48.6358 48.685C48.816 48.685 49.0225 48.6201 49.1534 48.8218C48.8808 49.1412 48.5602 49.4005 48.1951 49.6046C47.8901 49.6634 47.5826 49.6778 47.2728 49.6778C34.4834 49.6754 21.6951 49.6754 8.90571 49.6778C8.59468 49.6778 8.28846 49.6634 7.98343 49.6046C7.61836 49.4005 7.29773 49.14 7.02513 48.8218L7.02393 48.823Z" fill="white"/>
<path d="M48.316 3.3001C48.1143 3.42616 47.8885 3.40695 47.6663 3.40695C34.6139 3.40695 21.5615 3.40695 8.50905 3.40695C8.28569 3.40695 8.06112 3.42616 7.85938 3.3001C8.26527 2.92674 8.712 2.611 9.20317 2.35889C9.5226 2.44773 9.85165 2.41171 10.1747 2.41171C22.2688 2.41171 34.3617 2.42011 46.4559 2.40691C46.6252 2.40691 46.7981 2.45853 46.9662 2.3925C47.4922 2.58219 47.9017 2.94355 48.316 3.3001Z" fill="white"/>
<path d="M43.2825 52.1041C43.0832 51.9756 42.861 51.9828 42.6365 51.9828C32.9381 51.9828 23.2385 51.9828 13.5402 51.9828C13.3156 51.9828 13.0923 51.9744 12.8941 52.1041C12.0715 51.8796 11.2633 51.6179 10.5308 51.1665C10.6785 50.9648 10.9018 50.9336 11.1252 50.9059C11.3474 50.8795 11.5719 50.8867 11.7953 50.8867C22.6573 50.8867 33.5205 50.8855 44.3825 50.8915C44.8161 50.8915 45.288 50.7883 45.6459 51.1665C44.9133 51.6191 44.1051 51.8796 43.2825 52.1041Z" fill="white"/>
<path d="M45.6452 51.1664C45.142 51.0272 44.6268 51.056 44.114 51.056C33.4298 51.056 22.7455 51.056 12.0624 51.056C11.5496 51.056 11.0344 51.0272 10.5313 51.1664C9.99086 50.9876 9.51651 50.6934 9.06738 50.3513C9.19948 50.1304 9.42285 50.1004 9.64741 50.0764C9.85276 50.0547 10.0593 50.0607 10.2647 50.0607C22.1474 50.0607 34.0314 50.0595 45.9142 50.0656C46.3261 50.0656 46.7872 49.9443 47.1115 50.3501C46.6623 50.691 46.1868 50.9864 45.6476 51.1652L45.6452 51.1664Z" fill="white"/>
<path d="M12.4121 0.852232C14.0417 0.248365 15.7386 0.0130611 17.463 0.00945954C24.5447 -0.00374631 31.6275 -0.00254578 38.7091 0.00945954C40.4348 0.0118606 42.1316 0.251967 43.7624 0.852232C43.7144 1.11395 43.497 1.14276 43.2953 1.17758C43.0743 1.21719 42.8498 1.20279 42.6264 1.20279C32.934 1.20279 23.2405 1.20279 13.5481 1.20279C13.3248 1.20279 13.1002 1.21599 12.8793 1.17758C12.6775 1.14156 12.4613 1.11275 12.4121 0.852232Z" fill="white"/>
<path d="M47.1094 50.3515C46.814 50.2495 46.5114 50.2279 46.1992 50.2279C34.1242 50.2315 22.0505 50.2315 9.97563 50.2279C9.6634 50.2279 9.36078 50.2495 9.06536 50.3515C8.64985 50.1822 8.31 49.9025 7.98096 49.606C8.16709 49.4895 8.37605 49.5088 8.5814 49.5088C21.5846 49.5088 34.589 49.5088 47.5922 49.5088C47.7975 49.5088 48.0065 49.4907 48.1926 49.606C47.8648 49.9025 47.5237 50.1822 47.1082 50.3515H47.1094Z" fill="white"/>
<path d="M12.4125 0.852295C12.6022 1.03958 12.8424 1.03718 13.0862 1.03718C23.0872 1.03598 33.0893 1.03598 43.0903 1.03718C43.3341 1.03718 43.5731 1.04078 43.7628 0.852295C44.4497 1.04798 45.1042 1.3205 45.7251 1.67346C45.7058 1.95318 45.4861 1.97839 45.2831 2.00961C45.079 2.04082 44.8712 2.02882 44.6659 2.02882C33.6153 2.02882 22.5636 2.02882 11.513 2.02882C11.3065 2.02882 11.0987 2.04082 10.8958 2.00961C10.6916 1.97839 10.4731 1.95318 10.4526 1.67346C11.0651 1.30009 11.734 1.06359 12.4149 0.852295H12.4125Z" fill="white"/>
<path d="M10.4496 1.67356C10.607 1.94488 10.8724 1.85725 11.1005 1.85725C17.1326 1.86085 23.1634 1.85965 29.1955 1.85965C34.4878 1.85965 39.7813 1.85965 45.0736 1.85725C45.3018 1.85725 45.5672 1.94488 45.7245 1.67236C46.1832 1.83444 46.5975 2.07454 46.9662 2.39148C46.8821 2.69522 46.6311 2.57516 46.4498 2.57636C44.3362 2.58477 42.2227 2.58117 40.1091 2.58117C30.0049 2.58117 19.9018 2.58117 9.79756 2.57396C9.59101 2.57396 9.29079 2.72643 9.20312 2.35787C9.59461 2.08415 9.99571 1.82963 10.4508 1.67236L10.4496 1.67356Z" fill="white"/>
<path d="M50.0407 47.9574C49.857 47.8313 49.6468 47.859 49.4415 47.859C35.2158 47.859 20.9901 47.859 6.76439 47.859C6.54222 47.859 6.31525 47.8349 6.11351 47.9622C5.82169 47.7293 5.59472 47.4388 5.37256 47.1434C5.59712 46.9237 5.88534 46.9766 6.15313 46.9766C8.19584 46.9706 10.2373 46.9706 12.2801 46.9766C12.8132 46.9778 13.3416 46.9358 13.8676 46.8517C14.2543 46.8025 14.611 46.9478 14.9724 47.0402C15.4864 47.1723 15.998 47.3115 16.53 47.3571C16.7654 47.428 17.0079 47.4052 17.2469 47.4052C24.4727 47.4052 31.6996 47.4052 38.9253 47.4052C39.1643 47.4052 39.4069 47.428 39.641 47.3571C40.0806 47.2815 40.5189 47.2047 40.9536 47.1002C41.1362 47.0558 41.3223 47.0054 41.5048 47.1098C41.7642 47.3451 42.0861 47.2827 42.3887 47.2839C44.8229 47.2899 47.2571 47.2839 49.6913 47.2911C49.9735 47.2911 50.2809 47.2227 50.5187 47.4628C50.4214 47.6873 50.2136 47.8061 50.0431 47.961L50.0407 47.9574Z" fill="white"/>
<path d="M5.92049 5.0625C6.12224 5.19216 6.34921 5.16094 6.56897 5.16094C9.66725 5.16094 12.7655 5.15854 15.8626 5.16815C16.056 5.16815 16.3262 5.02889 16.4294 5.34943C16.3322 5.49469 16.1701 5.5079 16.0223 5.53911C15.1985 5.71199 14.3783 5.89687 13.5905 6.2018C13.414 6.27023 13.2279 6.30865 13.0345 6.26663C10.8249 6.02293 8.60807 6.20541 6.39484 6.15018C6.13785 6.14418 5.87846 6.16819 5.62267 6.13578C5.45094 6.11417 5.22277 6.15618 5.18555 5.88606C5.3873 5.57273 5.64669 5.31221 5.91929 5.0625H5.92049Z" fill="white"/>
<path d="M39.7456 5.34823C39.9029 5.08171 40.1659 5.16334 40.3941 5.16214C43.4599 5.15854 46.5258 5.15974 49.5917 5.15854C49.8114 5.15854 50.0396 5.20176 50.2402 5.0625C50.4791 5.2786 50.7217 5.49109 50.891 5.77081C50.9006 6.05774 50.6833 6.09015 50.4803 6.12617C50.2774 6.16219 50.0708 6.14898 49.8667 6.14898C47.7135 6.15138 45.5603 6.14538 43.4071 6.15138C43.2534 6.15138 43.0997 6.13698 42.9508 6.1874C42.7454 6.22942 42.5449 6.1946 42.3527 6.12257C41.667 5.86806 40.9585 5.70118 40.2392 5.57633C40.059 5.54511 39.8657 5.5199 39.7468 5.34823H39.7456Z" fill="white"/>
<path d="M5.18634 5.88477C5.34005 6.05044 5.5418 5.98201 5.72193 5.98201C7.79827 5.98681 9.8758 5.98441 11.9521 5.98561C12.358 5.98561 12.7579 6.03363 13.1326 6.20651C12.6775 6.70713 12.1287 7.02887 11.4394 7.0817C9.42066 7.06729 7.40197 7.0841 5.38449 7.07209C5.06985 7.06969 4.7204 7.13692 4.49463 6.81158L5.18514 5.88477H5.18634Z" fill="white"/>
<path d="M51.5134 46.2095C51.3441 46.512 51.1411 46.7894 50.895 47.0355C50.7713 47.1075 50.6368 47.1147 50.4975 47.1123C48.1545 47.0703 45.8104 47.1087 43.4663 47.0907C43.2009 47.0883 42.9091 47.1411 42.7061 46.889C42.6629 46.757 42.7085 46.6393 42.8166 46.5769C43.2837 46.3056 43.7209 45.961 44.2973 45.9442C46.4048 45.9382 48.5124 45.9382 50.6188 45.9442C50.9358 45.9442 51.2828 45.8938 51.5122 46.2083L51.5134 46.2095Z" fill="white"/>
<path d="M51.5095 6.59678C51.7857 6.8621 51.9755 7.18504 52.128 7.53079C51.8986 7.84533 51.554 7.79011 51.2369 7.79371C49.3767 7.81532 47.5166 7.7685 45.6576 7.82132C45.1004 7.79371 44.7665 7.39393 44.3991 7.05538C44.3198 6.98215 44.3258 6.8717 44.3799 6.77326C44.5023 6.59918 44.6885 6.55716 44.8794 6.55596C47.0218 6.53915 49.1642 6.52595 51.3066 6.56196C51.3738 6.56196 51.4399 6.59078 51.5083 6.59558L51.5095 6.59678Z" fill="white"/>
<path d="M54.479 37.1347C54.5102 37.6881 54.4334 38.2344 54.3793 38.7818C54.2328 38.9307 54.0419 38.9403 53.8533 38.9415C52.5168 38.9487 51.1802 38.9619 49.8436 38.9343C49.5025 38.9271 49.1423 38.8935 49.0066 38.4793C48.9477 38.2248 48.9657 37.9667 48.9657 37.7097C48.9657 31.078 48.9645 24.4475 48.9657 17.8157C48.9657 17.5084 48.9261 17.1963 49.0462 16.8985C49.0774 16.8337 49.1291 16.7977 49.1999 16.7881C49.4209 16.9502 49.3752 17.1903 49.3824 17.4136C49.3896 17.6909 49.3921 17.9694 49.3824 18.2467C49.3896 18.4892 49.3909 18.7317 49.3824 18.9755C49.3909 19.218 49.3909 19.4605 49.3824 19.7042C49.3921 19.9791 49.3909 20.2528 49.3824 20.5277C49.3921 20.8351 49.3921 21.1412 49.3824 21.4473C49.3909 21.7247 49.3921 22.0008 49.3824 22.2769C49.3921 22.5855 49.3921 22.8928 49.3824 23.2013C49.3921 23.4798 49.3921 23.7584 49.3824 24.0357C49.3933 24.3778 49.3933 24.72 49.3824 25.0621C49.3933 25.4055 49.3933 25.7501 49.3824 26.0934C49.3933 26.4992 49.3957 26.9062 49.3824 27.3119C49.3896 27.5905 49.3933 27.869 49.3824 28.1475C49.3909 28.4236 49.3921 28.6998 49.3824 28.9771C49.3909 29.2532 49.3921 29.5281 49.3824 29.8042C49.3909 30.0804 49.3921 30.3565 49.3824 30.6326C49.3921 30.9099 49.3909 31.1873 49.3824 31.4646C49.3945 31.8067 49.3933 32.1477 49.3824 32.4898C49.3933 32.8644 49.3945 33.2378 49.3824 33.6123C49.3909 33.9221 49.3933 34.233 49.3824 34.5427C49.3909 34.8213 49.3921 35.0998 49.3824 35.3783C49.3933 35.688 49.3921 35.9978 49.3824 36.3075C49.3933 36.6149 49.3933 36.921 49.3824 37.2271C49.3524 37.6353 49.5217 37.8142 49.9505 37.8082C51.1874 37.7926 52.4243 37.795 53.66 37.8082C54.0347 37.8118 54.2472 37.6797 54.2833 37.2992C54.3205 37.2127 54.3625 37.1323 54.4754 37.1359L54.479 37.1347Z" fill="white"/>
<path d="M49.2529 27.3347C49.2529 26.9217 49.2529 26.5088 49.2529 26.097C49.4307 25.9205 49.6624 25.9349 49.8834 25.9337C51.2056 25.9277 52.5289 25.9277 53.8511 25.9337C54.0721 25.9337 54.3027 25.9205 54.4804 26.097C54.4804 26.51 54.4804 26.9217 54.4804 27.3347C54.3027 27.5112 54.0721 27.4968 53.8511 27.498C52.5289 27.504 51.2056 27.504 49.8834 27.498C49.6624 27.498 49.4319 27.5112 49.2529 27.3347Z" fill="white"/>
<path d="M51.5135 46.2094C51.2337 46.123 50.949 46.1001 50.656 46.1013C48.6878 46.1073 46.7207 46.1073 44.7525 46.1013C44.5579 46.1013 44.3358 46.1842 44.1772 45.9861C44.594 45.5431 44.971 45.0353 45.682 45.0725C47.38 45.1733 49.0781 45.0905 50.7749 45.1169C51.0319 45.1205 51.2901 45.1073 51.5459 45.1301C51.7524 45.1493 51.9614 45.1721 52.0611 45.399C51.9266 45.7016 51.7608 45.9825 51.5135 46.2094Z" fill="white"/>
<path d="M49.2541 33.6255C49.2541 33.2474 49.2541 32.8692 49.2541 32.4898C49.4319 32.3133 49.6636 32.3289 49.8834 32.3277C51.2056 32.3217 52.5277 32.3217 53.8499 32.3277C54.0709 32.3277 54.3015 32.3145 54.4792 32.491C54.4792 32.8692 54.4792 33.2474 54.4792 33.6255C54.3015 33.802 54.0709 33.7876 53.8499 33.7888C52.5277 33.7948 51.2056 33.7948 49.8822 33.7888C49.6612 33.7888 49.4307 33.8032 49.2529 33.6255H49.2541Z" fill="white"/>
<path d="M4.49594 6.81175C4.72291 6.88978 4.95468 6.91739 5.19726 6.91739C7.14389 6.91139 9.09053 6.91139 11.0372 6.91739C11.2293 6.91739 11.4563 6.83576 11.5968 7.06146C11.3422 7.57408 10.9039 7.8334 10.3647 7.95585C8.49489 7.8406 6.62511 7.93424 4.75533 7.89943C4.47072 7.89463 4.16569 7.96306 3.92432 7.73135C4.07323 7.39881 4.25576 7.08787 4.49594 6.81055V6.81175Z" fill="white"/>
<path d="M51.5091 6.59674C51.3434 6.78402 51.1224 6.70238 50.9267 6.70358C48.9524 6.70959 46.9794 6.70599 45.0051 6.70959C44.7757 6.70959 44.5079 6.63275 44.3806 6.93289C43.7658 6.82964 43.2278 6.58233 42.8135 6.09972C43.0308 5.96526 43.2734 5.98447 43.5136 5.98567C45.7617 5.98567 48.0097 5.98807 50.2578 5.98327C50.4871 5.98327 50.7537 6.0625 50.8894 5.77197C51.1356 6.01688 51.3374 6.2954 51.5079 6.59794L51.5091 6.59674Z" fill="white"/>
<path d="M3.92428 7.73242C5.61513 7.73482 7.30478 7.73602 8.99562 7.73962C9.52281 7.73962 10.0524 7.70481 10.57 7.85007C10.4007 8.33869 10.0992 8.67724 9.55524 8.74207C7.77913 8.70965 6.00422 8.73847 4.22811 8.72406C3.96151 8.72166 3.6757 8.77808 3.44873 8.56439C3.55081 8.25465 3.70932 7.97733 3.92428 7.73242Z" fill="white"/>
<path d="M54.4802 32.491C52.7377 32.491 50.9952 32.491 49.2539 32.491C49.2539 32.1477 49.2539 31.8031 49.2539 31.4598C49.4316 31.2833 49.6622 31.2977 49.8832 31.2965C51.2053 31.2905 52.5275 31.2905 53.8509 31.2965C54.0719 31.2965 54.3024 31.2833 54.4802 31.4598C54.4802 31.8031 54.4802 32.1477 54.4802 32.491Z" fill="white"/>
<path d="M49.2529 25.0657C49.2529 24.7212 49.2529 24.3778 49.2529 24.0333C49.4319 23.858 49.6612 23.8712 49.8834 23.87C51.2068 23.864 52.5289 23.864 53.8523 23.87C54.0733 23.87 54.3039 23.8568 54.4828 24.0333V25.0645C54.3051 25.241 54.0745 25.2266 53.8535 25.2278C52.5313 25.2338 51.208 25.2338 49.8858 25.2278C49.6648 25.2278 49.4343 25.241 49.2553 25.0645L49.2529 25.0657Z" fill="white"/>
<path d="M49.2529 25.0657C50.9954 25.0657 52.7379 25.0657 54.4804 25.0657C54.4804 25.409 54.4804 25.7536 54.4804 26.0969C52.7379 26.0969 50.9954 26.0969 49.2529 26.0969C49.2529 25.7536 49.2529 25.4102 49.2529 25.0669V25.0657Z" fill="white"/>
<path d="M52.9624 43.7363C52.8627 44.0664 52.709 44.3702 52.5169 44.6559C52.404 44.6955 52.2875 44.7207 52.1662 44.7207C50.3913 44.7159 48.6176 44.7267 46.8427 44.7135C46.6205 44.7123 46.3948 44.6979 46.2398 44.4986C46.223 44.0388 46.5737 43.6175 47.0829 43.4878C47.7289 43.6271 48.3846 43.5622 49.0355 43.5682C50.1007 43.5778 51.1659 43.567 52.2311 43.5742C52.4832 43.5754 52.7534 43.5298 52.9624 43.7363Z" fill="white"/>
<path d="M53.9119 41.1626C53.8699 41.5276 53.7726 41.8746 53.5925 42.1963C53.464 42.2527 53.3283 42.2587 53.189 42.2563C51.6987 42.2311 50.2072 42.2539 48.7169 42.2431C48.4635 42.2407 48.1969 42.2755 47.9832 42.0834C47.8943 41.5936 48.03 41.3127 48.4899 41.0342C50.158 40.9369 51.8284 40.9994 53.4976 41.0006C53.6513 41.0006 53.8051 41.0318 53.9131 41.1626H53.9119Z" fill="white"/>
<path d="M53.6706 10.8335C53.8207 11.0748 53.8771 11.3425 53.8988 11.621C53.9156 11.9128 53.673 11.9032 53.5097 11.9044C51.8392 11.9152 50.1688 11.9932 48.4996 11.8671C48.1417 11.6618 47.9664 11.3677 48.054 10.9463C48.2114 10.6846 48.4756 10.6762 48.7313 10.6738C50.1844 10.663 51.6375 10.6666 53.0918 10.6714C53.2983 10.6714 53.5037 10.6846 53.6706 10.8335Z" fill="white"/>
<path d="M2.28241 11.6125C2.28241 11.3664 2.35207 11.1395 2.46255 10.9222C2.6703 10.7782 2.90928 10.771 3.14945 10.771C4.5641 10.7698 5.97994 10.7674 7.39459 10.7722C7.63116 10.7722 7.87614 10.7554 8.07789 10.9222C8.25802 11.346 8.00704 11.6185 7.74044 11.8875C7.56151 12.0051 7.35616 12.0231 7.15081 12.0243C5.71935 12.0327 4.28789 12.0411 2.85644 12.0171C2.61386 12.0135 2.21036 12.1144 2.28241 11.6125Z" fill="white"/>
<path d="M52.5505 8.22814C52.7414 8.48506 52.8711 8.77078 52.9636 9.07572C52.7366 9.34584 52.4172 9.33743 52.1134 9.33863C50.4369 9.34704 48.7617 9.34944 47.0853 9.34103C46.5316 9.17896 46.1954 8.73477 46.3299 8.34579C46.4764 8.24375 46.6445 8.20773 46.8163 8.20773C48.7281 8.20173 50.6399 8.15971 52.5505 8.22934V8.22814Z" fill="white"/>
<path d="M46.9663 9.28722C47.1164 9.11675 47.317 9.18638 47.4971 9.18518C48.8121 9.17917 50.127 9.18157 51.4408 9.18277C51.9512 9.18277 52.4628 9.20559 52.9635 9.07593C53.1629 9.35805 53.3058 9.66539 53.367 10.0063C53.1389 10.22 52.8519 10.1636 52.5841 10.1672C50.9725 10.1936 49.3597 10.124 47.7481 10.2104C47.2629 10.094 47.0276 9.76383 46.9663 9.28722Z" fill="white"/>
<path d="M54.2726 39.5046C54.2486 39.8215 54.2294 40.1397 54.0925 40.4362C53.8931 40.6055 53.6493 40.5971 53.4116 40.5971C52.099 40.6007 50.7864 40.6019 49.4739 40.5971C49.2037 40.5959 48.9214 40.6151 48.7053 40.3966C48.5276 40.004 48.5864 39.6679 48.9479 39.4061C49.4354 39.2837 49.9314 39.3485 50.4238 39.3437C51.4637 39.3341 52.5037 39.3365 53.5437 39.3437C53.7946 39.3449 54.0612 39.3065 54.2714 39.507L54.2726 39.5046Z" fill="white"/>
<path d="M7.15087 13.7362C7.09563 13.4229 6.84465 13.5189 6.65971 13.5189C5.06854 13.5129 3.47616 13.5153 1.88499 13.5153C1.85737 13.2296 1.93783 12.9607 2.00027 12.6881C2.13597 12.4264 2.38936 12.4312 2.62593 12.43C3.99494 12.4204 5.36515 12.4192 6.73537 12.43C7.03198 12.4324 7.3286 12.4588 7.45229 12.8034C7.47271 13.1527 7.54716 13.5213 7.15087 13.7374V13.7362Z" fill="white"/>
<path d="M54.1739 12.687C54.2363 12.9596 54.318 13.2297 54.2891 13.5142C54.0802 13.7183 53.8124 13.6715 53.5614 13.6727C52.3665 13.6799 51.1716 13.6775 49.9768 13.6751C49.6681 13.6751 49.3631 13.6907 49.0593 13.7483C48.633 13.5562 48.7026 13.1805 48.7146 12.8239C48.7915 12.5502 49.004 12.4457 49.2562 12.4397C50.7381 12.4061 52.2212 12.4133 53.7043 12.4361C53.8964 12.4385 54.0778 12.489 54.1739 12.6858V12.687Z" fill="white"/>
<path d="M52.9621 43.7364C51.1992 43.7364 49.4351 43.734 47.6722 43.7328C47.4152 43.7328 47.1534 43.7568 46.9648 43.5239C46.9672 43.0845 47.235 42.8768 47.6217 42.7711C49.3702 42.7111 51.1187 42.7507 52.8684 42.7495C53.0389 42.7495 53.2143 42.7639 53.3428 42.9056C53.2695 43.2069 53.1482 43.4854 52.9621 43.7352V43.7364Z" fill="white"/>
<path d="M2.81006 10.0029C2.84729 9.73515 2.94456 9.49384 3.11268 9.28255C3.29882 9.12768 3.52338 9.12407 3.74795 9.12287C5.25867 9.11927 6.76938 9.11807 8.28009 9.12408C8.55149 9.12528 8.83851 9.10727 9.03065 9.36778C9.14713 9.84559 8.86012 10.0905 8.49625 10.2922C6.82942 10.2526 5.1638 10.2874 3.49697 10.2658C3.24958 10.2622 2.93135 10.3654 2.81006 10.0017V10.0029Z" fill="white"/>
<path d="M46.2436 44.3474C46.3661 44.6151 46.6099 44.5563 46.826 44.5563C48.5241 44.5587 50.2221 44.5575 51.9202 44.5575C52.1243 44.5575 52.3345 44.5323 52.5182 44.6547C52.3657 44.9033 52.2132 45.1506 52.0607 45.3991C51.8433 45.2658 51.6019 45.2778 51.3618 45.2778C49.5917 45.279 47.8216 45.2826 46.0514 45.2742C45.8533 45.2742 45.5771 45.3907 45.5146 45.0461C45.6239 44.674 45.8401 44.411 46.2448 44.3474H46.2436Z" fill="white"/>
<path d="M49.2539 33.6255H54.4802V34.5535C54.3024 34.73 54.0719 34.7156 53.8509 34.7168C52.5287 34.7228 51.2065 34.7228 49.8832 34.7168C49.6622 34.7168 49.4316 34.7312 49.2539 34.5535V33.6255Z" fill="white"/>
<path d="M49.2515 21.4571C49.2515 21.1474 49.2515 20.8388 49.2515 20.5291C49.4304 20.3538 49.6598 20.3658 49.8819 20.3646C51.2053 20.3586 52.5287 20.3586 53.8521 20.3646C54.073 20.3646 54.3036 20.3514 54.4825 20.5279C54.4825 20.8376 54.4825 21.1462 54.4825 21.4559C54.3048 21.6324 54.0742 21.618 53.8521 21.6192C52.5287 21.6252 51.2065 21.6252 49.8831 21.6192C49.6622 21.6192 49.4316 21.6312 49.2527 21.4571H49.2515Z" fill="white"/>
<path d="M49.2541 36.3077C49.2541 35.998 49.2541 35.6882 49.2541 35.3785C49.4319 35.202 49.6636 35.2176 49.8834 35.2164C51.2056 35.2104 52.5277 35.2104 53.8499 35.2164C54.0709 35.2164 54.3015 35.2032 54.4792 35.3797C54.4792 35.6894 54.4792 35.998 54.4792 36.3077C54.3015 36.4842 54.0709 36.4698 53.8499 36.471C52.5277 36.477 51.2056 36.477 49.8822 36.471C49.6612 36.471 49.4307 36.4854 49.2529 36.3077H49.2541Z" fill="white"/>
<path d="M49.2515 23.2098C49.2515 22.9 49.2515 22.5903 49.2515 22.2806C49.4304 22.1053 49.661 22.1185 49.8819 22.1173C51.2053 22.1113 52.5275 22.1113 53.8509 22.1173C54.0718 22.1173 54.3024 22.1041 54.4813 22.2806C54.4813 22.5903 54.4813 22.8988 54.4813 23.2086C54.3036 23.3851 54.073 23.3706 53.8521 23.3718C52.5287 23.3779 51.2065 23.3779 49.8831 23.3718C49.6622 23.3718 49.4316 23.3851 49.2527 23.2086L49.2515 23.2098Z" fill="white"/>
<path d="M49.2541 36.3074H54.4803C54.4803 36.5835 54.4803 36.8584 54.4791 37.1345C54.4503 37.1682 54.4227 37.2018 54.3939 37.2354C54.2138 37.3987 53.988 37.3987 53.7658 37.3999C52.4689 37.4047 51.1719 37.4059 49.8761 37.3999C49.6564 37.3999 49.4282 37.4095 49.2505 37.2354C49.2505 36.9268 49.2529 36.6171 49.2541 36.3086V36.3074Z" fill="white"/>
<path d="M52.5503 8.22827C52.3978 8.43476 52.1744 8.35313 51.9799 8.35313C50.3383 8.35913 48.6979 8.36033 47.0563 8.35313C46.7801 8.35313 46.5135 8.37834 46.2505 8.45757C45.8182 8.41315 45.614 8.12502 45.4951 7.74686C45.6969 7.62921 45.9178 7.63281 46.1412 7.63281C47.8513 7.63521 49.5613 7.63041 51.2714 7.63761C51.5644 7.63761 51.849 7.6184 52.1288 7.53076C52.3438 7.71804 52.4026 8.00017 52.5503 8.22827Z" fill="white"/>
<path d="M47.567 10.1168C47.848 10.0328 48.1314 10.0027 48.4268 10.0039C50.0733 10.0111 51.7209 10.0063 53.3673 10.0063C53.5138 10.2645 53.6195 10.5394 53.6711 10.8323C52.0067 10.8323 50.3411 10.8323 48.6766 10.8323C48.4593 10.8323 48.2167 10.7771 48.0978 11.0472C47.7219 10.8491 47.555 10.5334 47.567 10.1144V10.1168Z" fill="white"/>
<path d="M53.3427 42.9067C51.3745 42.9019 49.4062 42.8971 47.438 42.8923C47.444 42.4769 47.6097 42.1575 47.9952 41.9727C48.1429 42.1479 48.3459 42.0783 48.5248 42.0795C49.9983 42.0843 51.4718 42.0831 52.9441 42.0819C53.1674 42.0819 53.3908 42.0723 53.5901 42.1972C53.5541 42.4505 53.4556 42.6822 53.3415 42.9079L53.3427 42.9067Z" fill="white"/>
<path d="M2.80919 10.0027C2.9581 10.1768 3.15985 10.1071 3.33879 10.1071C4.82788 10.1119 6.31698 10.1131 7.80608 10.1071C8.06547 10.1071 8.31646 10.1251 8.56024 10.2128C8.56744 10.5885 8.42694 10.8803 8.07628 11.0483C7.91296 10.8575 7.692 10.9403 7.49745 10.9391C5.81862 10.9283 4.13978 10.9259 2.46094 10.9223C2.5462 10.6042 2.64107 10.2896 2.80799 10.0027H2.80919Z" fill="white"/>
<path d="M42.7366 46.7352C42.8147 47.0426 43.0669 46.9237 43.247 46.9249C45.5095 46.9321 47.7719 46.9321 50.0344 46.9273C50.3286 46.9273 50.6132 46.9477 50.893 47.0366C50.8042 47.2119 50.6661 47.3415 50.5148 47.4604C47.7167 47.4556 44.9186 47.4508 42.1206 47.4496C41.8948 47.4496 41.6726 47.4448 41.4661 47.3499C41.2631 47.2575 41.4997 47.2179 41.4973 47.1482C41.848 46.8265 42.2383 46.62 42.7354 46.7364L42.7366 46.7352Z" fill="white"/>
<path d="M54.1745 12.6871C54.022 12.5899 53.8527 12.5851 53.6797 12.5851C52.2387 12.5875 50.7964 12.5863 49.3554 12.5851C49.1128 12.5851 48.8522 12.5563 48.8198 12.9056C48.4703 12.5995 48.3034 12.2285 48.4235 11.7591C50.0615 11.7591 51.6983 11.7615 53.3363 11.7555C53.5296 11.7555 53.7542 11.8347 53.8995 11.6187C54.0424 11.9608 54.1373 12.315 54.1745 12.6847V12.6871Z" fill="white"/>
<path d="M49.2064 16.8157L49.1872 16.8181C49.0347 16.7605 48.9963 16.6213 48.9939 16.4904C48.9806 15.7677 48.8894 15.0426 49.0527 14.3234C49.186 14.0941 49.4166 14.0809 49.6387 14.0785C51.0474 14.0629 52.4548 14.0665 53.8634 14.0761C54.0532 14.0761 54.2429 14.0965 54.3918 14.2382C54.4495 14.6812 54.5071 15.1242 54.4771 15.5732C54.1649 15.2214 53.7566 15.207 53.3254 15.2142C52.2326 15.2298 51.1386 15.2142 50.0458 15.2214C49.449 15.225 49.437 15.243 49.3877 15.8601C49.3877 16.105 49.407 16.3511 49.3625 16.5936C49.3397 16.6885 49.3037 16.7725 49.2088 16.8181L49.2064 16.8157Z" fill="white"/>
<path d="M9.01804 9.52722C8.89915 9.22829 8.63736 9.28711 8.40439 9.28711C6.64028 9.28351 4.87618 9.28351 3.11328 9.28231C3.17573 9.01939 3.30782 8.78889 3.45073 8.56439C5.32892 8.56439 7.2071 8.56439 9.08529 8.56439C9.30745 8.56439 9.53082 8.54639 9.73136 8.67004C9.63769 9.07582 9.41193 9.37115 9.01804 9.52842V9.52722Z" fill="white"/>
<path d="M49.2515 23.2097C50.994 23.2097 52.7376 23.2097 54.4801 23.2097V24.0345C52.7376 24.0345 50.994 24.0345 49.2515 24.0345C49.2515 23.7596 49.2515 23.4846 49.2515 23.2097Z" fill="white"/>
<path d="M49.2539 30.6351C49.2539 30.3602 49.2539 30.0841 49.2539 29.8091C49.4316 29.6327 49.6622 29.6471 49.8832 29.6459C51.2053 29.6399 52.5275 29.6399 53.8509 29.6459C54.0719 29.6459 54.3024 29.6327 54.4802 29.8091V30.6339C54.3024 30.8104 54.0719 30.796 53.8509 30.7972C52.5287 30.8032 51.2065 30.8032 49.8832 30.7972C49.6622 30.7972 49.4316 30.8116 49.2539 30.6339V30.6351Z" fill="white"/>
<path d="M49.2529 27.335H54.4804V28.1597C54.3027 28.3362 54.0721 28.3218 53.8511 28.323C52.5289 28.329 51.2056 28.329 49.8834 28.323C49.6624 28.323 49.4319 28.3362 49.2529 28.1597C49.2529 27.8848 49.2529 27.6099 49.2529 27.335Z" fill="white"/>
<path d="M49.2539 30.635H54.4802C54.4802 30.9099 54.4802 31.1849 54.4802 31.4598C52.7377 31.4598 50.9952 31.4598 49.2539 31.4598C49.2539 31.1849 49.2539 30.9099 49.2539 30.635Z" fill="white"/>
<path d="M49.2476 18.2611C49.2476 17.9861 49.2476 17.71 49.2476 17.4351C49.4265 17.2622 49.6559 17.2706 49.878 17.2706C51.2014 17.2646 52.526 17.2646 53.8494 17.2706C54.0703 17.2706 54.3021 17.2574 54.4798 17.4339C54.4798 17.7088 54.4798 17.9837 54.4798 18.2587C54.3021 18.4351 54.0703 18.4207 53.8494 18.4219C52.526 18.4279 51.2026 18.4279 49.8792 18.4219C49.6571 18.4219 49.4277 18.4327 49.2476 18.2611Z" fill="white"/>
<path d="M49.2529 28.1597H54.4804C54.4804 28.4346 54.4804 28.7095 54.4804 28.9844C54.3027 29.1609 54.0721 29.1465 53.8511 29.1477C52.5289 29.1537 51.2056 29.1537 49.8834 29.1477C49.6624 29.1477 49.4319 29.1609 49.2541 28.9844V28.1597H49.2529Z" fill="white"/>
<path d="M49.2539 28.9844H54.4814C54.4814 29.2593 54.4814 29.5342 54.4814 29.8091C52.7389 29.8091 50.9964 29.8091 49.2539 29.8091C49.2539 29.5342 49.2539 29.2593 49.2539 28.9844Z" fill="white"/>
<path d="M54.4803 20.5277C52.7367 20.5277 50.993 20.5277 49.2505 20.5289C49.2505 20.254 49.2505 19.9791 49.2505 19.7041C49.4294 19.5301 49.6588 19.5409 49.881 19.5397C51.2043 19.5337 52.5277 19.5337 53.8511 19.5397C54.072 19.5397 54.3026 19.5265 54.4815 19.7029V20.5277H54.4803Z" fill="white"/>
<path d="M54.4801 17.4339C52.7352 17.4339 50.9915 17.4339 49.2466 17.4351C49.2334 17.2287 49.219 17.0222 49.2046 16.8157C49.2202 16.7472 49.2358 16.6776 49.2526 16.6092C49.4304 16.4315 49.6609 16.4471 49.8819 16.4459C51.2041 16.4399 52.5274 16.4399 53.8496 16.4459C54.0706 16.4459 54.3012 16.4327 54.4789 16.6092C54.4789 16.8841 54.4789 17.159 54.4789 17.4339H54.4801Z" fill="white"/>
<path d="M54.4801 22.2804C52.7376 22.2804 50.994 22.2804 49.2515 22.2804C49.2515 22.0054 49.2515 21.7305 49.2515 21.4568C50.9952 21.4568 52.7376 21.4568 54.4813 21.4568C54.4813 21.7317 54.4813 22.0066 54.4813 22.2816L54.4801 22.2804Z" fill="white"/>
<path d="M54.4802 35.3797C52.7377 35.3797 50.9952 35.3797 49.2539 35.3797C49.2539 35.1048 49.2539 34.8299 49.2539 34.5549C50.9964 34.5549 52.7389 34.5549 54.4802 34.5549C54.4802 34.8299 54.4802 35.1048 54.4802 35.3797Z" fill="white"/>
<path d="M49.2545 15.8875C49.2485 15.7855 49.2509 15.681 49.2365 15.5802C49.1813 15.1864 49.323 15.0436 49.7433 15.052C51.0799 15.0784 52.4177 15.0844 53.753 15.0496C54.1818 15.0388 54.4171 15.1432 54.476 15.5718C54.4784 15.6426 54.4796 15.7135 54.482 15.7843C54.3223 16.0028 54.0869 16.0424 53.8419 16.0448C52.4885 16.0568 51.1351 16.0544 49.7817 16.046C49.5932 16.046 49.4022 16.0376 49.2557 15.8875H49.2545Z" fill="white"/>
<path d="M7.35622 12.9067C7.337 12.6714 7.1977 12.5862 6.97553 12.5862C5.41438 12.5886 3.85323 12.5862 2.29088 12.5934C2.19481 12.5934 2.09754 12.6546 2.00146 12.687C2.04109 12.3149 2.13236 11.9559 2.28247 11.6125C2.30289 11.8443 2.4614 11.8659 2.64754 11.8659C4.23631 11.8635 5.82509 11.8659 7.41386 11.8599C7.52674 11.8599 7.63963 11.7962 7.75251 11.7614C7.8726 12.2308 7.70567 12.6006 7.35622 12.9079V12.9067Z" fill="white"/>
<path d="M48.6907 40.321C48.8924 40.4351 49.1122 40.4339 49.3356 40.4339C50.9207 40.4327 52.5071 40.4339 54.0923 40.4351C54.0887 40.692 54.0142 40.9309 53.9109 41.1626C52.07 41.1578 50.229 41.153 48.3881 41.1482C48.2716 40.7929 48.3412 40.5059 48.6895 40.321H48.6907Z" fill="white"/>
<path d="M54.2729 39.5044H48.9229C48.7644 39.1095 48.7812 38.7469 49.1199 38.4456C49.264 38.8189 49.5966 38.7781 49.8933 38.7805C51.3884 38.7877 52.8847 38.7841 54.3798 38.7829C54.3437 39.023 54.3089 39.2643 54.2729 39.5044Z" fill="white"/>
<path d="M54.3903 14.237C52.8232 14.237 51.2548 14.2346 49.6876 14.2406C49.4943 14.2406 49.2709 14.1602 49.1208 14.3691C48.8254 14.1986 48.8722 13.9753 49.0247 13.7364C49.08 13.4219 49.331 13.5191 49.5159 13.5179C51.1071 13.5119 52.6995 13.5143 54.2906 13.5143C54.3951 13.7448 54.4131 13.9873 54.3915 14.2358L54.3903 14.237Z" fill="white"/>
<path d="M49.2539 15.8876C50.7442 15.8876 52.2345 15.884 53.7248 15.8901C53.9854 15.8901 54.2352 15.8624 54.4802 15.7832V16.608C52.7377 16.608 50.9952 16.608 49.2539 16.608C49.2539 16.3679 49.2539 16.1266 49.2539 15.8864V15.8876Z" fill="white"/>
<path d="M49.2476 18.2612C50.9912 18.2612 52.7361 18.26 54.4798 18.2588C54.4798 18.4989 54.4798 18.7402 54.4798 18.9803C54.3021 19.1568 54.0703 19.1424 53.8494 19.1436C52.526 19.1496 51.2026 19.1496 49.8792 19.1436C49.6571 19.1436 49.4277 19.1544 49.2476 18.9815C49.2476 18.7414 49.2476 18.5001 49.2476 18.26V18.2612Z" fill="white"/>
<path d="M49.249 18.9827H54.4801C54.4801 19.2216 54.4801 19.4629 54.4801 19.703C52.7364 19.703 50.9927 19.703 49.249 19.7042C49.249 19.4641 49.249 19.2228 49.249 18.9827Z" fill="white"/>
<path d="M13.954 46.9442C13.5673 47.0751 13.1698 47.1375 12.7615 47.1375C10.2985 47.1375 7.83549 47.1399 5.37367 47.1423C5.11068 46.9094 4.91733 46.6237 4.74561 46.32C4.96777 46.0967 5.25598 46.1519 5.52378 46.1507C7.34192 46.1447 9.15886 46.1471 10.977 46.1483C11.3036 46.1483 11.6291 46.1435 11.9473 46.0618C12.1767 45.9814 12.3904 46.0426 12.5886 46.1543C13.0473 46.4124 13.5661 46.5673 13.9552 46.9442H13.954Z" fill="white"/>
<path d="M12.0979 46.1098C11.9046 46.3343 11.6428 46.3115 11.3846 46.3115C9.17135 46.3139 6.95812 46.3163 4.74608 46.3199C4.4963 46.081 4.30296 45.8037 4.16846 45.4855C4.39542 45.2718 4.68244 45.3283 4.95023 45.3271C6.57623 45.3211 8.20343 45.3235 9.82943 45.3247C10.1549 45.3247 10.4803 45.3235 10.7985 45.249C11.3942 45.2886 11.8169 45.5924 12.0979 46.1098Z" fill="white"/>
<path d="M3.7343 44.7678C3.48812 44.4605 3.33801 44.1051 3.21191 43.7366C3.42087 43.5301 3.68987 43.5757 3.94205 43.5745C5.33028 43.5685 6.7185 43.5709 8.10673 43.5721C8.43337 43.5721 8.75761 43.5577 9.07704 43.4893C9.57061 43.5961 10.0366 44.1147 10.0798 44.6058C9.94768 44.8098 9.73393 44.8146 9.53098 44.8158C7.68161 44.8339 5.83105 44.8146 3.98168 44.8278C3.89522 44.8278 3.81236 44.8026 3.7343 44.7654V44.7678Z" fill="white"/>
<path d="M3.73438 44.7679C3.93612 44.6418 4.16069 44.661 4.38285 44.661C6.09652 44.661 7.81018 44.6646 9.52385 44.6562C9.70278 44.6562 9.95737 44.7763 10.0318 44.4653C10.5278 44.5374 10.75 44.9143 10.9625 45.3021C10.7572 45.5026 10.4978 45.4882 10.2396 45.4882C8.21608 45.4858 6.19139 45.487 4.16789 45.487C3.99377 45.2649 3.83165 45.0368 3.73558 44.7691L3.73438 44.7679Z" fill="white"/>
<path d="M2.30999 41.3632C2.21392 41.0942 2.11665 40.8253 2.09863 40.536C2.30879 40.3319 2.57659 40.3799 2.82637 40.3787C3.88555 40.3715 4.94473 40.3715 6.00391 40.3787C6.46626 40.3811 6.92499 40.3655 7.38013 40.2803C7.82686 40.4904 7.99979 40.9226 7.84848 41.452C7.69957 41.5925 7.51103 41.6189 7.32129 41.6213C5.8442 41.6357 4.36591 41.6333 2.88882 41.6225C2.66305 41.6213 2.43728 41.5973 2.30879 41.3656L2.30999 41.3632Z" fill="white"/>
<path d="M7.47014 40.297C7.24918 40.5311 6.95856 40.5359 6.66795 40.5359C5.14522 40.5359 3.6225 40.5359 2.09978 40.5359C1.95207 40.2094 1.93646 39.8564 1.90283 39.5083C2.02893 39.4362 2.16703 39.4446 2.30393 39.4446C3.93353 39.4506 5.56193 39.4446 7.19153 39.4446C7.59263 39.6271 7.61064 39.9357 7.47014 40.2958V40.297Z" fill="white"/>
<path d="M9.20656 43.555C8.9976 43.7447 8.74182 43.7351 8.48363 43.7351C6.72673 43.7339 4.96863 43.7351 3.21174 43.7375C3.0256 43.4878 2.90551 43.2093 2.83105 42.908C2.95955 42.7663 3.13488 42.7519 3.3054 42.7519C5.0551 42.7543 6.80479 42.7087 8.55448 42.7735C8.96878 42.8695 9.19095 43.1265 9.20656 43.555Z" fill="white"/>
<path d="M2.30979 41.3629C2.46231 41.4602 2.63163 41.465 2.80456 41.465C4.31407 41.4626 5.82479 41.4626 7.3343 41.465C7.52644 41.465 7.71018 41.4506 7.8807 41.3557C8.2782 41.5754 8.4115 41.8948 8.24938 42.3269C8.05123 42.4602 7.82546 42.4494 7.6045 42.4506C6.16704 42.4554 4.73078 42.4542 3.29332 42.4506C3.05554 42.4506 2.80936 42.4662 2.61242 42.2873C2.4563 41.9968 2.34582 41.6907 2.30859 41.3617L2.30979 41.3629Z" fill="white"/>
<path d="M7.2506 39.4972C7.15333 39.6305 7.00922 39.6065 6.87472 39.6065C5.36521 39.6065 3.85569 39.6065 2.34618 39.6089C2.18766 39.6089 2.03875 39.5921 1.90305 39.508C1.85862 39.2679 1.81299 39.0266 1.76855 38.7865C3.41977 38.7853 5.07219 38.7805 6.72341 38.7865C6.9756 38.7865 7.05486 38.6665 7.05606 38.4456C7.39351 38.7457 7.41032 39.1059 7.2518 39.4984L7.2506 39.4972Z" fill="white"/>
<path d="M2.61426 42.2885C4.31351 42.2885 6.01156 42.2909 7.71082 42.2849C7.90536 42.2849 8.12873 42.3677 8.28604 42.166C8.6403 42.2825 8.72557 42.5634 8.73637 42.8923C6.76812 42.8971 4.79987 42.9019 2.83162 42.9067C2.75956 42.7002 2.68631 42.495 2.61426 42.2885Z" fill="white"/>
<path d="M16.4338 47.4641C22.2953 47.4701 28.1557 47.4797 34.0172 47.4821C35.9242 47.4821 37.8324 47.4701 39.7394 47.4641C39.5761 47.6094 39.3779 47.5469 39.1954 47.5469C31.7896 47.5505 24.3825 47.5505 16.9766 47.5469C16.7941 47.5469 16.5959 47.6094 16.4326 47.4641H16.4338Z" fill="white"/>
<path d="M49.2502 37.2344C50.9651 37.2344 52.6788 37.2344 54.3936 37.2344C54.3936 37.7154 54.1574 37.9559 53.6851 37.9559C52.4374 37.9559 51.1909 37.9559 49.9431 37.9559C49.4612 37.9559 49.2302 37.715 49.2502 37.2332V37.2344Z" fill="white"/>
<path d="M18.0528 35.598C17.7754 35.3555 17.5124 35.101 17.3442 34.766C17.5208 34.4431 17.8378 34.4983 18.1188 34.4971C20.4978 34.4899 22.8779 34.4875 25.2569 34.4971C25.4622 34.4971 25.6688 34.5223 25.8561 34.4082C26.1155 34.3122 26.3629 34.4118 26.6115 34.4611C27.7391 34.6856 28.8571 34.6496 29.9704 34.3674C30.2009 34.3086 30.4315 34.2234 30.6765 34.3026C30.8626 34.4239 31.0716 34.3914 31.2757 34.3914C33.4865 34.3914 35.6974 34.3878 37.9082 34.3938C38.2613 34.3938 38.6383 34.3458 38.9158 34.6544C38.7152 35.0229 38.4378 35.3267 38.122 35.5968C37.835 35.6724 37.5431 35.6484 37.2513 35.6484C31.056 35.6484 24.8606 35.6424 18.6652 35.6532C18.4575 35.6532 18.2545 35.6424 18.0528 35.5968V35.598Z" fill="white"/>
<path d="M18.0522 35.598C18.2528 35.4743 18.4762 35.4803 18.7007 35.4803C24.9585 35.4815 31.2152 35.4815 37.473 35.4803C37.6975 35.4803 37.9209 35.4731 38.1215 35.598C37.9005 35.9257 37.6291 36.2018 37.3001 36.4203C37.0311 36.5524 36.7452 36.58 36.4498 36.58C30.8753 36.5776 25.2996 36.5776 19.7251 36.58C19.4297 36.58 19.1439 36.5524 18.8749 36.4203C18.5446 36.2018 18.2732 35.9245 18.0534 35.5968L18.0522 35.598Z" fill="white"/>
<path d="M38.2206 17.3211C38.5088 17.5528 38.7406 17.8313 38.9172 18.1555C38.6854 18.4712 38.3383 18.416 38.0213 18.4172C35.7732 18.4268 33.524 18.4172 31.2759 18.4232C31.0886 18.4232 30.8964 18.3896 30.7283 18.5072C30.1819 18.6201 29.6859 18.356 29.166 18.2803C28.144 18.1327 27.1485 18.2167 26.1565 18.4556C25.8911 18.5192 25.6269 18.6105 25.3459 18.5444C24.9821 18.4244 24.605 18.4196 24.2279 18.4196C22.1384 18.4196 20.0488 18.422 17.9605 18.4172C17.6927 18.4172 17.4057 18.47 17.1787 18.2563C17.3889 17.9034 17.6338 17.578 17.9569 17.3187C18.101 17.2515 18.2523 17.2443 18.4096 17.2455C24.6398 17.2851 30.8712 17.2515 37.1014 17.2671C37.4749 17.2671 37.8556 17.1662 38.223 17.3187L38.2206 17.3211Z" fill="white"/>
<path d="M36.5869 15.7689C36.9567 15.9754 37.2305 16.2911 37.5212 16.5876C37.3146 16.8926 36.9892 16.8697 36.6853 16.8733C35.6898 16.8866 34.6943 16.8781 33.6987 16.8781C29.0309 16.8781 24.3618 16.8805 19.694 16.8745C19.3277 16.8745 18.9242 16.9526 18.6528 16.5876C18.9434 16.2911 19.2184 15.9754 19.5871 15.7689C19.8705 15.6476 20.1647 15.7184 20.4542 15.7172C25.6624 15.71 30.8706 15.7376 36.0789 15.7016C36.253 15.7004 36.4223 15.704 36.5857 15.7689H36.5869Z" fill="white"/>
<path d="M18.875 36.4216C25.0175 36.4216 31.1589 36.4216 37.3014 36.4216C36.9784 36.7962 36.6061 37.1107 36.1738 37.352C35.8916 37.4733 35.5961 37.4025 35.3067 37.4037C30.3747 37.4109 25.4414 37.3833 20.5094 37.4193C20.3353 37.4205 20.166 37.4181 20.0026 37.352C19.5703 37.1095 19.198 36.7962 18.875 36.4216Z" fill="white"/>
<path d="M18.6532 16.5889C18.9487 16.6897 19.2501 16.7161 19.5623 16.7149C25.2449 16.7101 30.9287 16.7101 36.6113 16.7149C36.9235 16.7149 37.2261 16.6885 37.5204 16.5889C37.817 16.7725 38.0175 17.0475 38.2193 17.3224C37.9395 17.41 37.6549 17.4376 37.3594 17.4376C31.1773 17.4328 24.9951 17.4328 18.813 17.4376C18.5175 17.4376 18.2329 17.41 17.9531 17.3224C18.1549 17.0487 18.3554 16.7725 18.652 16.5889H18.6532Z" fill="white"/>
<path d="M36.5871 15.7688C36.2905 15.8636 35.9891 15.8901 35.6769 15.8901C30.6175 15.8853 25.557 15.8853 20.4977 15.8901C20.1854 15.8901 19.884 15.8648 19.5874 15.77C19.9429 15.4567 20.2971 15.1433 20.7367 14.9488C21.0369 14.8396 21.3479 14.8948 21.6541 14.8948C26.0458 14.89 30.4374 14.9044 34.829 14.8876C35.0332 14.8876 35.241 14.8636 35.4379 14.9488C35.8774 15.1433 36.2317 15.4567 36.5871 15.77V15.7688Z" fill="white"/>
<path d="M35.4376 14.949C35.1578 15.0366 34.8732 15.0654 34.5777 15.0654C30.2509 15.0606 25.9242 15.0606 21.5962 15.0654C21.3007 15.0654 21.0161 15.0366 20.7363 14.949C21.2503 14.56 21.8063 14.2478 22.4152 14.0317C23.7313 14.0906 25.0487 14.0726 26.3661 14.0726C28.3692 14.0738 30.3722 14.0654 32.3753 14.0786C32.8377 14.081 33.2952 13.9753 33.7575 14.0317C34.3664 14.2478 34.9224 14.56 35.4364 14.949H35.4376Z" fill="white"/>
<path d="M20.0017 37.352C20.2971 37.256 20.5997 37.2308 20.9108 37.232C25.6951 37.2368 30.4782 37.2368 35.2626 37.232C35.5736 37.232 35.8762 37.2572 36.1716 37.352C35.8666 37.663 35.5039 37.8863 35.1088 38.0627C34.9479 38.136 34.7774 38.1444 34.6057 38.1432C30.2597 38.1108 25.9124 38.1108 21.5664 38.1432C21.3935 38.1444 21.223 38.1372 21.0633 38.0627C20.6694 37.8851 20.3055 37.6618 20.0005 37.352H20.0017Z" fill="white"/>
<path d="M21.0649 38.0627C21.5693 37.9367 22.0833 37.9559 22.5973 37.9559C26.2576 37.9571 29.9179 37.9571 33.5782 37.9559C34.0922 37.9559 34.6061 37.9367 35.1105 38.0627C34.5473 38.4877 33.912 38.7686 33.2551 39.0075C30.7369 38.8707 28.2162 38.9739 25.6968 38.9475C24.7721 38.9379 23.845 38.9091 22.9215 39.0075C22.2646 38.7674 21.6282 38.4865 21.0649 38.0615V38.0627Z" fill="white"/>
<path d="M22.9214 39.0086C23.1339 38.7949 23.4053 38.7817 23.6827 38.7817C26.6201 38.7817 29.5575 38.7817 32.4949 38.7817C32.7711 38.7817 33.0437 38.7961 33.2562 39.0086C29.8121 40.4157 26.3667 40.4157 22.9226 39.0086H22.9214Z" fill="white"/>
<path d="M38.9166 34.6556C38.2405 34.4912 37.5523 34.5584 36.869 34.556C34.9104 34.5488 32.9518 34.556 30.9931 34.544C30.8922 34.544 30.6004 34.7301 30.6677 34.3651C30.7349 34.2102 30.8802 34.1466 31.0207 34.0926C31.5467 33.8897 32.0355 33.616 32.517 33.3278C32.6912 33.2234 32.8701 33.1106 33.0899 33.209C35.0269 33.3182 36.9639 33.2258 38.8997 33.2606C39.1832 33.2654 39.4882 33.1958 39.7332 33.4203C39.5686 33.9029 39.2468 34.2835 38.9166 34.6568V34.6556Z" fill="white"/>
<path d="M33.7594 14.0318C33.4459 14.183 33.1193 14.2418 32.7674 14.2406C29.6475 14.2334 26.5276 14.2334 23.4089 14.2406C23.0571 14.2406 22.7304 14.183 22.417 14.0318C23.0547 13.68 23.726 13.4231 24.4441 13.2922C26.8735 13.219 29.3029 13.219 31.7335 13.2922C32.4516 13.4231 33.1229 13.68 33.7606 14.0318H33.7594Z" fill="white"/>
<path d="M39.7318 33.419C37.6591 33.419 35.5852 33.419 33.5124 33.419C33.2963 33.419 33.0525 33.4766 32.9336 33.2065C33.3467 32.7046 33.7202 32.1524 34.4491 32.0684C35.7833 32.1896 37.1187 32.096 38.4529 32.1236C38.8984 32.1332 39.3427 32.1188 39.7882 32.1284C39.9912 32.1332 40.2038 32.12 40.3647 32.2857C40.2338 32.7082 40.0272 33.0888 39.733 33.4202L39.7318 33.419Z" fill="white"/>
<path d="M15.178 22.0705C15.298 21.6023 15.4422 21.1437 15.71 20.7344C15.8108 20.6551 15.9297 20.6503 16.051 20.6539C17.6938 20.6983 19.3378 20.6587 20.9806 20.6767C21.246 20.6803 21.5391 20.6263 21.736 20.888C21.6447 21.5231 21.3001 21.9769 20.7357 22.2746C19.1433 22.1942 17.5497 22.2602 15.9573 22.235C15.6895 22.2302 15.4025 22.2878 15.1768 22.0705H15.178Z" fill="white"/>
<path d="M17.176 18.2588C19.6294 18.2588 22.084 18.2588 24.5374 18.2576C24.8461 18.2576 25.1547 18.248 25.4069 18.4725C25.4153 18.5458 25.3913 18.613 25.3252 18.6406C24.8148 18.8615 24.3213 19.1172 23.8157 19.3477C23.7232 19.3897 23.6164 19.3741 23.5155 19.3489C21.5112 19.3465 19.5081 19.3537 17.5038 19.3453C17.1856 19.3441 16.841 19.3909 16.6128 19.0752C16.7305 18.7546 16.9526 18.5061 17.176 18.2576V18.2588Z" fill="white"/>
<path d="M16.2307 33.1082C15.9869 32.8008 15.8356 32.4455 15.7095 32.0781C15.9232 31.7792 16.2487 31.8212 16.5489 31.8188C17.9299 31.8092 19.3109 31.8152 20.6932 31.8152C20.9838 31.8152 21.2732 31.8116 21.559 31.7624C21.6599 31.7239 21.7643 31.7167 21.8472 31.7948C22.169 32.1009 22.4909 32.4082 22.7743 32.7516C22.8559 32.85 22.886 32.9641 22.7827 33.0745C22.5569 33.2738 22.2771 33.2678 22.0033 33.269C20.3077 33.275 18.612 33.2726 16.9164 33.2714C16.6738 33.2714 16.436 33.2582 16.2307 33.1058V33.1082Z" fill="white"/>
<path d="M15.1779 22.0703C16.7871 22.0715 18.3975 22.0763 20.0067 22.0703C20.2997 22.0703 20.5855 22.0871 20.8653 22.1759C20.8713 22.6789 20.6203 23.0511 20.2601 23.3692C20.0859 23.4557 19.8986 23.4701 19.7101 23.4701C18.293 23.4785 16.8748 23.4833 15.4577 23.4653C15.2332 23.4629 14.9233 23.5445 14.8633 23.1712C14.9125 22.7882 14.9798 22.41 15.1767 22.0679L15.1779 22.0703Z" fill="white"/>
<path d="M21.6863 31.7947C21.5974 32.0937 21.3477 31.9676 21.1699 31.9688C19.6352 31.9784 18.1005 31.9784 16.5657 31.9712C16.2739 31.97 15.9893 31.9892 15.7107 32.0769C15.4513 31.7023 15.3324 31.2713 15.2075 30.8415C15.3684 30.7251 15.5558 30.6926 15.7455 30.6914C17.4448 30.6842 19.144 30.6446 20.8421 30.7107C21.3116 30.9244 21.6179 31.2665 21.6875 31.7935L21.6863 31.7947Z" fill="white"/>
<path d="M25.9204 34.4744C25.8292 34.7709 25.5806 34.6509 25.3993 34.6521C22.947 34.6605 20.4948 34.6569 18.0438 34.6569C17.8049 34.6569 17.5623 34.6305 17.3437 34.7661C17.1023 34.5176 16.8862 34.2511 16.7349 33.9353C16.9642 33.6208 17.3101 33.6736 17.6271 33.6712C19.6962 33.6604 21.7654 33.6736 23.8333 33.6628C24.1215 33.5884 24.3641 33.7216 24.6031 33.8465C25.0342 34.0722 25.5326 34.1574 25.9204 34.4732V34.4744Z" fill="white"/>
<path d="M14.8644 23.1738C14.9617 23.3383 15.125 23.3119 15.2763 23.3119C16.8182 23.3119 18.3602 23.3119 19.9021 23.3143C20.0606 23.3143 20.2071 23.2879 20.3452 23.2086C20.4089 23.7741 20.3056 24.2795 19.8349 24.6577C18.9654 24.7801 18.09 24.6973 17.2181 24.7129C16.5156 24.7249 15.8131 24.7321 15.1118 24.7045C14.7335 24.6901 14.5161 24.5412 14.671 24.1186C14.6566 23.7873 14.7191 23.4715 14.8656 23.1726L14.8644 23.1738Z" fill="white"/>
<path d="M30.6667 18.4473C30.7508 18.1459 31.0006 18.2636 31.1807 18.2636C33.49 18.2564 35.7993 18.2564 38.1098 18.2624C38.386 18.2624 38.6526 18.2348 38.9168 18.1567C39.1714 18.4353 39.42 18.7186 39.5617 19.0763C39.3383 19.2984 39.0501 19.2432 38.7823 19.2444C36.8261 19.254 34.871 19.2396 32.9148 19.254C32.7959 19.254 32.6746 19.2324 32.5593 19.2828C32.4452 19.3441 32.3264 19.3453 32.2147 19.2864C31.7583 19.0487 31.2924 18.8338 30.8156 18.643C30.7352 18.6105 30.6823 18.5373 30.6655 18.4473H30.6667Z" fill="white"/>
<path d="M14.6698 24.1199C14.6218 24.5052 14.8343 24.5593 15.161 24.5557C16.7485 24.5425 18.3373 24.5497 19.9261 24.5497C20.0954 25.0083 20.0714 25.4273 19.6787 25.773C19.3797 25.8823 19.0687 25.8474 18.7624 25.8486C17.5808 25.8522 16.3979 25.8534 15.2162 25.8486C14.9628 25.8474 14.6962 25.8835 14.4849 25.6854C14.4428 25.1511 14.5281 24.6325 14.6698 24.1199Z" fill="white"/>
<path d="M41.4954 24.0346C41.6071 24.2879 41.6155 24.5557 41.6131 24.8258C41.7308 25.1391 41.5746 25.2724 41.2888 25.312C41.0006 25.3516 40.71 25.3348 40.4206 25.336C39.3134 25.3372 38.2062 25.3384 37.0977 25.336C36.86 25.336 36.6186 25.3504 36.3928 25.2484C36.0818 24.8666 35.8872 24.4644 36.1659 23.9758C36.352 23.8678 36.5597 23.8714 36.7639 23.8714C38.1137 23.8678 39.4647 23.8678 40.8145 23.8714C41.0523 23.8714 41.2972 23.8569 41.4942 24.0358L41.4954 24.0346Z" fill="white"/>
<path d="M36.3564 25.169C37.9488 25.169 39.5411 25.1678 41.1323 25.1702C41.3833 25.1702 41.6331 25.1918 41.6127 24.8257C41.7712 25.3095 41.6979 25.8089 41.7063 26.3035C41.5562 26.4392 41.3701 26.4632 41.1791 26.4644C39.7609 26.4728 38.3426 26.474 36.9244 26.4644C36.7707 26.4644 36.617 26.4464 36.4777 26.3684C36.2375 25.9902 36.1258 25.5976 36.354 25.169H36.3564Z" fill="white"/>
<path d="M21.6863 21.0176C21.5974 20.7186 21.3476 20.8447 21.1687 20.8435C19.634 20.8339 18.0992 20.8339 16.5645 20.8411C16.2727 20.8423 15.9881 20.8231 15.7095 20.7354C15.8019 20.4389 15.928 20.158 16.1142 19.9083C16.2991 19.751 16.5237 19.7486 16.7482 19.7486C18.4463 19.745 20.1443 19.7438 21.8424 19.7498C22.0658 19.7498 22.2891 19.7582 22.4933 19.8687C22.5761 19.9251 22.6914 20.0031 22.6326 20.1004C22.3996 20.4869 22.1726 20.8879 21.6875 21.0188L21.6863 21.0176Z" fill="white"/>
<path d="M20.9862 30.8354C19.3278 30.8366 17.6693 30.839 16.0109 30.8402C15.7419 30.8402 15.4729 30.8414 15.2051 30.8426C15.0286 30.5209 14.9493 30.1703 14.8965 29.8114C15.2507 29.6445 15.6314 29.6553 16.0085 29.6529C17.4171 29.6445 18.8258 29.6601 20.2332 29.6421C20.8241 29.8234 20.8577 30.3588 20.9862 30.8342V30.8354Z" fill="white"/>
<path d="M32.4209 19.2611C32.517 18.9694 32.7644 19.0906 32.9445 19.0894C35.1505 19.0786 37.3553 19.0798 39.5614 19.0762C39.7679 19.3295 39.942 19.602 40.0609 19.907C39.7691 20.0931 39.4377 20.0642 39.117 20.0654C37.3085 20.075 35.5 20.0582 33.6914 20.0762C33.0946 20.0762 32.7403 19.6945 32.4209 19.2599V19.2611Z" fill="white"/>
<path d="M38.9139 14.3485C38.6906 14.0844 38.6245 13.7663 38.5957 13.4349C38.6197 13.1312 38.8719 13.1576 39.0568 13.1552C40.8257 13.1312 42.5959 13.1276 44.3648 13.1564C44.6398 13.1612 44.9892 13.1732 44.9076 13.6294C44.8799 13.9283 44.7923 14.2021 44.5905 14.4326C42.9021 14.3545 41.2124 14.4146 39.524 14.3978C39.3198 14.3954 39.1145 14.4122 38.9151 14.3485H38.9139Z" fill="white"/>
<path d="M40.3652 32.2847C38.5374 32.2847 36.7085 32.2847 34.8807 32.2835C34.6502 32.2835 34.386 32.3483 34.2671 32.0482C34.3824 31.6316 34.5445 31.2582 35.0513 31.2006C36.6893 31.1922 38.3261 31.1958 39.9629 31.2006C40.2511 31.2006 40.5525 31.1826 40.7519 31.4611C40.6702 31.7576 40.5525 32.0386 40.3652 32.2871V32.2847Z" fill="white"/>
<path d="M36.4553 26.3035C38.2062 26.3035 39.9558 26.3035 41.7067 26.3035C41.6995 26.6468 41.6923 26.9914 41.6863 27.3347C41.5254 27.5004 41.3128 27.4956 41.1087 27.4968C39.7529 27.504 38.3971 27.5052 37.0401 27.4968C36.8035 27.4956 36.5513 27.5076 36.382 27.2843C36.2667 26.947 36.2043 26.6132 36.4553 26.3035Z" fill="white"/>
<path d="M44.908 13.6307C44.8888 13.3966 44.7507 13.3078 44.5273 13.309C42.6383 13.3114 40.7493 13.3102 38.8615 13.3102C38.7534 13.3102 38.6586 13.339 38.5961 13.4362C38.494 13.2285 38.5036 13.01 38.5253 12.7891C38.5517 12.3245 38.8927 12.3233 39.2254 12.3221C40.6808 12.3149 42.1363 12.3209 43.5918 12.3197C43.8656 12.3197 44.1394 12.3149 44.4132 12.3233C44.6174 12.3293 44.8287 12.3233 44.9896 12.4854C45.0389 12.8732 45.0737 13.2597 44.908 13.6331V13.6307Z" fill="white"/>
<path d="M40.7735 21.4558C40.8912 21.6395 40.9705 21.8364 40.9909 22.0549C41.0906 22.2722 40.9441 22.367 40.7891 22.4523C40.6991 22.5015 40.5958 22.5267 40.4937 22.5279C38.8389 22.5423 37.1841 22.5988 35.5305 22.4991C35.0237 22.2014 34.8423 21.8628 34.9672 21.4534C35.2086 21.283 35.4872 21.295 35.761 21.2938C37.1853 21.289 38.6095 21.2914 40.035 21.2914C40.2944 21.2914 40.5514 21.2962 40.7759 21.4546L40.7735 21.4558Z" fill="white"/>
<path d="M23.9613 33.7347C23.8052 33.8956 23.6047 33.8284 23.4233 33.8296C21.4815 33.8344 19.5397 33.8356 17.5978 33.8296C17.3036 33.8296 17.0166 33.8488 16.7368 33.9364C16.5254 33.6867 16.3621 33.407 16.2324 33.1081C18.2067 33.1081 20.1797 33.1081 22.154 33.1117C22.399 33.1117 22.6355 33.1069 22.8277 32.928C23.3621 32.9784 23.6947 33.3097 23.9625 33.7347H23.9613Z" fill="white"/>
<path d="M44.9895 12.483C43.0201 12.483 41.0518 12.489 39.0824 12.4758C38.8134 12.4746 38.6236 12.5274 38.5239 12.7867C38.5095 12.3473 38.5996 11.9331 38.811 11.5466C39.0788 11.4577 39.355 11.4938 39.6276 11.4926C41.0842 11.4902 42.5409 11.4914 43.9964 11.4926C44.2702 11.4926 44.5476 11.4805 44.7854 11.657C44.9055 11.9187 45.0171 12.1829 44.9871 12.4818L44.9895 12.483Z" fill="white"/>
<path d="M22.6649 20.033C22.3706 19.9322 22.0704 19.9045 21.7594 19.9057C19.8776 19.9117 17.9958 19.9081 16.1152 19.9069C16.2329 19.6008 16.407 19.3295 16.6136 19.0762C16.909 19.171 17.2116 19.1902 17.5215 19.1902C19.3852 19.1842 21.249 19.1854 23.1128 19.1902C23.2941 19.1902 23.4923 19.1278 23.652 19.2779C23.4094 19.6428 23.1572 19.9934 22.6661 20.033H22.6649Z" fill="white"/>
<path d="M40.7731 21.4558C39.0846 21.4558 37.3962 21.4594 35.709 21.4522C35.4339 21.4522 35.1674 21.4762 34.9056 21.5566C34.4204 21.3537 34.2162 21.0176 34.3171 20.5842C34.5009 20.4665 34.7086 20.4689 34.9128 20.4689C36.5195 20.4641 38.1275 20.4641 39.7343 20.4689C40.0057 20.4689 40.2927 20.4521 40.4657 20.7331C40.6566 20.9359 40.689 21.2061 40.7743 21.4546L40.7731 21.4558Z" fill="white"/>
<path d="M41.5864 28.2628C41.5503 28.5054 41.5143 28.7467 41.4783 28.9892C41.3582 29.2329 41.1276 29.2425 40.9055 29.2437C39.5221 29.2557 38.1374 29.2605 36.754 29.2413C36.4586 29.2365 36.1668 29.1885 36.0347 28.8595C36.0023 28.4994 35.953 28.1332 36.3577 27.9231C37.573 28.084 38.7955 27.9627 40.0144 27.9987C40.3411 28.0083 40.6677 27.9939 40.9943 28.0071C41.2237 28.0167 41.4387 28.0612 41.5864 28.2628Z" fill="white"/>
<path d="M14.4887 27.3372C14.4815 27.0611 14.4743 26.785 14.4683 26.5088C14.6352 26.3588 14.8429 26.3468 15.0495 26.3456C16.4245 26.3396 17.8007 26.3396 19.1757 26.3456C19.3643 26.3456 19.5552 26.3528 19.7221 26.4632C19.9275 26.7021 19.8975 26.9782 19.847 27.258C19.7618 27.5485 19.518 27.5881 19.2742 27.5917C17.8524 27.6109 16.4317 27.6097 15.0099 27.5917C14.8021 27.5893 14.5944 27.5593 14.4875 27.336L14.4887 27.3372Z" fill="white"/>
<path d="M40.4657 20.7341C40.3132 20.6441 40.1463 20.6285 39.971 20.6285C38.2237 20.6309 36.4776 20.6285 34.7303 20.6321C34.5658 20.6321 34.3796 20.5805 34.2656 20.7642C33.8945 20.6621 33.6711 20.4076 33.5366 20.0607C33.6003 19.9358 33.7132 19.9094 33.8392 19.9094C35.9132 19.9094 37.9871 19.9082 40.061 19.907C40.2472 20.1567 40.3733 20.4376 40.4657 20.7329V20.7341Z" fill="white"/>
<path d="M44.7876 11.6584C42.9719 11.6584 41.1573 11.6608 39.3416 11.656C39.1627 11.656 38.9597 11.7244 38.812 11.5491C38.9153 11.2334 39.0786 10.9548 39.3236 10.7267C39.8796 10.6007 40.4428 10.6835 41.0024 10.6739C41.8358 10.6583 42.6705 10.6715 43.5051 10.6691C43.7801 10.6691 44.0503 10.6823 44.2941 10.83C44.5739 11.0377 44.6555 11.363 44.7876 11.6584Z" fill="white"/>
<path d="M35.4285 22.3839C37.0653 22.3839 38.7009 22.3863 40.3377 22.3827C40.6043 22.3827 40.9057 22.4259 40.991 22.0549C41.1843 22.3791 41.2492 22.7392 41.2936 23.1066C41.1555 23.2879 40.9525 23.3455 40.746 23.3491C39.15 23.3731 37.554 23.4187 35.9581 23.3287C35.5798 23.1282 35.372 22.8305 35.4273 22.3851L35.4285 22.3839Z" fill="white"/>
<path d="M41.2779 29.8089C41.2455 30.0598 41.2023 30.3071 41.0786 30.5328C40.9345 30.7789 40.6895 30.7909 40.4481 30.7921C38.9734 30.8005 37.4999 30.8005 36.0252 30.7921C35.8199 30.7909 35.6121 30.7777 35.4428 30.6325C35.2951 30.1679 35.4332 29.8665 35.8968 29.6456C37.4651 29.6456 39.0335 29.6432 40.6006 29.648C40.836 29.648 41.0834 29.624 41.2779 29.8089Z" fill="white"/>
<path d="M35.8307 23.2085C37.1961 23.2085 38.5615 23.2061 39.9257 23.2097C40.3844 23.2097 40.8444 23.2193 41.2935 23.1052C41.4292 23.3994 41.5121 23.7055 41.4953 24.0332L36.1249 24.0356C35.7718 23.8508 35.719 23.5578 35.8295 23.2085H35.8307Z" fill="white"/>
<path d="M14.696 28.9879C14.6599 28.7466 14.6239 28.5041 14.5879 28.2628C14.8004 28.0671 15.0658 28.1055 15.318 28.1043C16.5309 28.0983 17.7438 28.1007 18.9567 28.1031C19.2497 28.1031 19.5367 28.0875 19.8033 27.9495C20.2537 28.1187 20.1492 28.5029 20.1492 28.8463C20.0531 29.174 19.7865 29.24 19.5007 29.2424C18.0741 29.2592 16.6474 29.2592 15.2196 29.2424C15.0118 29.24 14.8016 29.2136 14.6948 28.9891L14.696 28.9879Z" fill="white"/>
<path d="M44.2947 10.8288C42.82 10.83 41.3453 10.83 39.8706 10.8336C39.6797 10.8336 39.4935 10.8264 39.3242 10.7255C40.6452 9.16725 43.1202 9.21887 44.2947 10.8288Z" fill="white"/>
<path d="M41.5866 28.2629C41.3404 28.1849 41.0906 28.1549 40.8288 28.1561C39.4898 28.1633 38.1508 28.1621 36.8131 28.1561C36.6221 28.1561 36.3771 28.2329 36.3279 27.9232C36.1802 27.6567 36.1009 27.3997 36.4312 27.2017C36.5837 27.4094 36.8083 27.3289 37.0028 27.3289C38.564 27.3349 40.1251 27.3325 41.6863 27.3325C41.7295 27.6507 41.6634 27.9556 41.5866 28.2605V28.2629Z" fill="white"/>
<path d="M19.8477 27.9242C19.8609 28.2903 19.6087 28.2639 19.3601 28.2639C17.7701 28.2615 16.1789 28.2627 14.589 28.2627C14.5121 27.959 14.4461 27.654 14.4893 27.3371C14.6406 27.4379 14.8111 27.4391 14.9841 27.4379C16.4083 27.4355 17.8338 27.4379 19.258 27.4343C19.449 27.4343 19.6939 27.5124 19.7444 27.2026C20.0746 27.4007 19.9954 27.6576 19.8477 27.9242Z" fill="white"/>
<path d="M19.7197 26.5088C17.9688 26.5088 16.2192 26.5088 14.4683 26.5088C14.4743 26.2339 14.4791 25.959 14.4851 25.6841C16.2372 25.6841 17.9893 25.6841 19.7414 25.6841C19.9263 25.9638 19.9407 26.2399 19.7197 26.5088Z" fill="white"/>
<path d="M35.3756 30.5198C35.5318 30.593 35.6903 30.6374 35.868 30.6374C37.458 30.6338 39.0467 30.6338 40.6367 30.6374C40.7952 30.6374 40.9417 30.6122 41.0786 30.5342C40.9694 30.8427 40.8601 31.1513 40.7508 31.461C40.5058 31.3758 40.256 31.3541 39.9966 31.3553C38.4739 31.3613 36.9524 31.3601 35.4297 31.3553C35.2495 31.3553 35.049 31.4226 34.8965 31.2569C34.9205 30.9232 35.0262 30.6422 35.3756 30.521V30.5198Z" fill="white"/>
<path d="M14.6963 28.9879C14.8476 29.09 15.0181 29.0888 15.1911 29.0888C16.6321 29.0864 18.0732 29.0876 19.5142 29.0888C19.7592 29.0888 20.015 29.1104 20.0474 28.7634C20.4029 28.9771 20.4629 29.2953 20.3693 29.6686C20.2228 29.8859 19.997 29.8055 19.8037 29.8067C18.4659 29.8127 17.1293 29.8247 15.7915 29.7983C15.4925 29.7923 15.1959 30.0216 14.898 29.8127C14.802 29.545 14.7059 29.2773 14.6975 28.9879H14.6963Z" fill="white"/>
<path d="M41.278 29.8091C39.6412 29.8091 38.0056 29.8115 36.3688 29.8055C36.1754 29.8055 35.9509 29.8835 35.8067 29.6674C35.7131 29.294 35.7719 28.9759 36.1286 28.7622C36.1694 29.0239 36.3724 29.0815 36.5825 29.0815C38.1185 29.0876 39.6556 29.0863 41.1915 29.0803C41.2876 29.0803 41.3837 29.0191 41.4797 28.9879C41.4713 29.276 41.3765 29.5426 41.2792 29.8091H41.278Z" fill="white"/>
<path d="M38.9146 14.3487C39.0442 14.183 39.228 14.2383 39.3925 14.2383C40.9729 14.2347 42.5532 14.2335 44.1336 14.2395C44.3017 14.2395 44.5335 14.1458 44.5911 14.4327C44.5035 14.7293 44.2993 14.9394 44.07 15.1303C42.8895 15.1146 41.7102 15.1231 40.5297 15.111C40.1599 15.1074 39.7816 15.2707 39.4189 15.0666C39.186 14.8721 38.9998 14.6464 38.9146 14.3475V14.3487Z" fill="white"/>
<path d="M39.4189 15.0677C40.7207 14.8552 42.0321 15.0029 43.3386 14.9573C43.6004 14.9477 43.8418 15.0101 44.07 15.1314C42.7886 16.4699 40.6547 16.4411 39.4189 15.0677Z" fill="white"/>
<path d="M31.7322 13.2921C31.5329 13.4134 31.3119 13.4122 31.0874 13.4122C29.0879 13.4098 27.0872 13.4098 25.0877 13.4122C24.8632 13.4122 24.6434 13.4146 24.4429 13.2921C26.8723 12.5706 29.3017 12.5706 31.7322 13.2921Z" fill="white"/>
</svg>
