<svg width="293" height="583" viewBox="0 0 293 583" fill="none" xmlns="http://www.w3.org/2000/svg">
<g clip-path="url(#clip0_496_279)">
<path d="M449.736 402.53C433.942 424.547 414.373 442.459 390.895 456.129C387.591 458.048 384.234 459.867 380.815 461.572C380.48 461.74 379.922 462.422 379.664 461.601C379.458 460.959 378.413 460.198 379.822 459.503C388.97 454.979 397.654 449.684 405.887 443.686C415.025 437.024 423.508 429.631 431.275 421.418C435.123 417.348 438.783 413.127 442.27 408.747C445.232 405.028 447.91 401.115 450.677 397.267C451.162 396.586 451.142 396.236 450.401 395.779C446.99 393.668 443.6 391.529 440.226 389.356C439.598 388.953 439.363 389.245 439.083 389.701C437.655 392.071 435.926 394.236 434.278 396.449C427.247 405.921 419.233 414.48 410.401 422.288C408.557 423.92 406.649 425.48 404.754 427.058C404.418 427.341 404.005 427.895 403.631 427.098C403.373 426.543 402.275 426.133 403.33 425.292C406.721 422.595 409.975 419.738 413.125 416.763C414.269 415.685 414.254 415.719 413.13 414.653C410.75 412.392 408.368 410.121 406.05 407.799C405.432 407.181 405.069 407.224 404.499 407.773C399.678 412.415 394.505 416.647 389.09 420.574C380.712 426.636 371.814 431.867 362.392 436.196C353.033 440.489 343.34 443.864 333.303 446.313C331.955 446.644 330.575 446.882 329.241 447.258C328.332 447.514 328.165 447.094 328.014 446.349C327.866 445.625 327.836 445.214 328.765 445.018C336.177 443.486 343.402 441.334 350.484 438.692C363.053 433.996 374.813 427.794 385.798 420.148C386.485 419.674 386.689 419.35 386.127 418.579C384.329 416.104 382.591 413.584 380.867 411.057C380.46 410.457 380.179 410.373 379.555 410.821C369.712 417.795 359.174 423.504 347.878 427.833C347.469 427.993 346.85 428.685 346.544 427.679C346.322 426.946 345.657 426.181 347.079 425.707C350.036 424.727 352.838 423.361 355.687 422.118C356.378 421.814 356.56 421.546 356.181 420.807C354.375 417.274 352.603 413.731 350.874 410.165C350.521 409.427 350.178 409.493 349.576 409.772C342.591 413.022 335.363 415.605 327.896 417.567C323.167 418.807 318.379 419.776 313.528 420.469C313.137 420.527 312.419 420.944 312.471 420.053C312.505 419.413 311.689 418.444 313.219 418.233C322.913 416.884 332.301 414.389 341.385 410.837C356.784 404.813 370.493 396.162 382.476 384.848C383.781 383.62 385.023 382.329 386.316 381.092C386.713 380.711 386.678 380.483 386.288 380.099C383.835 377.689 381.4 375.265 378.974 372.83C378.539 372.396 378.262 372.482 377.865 372.889C369.098 381.902 359.086 389.277 347.886 395.046C339.49 399.37 330.684 402.634 321.462 404.832C309.525 407.67 297.418 408.644 285.134 407.751C283.799 407.649 283.311 406.86 283.837 405.669C284.046 405.199 284.427 405.47 284.711 405.486C289.834 405.871 294.958 405.929 300.079 405.675C306 405.38 311.841 404.543 317.649 403.425C318.3 403.305 318.555 403.097 318.362 402.386C317.644 399.654 316.94 396.916 316.303 394.171C316.115 393.365 315.663 393.61 315.211 393.703C310.267 394.729 305.266 395.342 300.214 395.601C282.616 396.504 265.765 393.287 249.682 385.868C244.04 383.265 238.682 380.175 233.567 376.63C221.202 368.056 211.117 357.364 203.235 344.597C203.039 344.28 202.534 343.894 202.927 343.519C203.346 343.119 203.899 342.796 204.452 342.624C204.777 342.519 204.899 343.066 205.062 343.341C208.252 348.531 211.849 353.427 215.889 358.002C220.362 363.053 225.206 367.696 230.623 371.748C231.289 372.249 231.934 372.779 232.568 373.31C233.043 373.701 233.378 373.684 233.759 373.15C235.695 370.443 237.645 367.754 239.625 365.087C240.114 364.426 240.044 364.058 239.366 363.549C231.705 357.776 224.917 351.129 219.28 343.357C211.757 332.994 206.565 321.612 203.752 309.182C201.984 301.352 201.235 293.451 201.605 285.464C201.65 284.47 201.386 284.185 200.393 284.132C196.742 283.946 193.094 283.667 189.447 283.413C187.702 283.294 187.57 283.014 187.837 281.329C188.162 279.261 188.288 277.158 188.575 275.08C189.716 266.615 191.917 258.437 195.094 250.537C195.66 249.127 195.657 249.143 194.258 248.527C191.633 247.365 189 246.215 186.398 245.009C185.548 244.616 185.097 244.595 184.697 245.61C182.083 252.265 179.985 259.076 178.571 266.099C176.009 278.877 175.6 291.754 177.444 304.714C177.624 306.01 176.69 305.584 176.128 305.794C175.375 306.071 175.268 305.641 175.182 305.032C173.807 295.076 173.688 285.121 174.839 275.169C176.234 263.136 179.443 251.615 184.431 240.619C186.685 235.653 189.226 230.838 192.247 226.294C192.911 225.293 192.732 224.437 191.708 223.726C189.536 222.206 187.356 220.697 185.204 219.148C184.586 218.707 184.279 218.798 183.886 219.438C181.877 222.713 179.878 225.986 178.074 229.388C174.798 235.563 172.062 241.973 169.84 248.607C166.373 258.979 164.282 269.633 163.571 280.58C163.525 281.236 163.406 281.567 162.611 281.576C159.66 281.615 156.751 281.092 153.828 280.903C152.327 280.807 150.815 280.677 149.321 280.471C148.611 280.372 148.425 280.558 148.39 281.249C148.14 286.272 148.078 291.295 148.345 296.322C148.393 297.161 147.126 297.958 146.353 297.584C146 297.412 146.119 297.055 146.102 296.777C145.734 289.148 145.917 281.549 146.734 273.968C147.318 268.564 148.143 263.2 149.388 257.913C149.62 256.946 149.395 256.645 148.406 256.471C145.325 255.913 142.254 255.265 139.193 254.59C138.343 254.399 137.961 254.508 137.758 255.46C134.896 268.935 133.77 282.566 134.48 296.364C134.609 298.879 134.793 301.389 135.029 303.892C135.096 304.629 134.958 304.973 134.205 304.897C133.628 304.84 132.886 305.302 132.764 304.101C131.836 294.349 131.769 284.608 132.584 274.876C132.763 272.749 132.995 270.623 133.281 268.509C133.398 267.664 133.222 267.345 132.322 267.199C127.963 266.483 123.616 265.687 119.269 264.918C117.63 264.626 117.608 264.619 117.877 263.033C118.365 260.118 118.842 257.194 119.391 254.295C119.538 253.497 119.306 253.244 118.551 253.095C114.959 252.386 111.376 251.638 107.797 250.859C107.061 250.697 106.764 250.787 106.599 251.598C104.707 261.129 103.555 270.744 103.144 280.462C103.093 281.603 102.181 282.129 101.138 281.617C100.66 281.382 100.89 280.945 100.9 280.616C101.114 275.179 101.567 269.77 102.245 264.373C102.822 259.76 103.582 255.18 104.514 250.635C104.569 250.382 104.605 250.116 104.602 249.857C104.578 248.328 104.958 247.997 106.487 248.317C111.149 249.275 115.808 250.249 120.463 251.228C122.123 251.579 122.264 251.936 121.873 253.542C121.189 256.379 120.775 259.277 120.311 262.157C120.199 262.856 120.592 262.871 121.064 262.95C125.008 263.645 128.948 264.319 132.885 265.061C133.746 265.224 133.791 264.796 133.887 264.183C135.121 256.103 136.98 248.167 139.448 240.382C142.141 231.89 145.519 223.683 149.607 215.777C153.528 208.205 157.975 200.953 163.085 194.129C176.158 176.676 192.087 162.389 211.026 151.456C211.967 150.915 212.893 150.345 213.867 149.871C214.52 149.558 214.524 149.251 214.207 148.663C212.289 145.148 210.386 141.626 208.522 138.088C208.178 137.436 207.908 137.438 207.325 137.766C203.956 139.639 200.604 141.55 197.389 143.674C196.273 144.41 196.155 143.405 195.706 142.953C195.079 142.321 195.65 142.073 196.095 141.789C205.019 136.106 214.394 131.276 224.228 127.312C224.558 127.176 225.001 126.704 225.325 127.182C225.66 127.668 225.91 128.262 226.005 128.833C226.052 129.132 225.505 129.194 225.2 129.322C220.402 131.274 215.723 133.452 211.092 135.761C210.249 136.178 210.162 136.514 210.624 137.338C212.445 140.598 214.225 143.891 215.921 147.212C216.414 148.182 216.798 148.323 217.752 147.827C223.987 144.536 230.48 141.801 237.123 139.422C238.231 139.025 239.046 139.517 239.239 140.681C239.337 141.299 238.783 141.196 238.504 141.298C234.73 142.67 230.992 144.129 227.324 145.754C211.145 152.912 196.581 162.449 183.686 174.502C178.72 179.146 174.08 184.076 169.757 189.329C165.141 194.93 160.958 200.83 157.163 207.016C148.732 220.77 142.644 235.503 138.762 251.178C138.547 252.06 138.798 252.274 139.565 252.431C142.786 253.07 146.012 253.714 149.219 254.423C150.032 254.604 150.244 254.331 150.417 253.623C152.92 243.572 156.567 233.955 161.134 224.684C161.263 224.414 161.445 224.171 161.58 223.905C162.273 222.568 162.256 222.591 163.495 223.42C164.067 223.801 163.967 224.092 163.708 224.607C156.138 239.531 151.302 255.314 149.232 271.97C149.013 273.751 148.897 275.552 148.677 277.333C148.604 277.952 148.719 278.194 149.396 278.251C153.116 278.565 156.839 278.89 160.552 279.279C161.566 279.391 161.44 278.762 161.487 278.193C162.036 271.492 163.107 264.887 164.699 258.371C167.043 248.746 170.434 239.513 174.901 230.684C178.161 224.241 181.851 218.052 186.171 212.275C203.39 189.239 225.816 173.458 253.478 165.032C256.023 164.253 258.626 163.656 261.204 162.971C261.691 162.841 262.251 162.646 262.227 163.461C262.206 164.056 263.054 164.855 261.688 165.174C250.053 167.89 239.022 172.125 228.617 177.911C217.823 183.916 208.125 191.328 199.492 200.128C194.694 205.015 190.337 210.253 186.367 215.828C185.778 216.655 185.761 217.094 186.692 217.625C189.132 219.008 191.356 220.733 193.644 222.354C194.227 222.769 194.556 222.799 194.987 222.169C197.956 217.81 201.343 213.783 204.853 209.862C205.054 209.642 205.321 209.469 205.48 209.22C206.153 208.187 206.688 208.418 207.428 209.254C207.929 209.823 207.826 210.068 207.389 210.518C202.209 215.929 197.69 221.848 193.698 228.185C191.009 232.452 188.669 236.897 186.515 241.457C186.098 242.345 186.319 242.652 187.129 243C190.22 244.325 193.286 245.712 196.36 247.061C198.158 247.846 198.377 248.294 197.684 250.073C196.287 253.66 194.95 257.262 193.869 260.959C192.032 267.265 190.874 273.702 190.208 280.241C190.132 280.965 190.241 281.29 191.102 281.328C194.3 281.483 197.5 281.71 200.696 281.969C201.483 282.034 201.809 281.904 201.885 281.029C202.829 270.637 205.415 260.698 209.826 251.255C211.712 247.22 213.837 243.33 216.272 239.607C222.219 230.514 229.617 222.781 238.391 216.364C248.739 208.795 260.216 203.631 272.827 200.954C291.669 196.957 310.059 198.705 327.965 206.096C335.549 209.232 342.649 213.288 349.11 218.367C360.446 227.278 369.416 238.114 375.745 251.058C376.474 252.541 376.482 252.529 378.036 251.884C380.565 250.838 383.079 249.762 385.635 248.779C386.45 248.466 386.52 248.153 386.153 247.397C381.48 237.754 375.492 228.989 368.168 221.13C362.333 214.87 355.812 209.422 348.631 204.786C337.782 197.786 326.042 192.893 313.412 190.232C303.927 188.228 294.36 187.536 284.718 188.196C276.301 188.773 268.083 190.342 260.086 192.934C258.908 193.316 258.123 192.757 258.086 191.537C258.071 191.031 258.511 191.079 258.782 190.989C262.311 189.823 265.9 188.849 269.543 188.065C283.7 185.03 297.927 184.919 312.2 187.716C322.192 189.675 331.717 193.007 340.78 197.693C346.037 200.409 351.057 203.507 355.774 207.069C367.267 215.748 376.726 226.224 384.013 238.629C385.944 241.924 387.669 245.319 389.275 248.779C389.634 249.548 389.68 249.961 388.73 250.213C384.611 251.287 380.857 253.274 376.908 254.778C375.17 255.442 375.202 255.447 374.434 253.795C369.917 244.034 363.788 235.39 356.198 227.729C351.346 222.833 345.934 218.635 340.12 214.99C330.665 209.053 320.426 205.061 309.48 202.918C297.563 200.579 285.681 200.644 273.878 203.118C258.554 206.33 245.055 213.15 233.35 223.431C227.331 228.724 222.13 234.731 217.849 241.473C207.424 257.902 202.791 275.917 204.123 295.464C204.983 308.095 208.478 320.021 214.435 331.248C218.966 339.781 224.795 347.372 231.76 354.11C236.111 358.313 240.877 361.981 245.953 365.215C255.44 371.245 265.715 375.351 276.728 377.55C286.143 379.426 295.594 379.814 305.096 378.709C306.162 378.584 306.453 378.314 306.228 377.207C305.698 374.628 305.304 372.021 304.899 369.416C304.786 368.681 304.58 368.428 303.753 368.52C288.407 370.328 273.701 367.887 259.672 361.223C253.152 358.128 247.155 354.211 241.707 349.421C226.488 336.028 217.463 319.352 214.766 299.443C212.714 284.318 215.061 269.84 221.509 256.089C223.689 251.441 226.246 247.019 229.336 242.931C238.323 231.041 249.715 222.243 263.699 216.821C274.898 212.476 286.536 210.813 298.586 211.77C299.019 211.805 299.799 211.591 299.548 212.535C299.371 213.187 299.742 214.114 298.358 214.005C283.946 212.878 270.311 215.568 257.504 222.058C249.967 225.881 243.277 230.845 237.422 236.926C233.387 241.12 229.896 245.708 226.885 250.667C226.768 250.857 226.692 251.077 226.566 251.253C225.974 252.06 226.295 252.466 227.104 252.954C230.088 254.769 233.001 256.684 235.96 258.535C236.668 258.976 236.698 259.387 236.322 260.092C230.442 271.17 227.977 283.017 229.156 295.565C230.479 309.623 235.896 322.023 245.326 332.691C249.592 337.516 254.538 341.524 260.049 344.891C263.944 347.266 267.953 349.405 272.246 350.843C279.082 353.128 286.12 354.425 293.349 354.435C306.954 354.455 319.317 350.665 330.384 342.918C334.321 340.159 337.931 337.016 341.146 333.433C341.677 332.838 343.143 333.184 343.377 333.925C343.48 334.246 343.219 334.387 343.049 334.576C331.957 346.904 318.128 354.161 301.544 356.21C294.123 357.126 286.742 356.637 279.385 355.095C272.395 353.629 265.86 350.983 259.769 347.336C244.776 338.349 234.589 325.533 229.513 308.864C225.099 294.375 225.769 280.074 231.128 266.051C231.845 264.174 232.713 262.351 233.565 260.526C233.791 260.032 233.828 259.74 233.324 259.417C230.726 257.788 228.146 256.136 225.565 254.485C224.955 254.095 224.833 254.494 224.602 254.931C221.9 260.161 219.889 265.654 218.502 271.379C215.685 282.967 215.588 294.624 218.268 306.297C221.584 320.73 228.521 333.249 239.004 343.861C243.042 347.948 247.476 351.556 252.32 354.599C266.659 363.624 282.278 367.741 299.125 366.684C313.809 365.767 327.106 360.969 338.974 352.449C344.275 348.644 349.001 344.209 353.098 339.123C365.81 323.349 371.34 305.283 369.882 284.992C369.8 283.81 370.595 284.129 371.158 283.981C372.064 283.742 372.122 284.34 372.174 284.997C372.7 291.889 372.372 298.721 371.122 305.5C369.698 313.241 367.22 320.638 363.484 327.547C353.18 346.601 337.606 359.381 316.796 365.815C313.887 366.715 310.93 367.431 307.911 367.881C307.129 367.997 306.929 368.252 307.092 369.031C307.802 372.491 308.15 376.02 309.042 379.45C309.266 380.307 308.996 380.522 308.174 380.644C294.638 382.68 281.277 381.701 268.092 377.804C259.587 375.294 251.635 371.578 244.159 366.803C242.729 365.891 241.526 366.119 240.551 367.489C238.967 369.713 237.408 371.954 235.78 374.138C235.223 374.882 235.393 375.224 236.107 375.706C251.438 385.995 268.291 391.804 286.61 393.237C296.8 394.036 306.877 393.332 316.803 391.052C317.619 390.863 317.936 391.036 318.119 391.848C318.874 395.144 319.724 398.42 320.459 401.72C320.649 402.599 320.988 402.69 321.761 402.498C333.432 399.567 344.389 394.996 354.599 388.691C362.756 383.657 370.12 377.66 376.782 370.809C381.906 365.552 386.338 359.731 390.415 353.64C390.545 353.458 390.644 353.255 390.75 353.056C391.465 351.725 391.894 351.651 393.124 352.58C393.461 352.837 393.398 353.04 393.219 353.328C391.097 356.761 388.811 360.086 386.292 363.245C384.411 365.611 382.529 367.976 380.426 370.149C379.919 370.673 380.275 371.041 380.622 371.385C382.684 373.437 384.75 375.484 386.834 377.507C388.339 378.968 388.356 378.945 389.71 377.459C395.181 371.45 399.967 364.943 404.16 357.971C410.003 348.255 414.444 337.939 417.531 327.03C419.662 319.492 421.117 311.807 421.756 303.985C421.857 302.748 422.386 302.797 423.291 302.823C424.433 302.857 424.086 303.583 424.034 304.147C422.826 317.491 419.629 330.329 414.451 342.649C411.915 348.679 408.919 354.461 405.508 360.045C402.7 364.643 399.642 369.063 396.269 373.259C386.369 385.551 374.658 395.802 360.987 403.808C358.436 405.3 355.868 406.778 353.186 408.026C352.633 408.287 352.503 408.557 352.798 409.138C354.627 412.74 356.431 416.351 358.217 419.975C358.501 420.557 358.745 420.643 359.319 420.353C366.351 416.799 373.093 412.782 379.422 408.1C380.712 407.144 381.238 407.111 381.972 408.536C383.002 410.526 384.436 412.227 385.641 414.085C386.298 415.101 387.072 416.042 387.691 417.074C388.243 417.998 388.674 418.111 389.569 417.421C393.657 414.274 397.654 411.027 401.448 407.538C402.408 406.656 403.39 405.781 404.274 404.828C404.94 404.107 405.479 404.181 406.127 404.82C407.611 406.274 409.107 407.711 410.595 409.16C412.138 410.657 413.696 412.146 415.235 413.649C415.637 414.041 415.949 414.069 416.369 413.643C419.832 410.139 423.192 406.553 426.357 402.775C429.743 398.739 433.037 394.629 436.02 390.288C440.635 383.58 444.842 376.627 448.491 369.337C448.824 368.681 448.581 368.517 448.069 368.267C444.805 366.695 441.53 365.123 438.289 363.505C437.553 363.141 437.421 363.666 437.208 364.054C436.283 365.756 435.397 367.478 434.472 369.18C432.687 372.455 430.775 375.657 428.717 378.773C428.072 379.755 427.585 378.966 427.036 378.779C426.308 378.543 426.543 378.074 426.814 377.63C428.193 375.367 429.638 373.149 430.963 370.847C432.634 367.934 434.22 364.977 435.731 361.985C436.38 360.696 437.095 360.435 438.349 361.054C442.579 363.146 446.803 365.261 451.059 367.292C451.769 367.63 451.713 367.846 451.43 368.432C449.286 372.866 446.941 377.192 444.377 381.398C443.345 383.086 442.347 384.79 441.275 386.459C440.902 387.034 441.089 387.3 441.586 387.609C443.308 388.703 445.012 389.836 446.74 390.934C448.274 391.903 449.888 392.76 451.363 393.811C452.285 394.467 452.647 394.185 453.163 393.385C455.858 389.211 458.305 384.904 460.646 380.522C464.767 372.808 468.273 364.824 471.242 356.6C476.767 341.299 480.23 325.519 481.625 309.267C481.763 307.676 481.748 307.71 483.02 307.863C483.806 307.955 483.974 308.286 483.909 309.045C482.076 330.708 476.681 351.417 467.761 371.172C464.877 377.565 461.628 383.777 457.999 389.78C455.37 394.126 452.667 398.427 449.703 402.551L449.736 402.53Z" fill="#E5B850"/>
<path d="M175.029 206.278C173.817 207.979 172.553 209.653 171.407 211.402C170.615 212.615 170.064 211.462 169.47 211.251C168.598 210.94 169.279 210.461 169.497 210.13C183.858 188.438 202.672 171.686 226.015 160.007C234.958 155.532 244.296 152.064 254.002 149.539C254.773 149.336 254.912 149.117 254.652 148.348C253.326 144.343 252.088 140.314 250.772 136.308C250.471 135.395 250.796 135.14 251.602 134.953C259.357 133.09 267.192 131.656 275.153 130.877C287.154 129.712 299.149 129.852 311.148 131.347C325.84 133.177 340.039 136.947 353.73 142.663C360.219 145.373 366.5 148.501 372.609 152.011C376.749 154.393 380.712 157.038 384.679 159.677C385.316 160.104 385.641 160.114 386.11 159.467C388.093 156.757 390.116 154.068 392.171 151.409C392.789 150.603 393.231 149.706 393.741 148.839C394.174 148.104 394.549 148.106 395.239 148.598C399.027 151.312 402.656 154.224 406.212 157.225C413.363 163.262 419.945 169.859 426.053 176.932C429.51 180.942 432.78 185.101 435.829 189.43C436.058 189.752 436.902 190.203 436.001 190.65C435.389 190.956 434.81 191.906 433.976 190.711C430.276 185.406 426.192 180.401 421.879 175.579C417.242 170.393 412.309 165.51 407.077 160.909C403.383 157.66 399.577 154.543 395.613 151.623C394.89 151.09 394.534 151.137 394.016 151.839C391.868 154.705 389.684 157.545 387.465 160.36C386.992 160.961 386.983 161.326 387.6 161.819C389.524 163.348 391.542 164.758 393.463 166.303C400.171 171.69 406.385 177.582 412.164 183.935C416.188 188.356 419.915 193.018 423.464 197.818C424.175 198.784 423.628 199.049 423.05 199.558C422.312 200.217 422.029 199.67 421.664 199.163C416.123 191.494 409.946 184.354 403.146 177.761C398.881 173.628 394.365 169.784 389.691 166.111C385.662 162.942 381.474 160.021 377.149 157.295C367.203 151.027 356.704 145.877 345.638 141.889C324.524 134.283 302.812 131.231 280.525 132.651C271.631 133.216 262.864 134.562 254.212 136.626C253.402 136.819 253.419 137.123 253.627 137.775C254.702 141.114 255.756 144.456 256.76 147.806C256.991 148.589 257.356 148.681 258.07 148.509C261.695 147.649 265.353 146.956 269.037 146.404C284.906 144.013 300.773 144.23 316.656 146.944C330.028 149.23 342.798 153.433 355.077 159.205C359.901 161.472 364.567 164.034 369.107 166.851C372.42 168.91 375.704 171.009 378.852 173.312C390.929 182.151 401.494 192.522 410.469 204.484C422.336 220.292 430.725 237.736 435.6 256.79C440.056 274.229 441.282 291.861 439.227 309.668C439.015 311.49 438.766 313.311 438.486 315.128C438.394 315.735 438.505 315.982 439.156 316.101C442.427 316.67 445.701 317.259 448.964 317.902C449.796 318.07 449.968 317.777 450.079 317.042C451.36 308.695 452.066 300.3 451.948 291.841C451.931 290.644 452.504 290.795 453.269 290.703C454.319 290.576 454.235 291.197 454.236 291.851C454.272 306.381 452.406 320.636 448.574 334.605C447.055 340.164 445.218 345.614 443.076 350.951C442.935 351.301 443.109 352.354 442.11 351.855C441.425 351.508 440.394 351.482 440.963 350.092C444.138 342.333 446.54 334.315 448.326 326.115C448.683 324.467 448.976 322.81 449.355 321.169C449.515 320.479 449.388 320.203 448.621 320.072C445.456 319.543 442.296 318.982 439.148 318.341C438.192 318.147 437.924 318.398 437.773 319.29C436.633 325.827 434.969 332.231 432.89 338.525C430.365 346.163 427.231 353.536 423.466 360.637C420.014 367.146 416.129 373.383 411.752 379.304C411.272 379.953 411.268 380.286 411.936 380.833C414.904 383.238 417.803 385.727 420.767 388.138C421.433 388.675 421.439 389.006 420.957 389.671C419.365 391.844 417.564 393.844 415.873 395.929C415.124 396.855 414.73 395.823 414.209 395.585C413.535 395.272 413.783 394.848 414.132 394.433C415.429 392.889 416.714 391.337 417.999 389.784C418.308 389.412 418.52 389.103 417.979 388.665C415.54 386.689 413.113 384.696 410.717 382.671C410.002 382.064 409.609 382.024 408.963 382.855C404.035 389.198 398.48 394.971 392.559 400.403C391.558 401.318 391.311 400.178 390.8 399.814C390.068 399.293 390.742 398.977 391.049 398.709C397.094 393.241 402.612 387.292 407.654 380.879C421.602 363.129 430.699 343.138 435.179 320.981C437.102 311.481 437.975 301.87 437.944 292.155C437.94 291.215 437.796 290.864 436.734 290.869C432.367 290.908 427.993 290.641 423.622 290.774C422.265 290.816 422.201 290.717 422.239 289.303C422.301 287.013 422.063 284.729 421.969 282.443C421.931 281.54 421.76 281.162 420.669 281.322C417.583 281.778 414.472 282.092 411.363 282.417C410.627 282.494 410.455 282.76 410.504 283.485C411.802 302.009 408.838 319.797 401.735 336.849C401.576 337.222 401.618 338.234 400.713 337.704C400.102 337.34 399.107 337.215 399.651 335.922C404.062 325.497 406.799 314.613 407.987 303.325C408.092 302.321 407.887 301.98 406.825 301.923C404.304 301.799 401.784 301.561 399.272 301.311C398.445 301.227 398.162 301.459 398.08 302.293C397.092 312.583 394.604 322.485 390.631 331.994C388.254 337.686 385.394 343.113 382.049 348.302C374.675 359.74 365.37 369.308 354.214 377.106C347.376 381.886 340.042 385.764 332.226 388.733C331.821 388.886 331.166 389.579 330.899 388.557C330.723 387.884 330.021 387.145 331.365 386.643C339.513 383.574 347.097 379.458 354.155 374.393C359.603 370.481 364.614 366.089 369.185 361.181C372.709 357.402 375.95 353.405 378.831 349.132C388.214 335.199 393.922 319.868 395.754 303.104C397.097 290.83 396.217 278.68 393.184 266.66C392.988 265.901 392.775 265.723 392.005 265.935C389.068 266.736 386.122 267.486 383.163 268.191C382.353 268.384 382.276 268.745 382.452 269.454C386.396 285.422 386.05 301.245 381.488 316.931C379.23 324.698 375.948 332.001 371.703 338.857C363.034 352.857 351.342 363.661 336.746 371.354C332.628 373.524 328.348 375.341 323.932 376.822C323.45 376.983 322.779 377.522 322.526 376.466C322.347 375.711 321.781 375.007 323.099 374.566C333.647 371.048 343.144 365.668 351.623 358.546C356.529 354.425 360.906 349.803 364.799 344.713C374.001 332.684 379.645 319.13 381.877 304.146C383.552 292.904 382.986 281.711 380.355 270.587C380.12 269.606 379.877 269.256 378.758 269.556C375.427 270.456 372.045 271.188 368.702 272.018C367.789 272.243 367.41 271.779 367.296 271.034C366.861 268.257 365.794 265.676 364.792 263.078C362.969 258.349 360.619 253.88 357.909 249.59C357.454 248.868 357.144 248.788 356.436 249.266C353.96 250.943 351.442 252.564 348.915 254.161C348.325 254.537 348.305 254.805 348.672 255.385C353.924 263.547 357.299 272.406 358.671 281.962C360.523 294.875 358.695 307.237 353.233 319.001C352.76 320.018 352.281 321.03 351.773 322.021C351.574 322.401 351.411 323.134 350.763 322.558C350.307 322.153 349.165 322.145 349.789 320.954C354.473 312.084 357.033 302.596 357.102 292.527C357.229 274.116 350.819 258.161 337.456 245.223C323.533 231.736 306.692 225.67 287.457 226.972C271.998 228.019 258.753 234.18 247.693 244.877C246.972 245.575 246.225 246.272 245.602 247.058C244.852 248.01 244.318 247.338 243.727 246.908C242.835 246.273 243.638 245.837 243.972 245.482C248.5 240.658 253.587 236.524 259.357 233.257C272.885 225.591 287.433 223.002 302.905 225.423C311.315 226.733 319.181 229.663 326.515 234.045C334.29 238.688 340.864 244.643 346.249 251.9C346.788 252.629 347.135 252.645 347.832 252.169C350.243 250.534 352.685 248.93 355.166 247.398C355.932 246.926 355.903 246.614 355.407 245.951C351.785 241.09 347.738 236.625 343.132 232.656C336.386 226.844 328.881 222.323 320.599 219.096C318.067 218.107 315.506 217.158 312.86 216.53C311.784 216.278 312.095 215.703 312.214 215.045C312.353 214.295 312.666 214.12 313.438 214.333C320.39 216.267 326.957 219.095 333.172 222.795C344.553 229.564 353.674 238.588 360.623 249.807C364.209 255.588 366.972 261.73 368.918 268.227C369.197 269.169 369.531 269.38 370.482 269.128C377.676 267.247 384.887 265.43 392.093 263.583C394.544 262.949 394.526 262.937 395.171 265.43C397.957 276.161 399.072 287.036 398.409 298.053C398.363 298.86 398.596 299.062 399.366 299.114C401.999 299.282 404.63 299.502 407.259 299.765C408.054 299.844 408.297 299.628 408.347 298.841C408.746 291.935 408.579 285.042 407.753 278.157C406.165 264.936 402.453 252.308 396.509 240.32C396.048 239.381 396.6 238.315 397.643 238.173C398.177 238.103 398.176 238.633 398.316 238.927C400.705 243.732 402.767 248.668 404.496 253.745C407.334 262.099 409.246 270.632 410.124 279.385C410.201 280.121 410.445 280.294 411.187 280.195C414.395 279.782 417.617 279.414 420.833 279.077C421.482 279.009 421.627 278.794 421.553 278.167C420.827 271.733 419.63 265.38 417.968 259.102C417.704 258.1 418.544 257.16 419.558 257.334C419.998 257.408 419.913 257.781 419.983 258.034C422.175 266.086 423.583 274.27 424.2 282.572C424.328 284.255 424.442 285.946 424.472 287.629C424.486 288.365 424.754 288.467 425.411 288.475C429.256 288.515 433.098 288.572 436.945 288.684C437.746 288.706 437.851 288.445 437.826 287.737C437.481 278.135 436.147 268.651 433.902 259.287C430.727 246.069 425.772 233.511 419.036 221.639C412.649 210.388 404.93 200.124 395.804 190.893C391.356 186.399 386.638 182.235 381.679 178.306C376.624 174.3 371.272 170.736 365.775 167.388C364.067 166.349 362.282 165.431 360.54 164.439C360.077 164.171 359.813 164.239 359.559 164.722C357.878 167.876 356.193 171.036 354.448 174.154C353.897 175.141 354.363 175.544 355.142 175.949C360.932 178.974 366.325 182.62 371.539 186.528C380.943 193.569 389.244 201.743 396.459 211.002C404.157 220.879 410.333 231.609 415.021 243.181C415.077 243.318 415.144 243.463 415.185 243.607C415.326 244.114 415.941 244.685 414.891 244.989C414.068 245.226 413.511 245.554 413.038 244.342C406.617 228.202 397.279 213.903 385.107 201.433C380.537 196.746 375.634 192.45 370.417 188.47C366.552 185.523 362.549 182.797 358.401 180.312C350.007 175.29 341.142 171.259 331.837 168.233C320.374 164.501 308.637 162.361 296.62 161.835C295.603 161.791 295.374 162 295.476 163.028C295.757 165.793 295.915 168.567 296.073 171.342C296.123 172.217 296.423 172.538 297.359 172.584C312.648 173.336 327.244 177.052 341.174 183.478C346.425 185.899 351.446 188.758 356.331 191.883C360.683 194.672 364.778 197.774 368.704 201.1C377.002 208.132 384.199 216.157 390.267 225.174C390.52 225.549 390.773 225.924 391.027 226.299C391.929 227.613 391.905 227.57 390.512 228.267C389.871 228.589 389.673 228.288 389.375 227.838C386.295 223.16 382.917 218.711 379.19 214.527C375.367 210.239 371.278 206.223 366.89 202.488C362.263 198.548 357.373 194.977 352.185 191.849C340.524 184.819 328.056 179.877 314.721 177.111C299.602 173.979 284.524 173.837 269.45 176.635C260.62 178.271 252.105 180.937 243.918 184.589C242.605 185.174 242.617 185.183 243.27 186.506C244.908 189.821 246.512 193.148 248.164 196.456C248.541 197.21 248.346 197.522 247.615 197.869C237.461 202.648 228.402 208.986 220.377 216.768C215.353 221.645 210.88 226.995 206.978 232.803C205.792 234.568 204.679 236.384 203.641 238.245C203.016 239.375 202.358 238.888 201.627 238.492C200.671 237.97 201.457 237.433 201.686 237.048C204.611 232.224 207.797 227.585 211.408 223.232C217.354 216.066 224.126 209.815 231.755 204.466C235.836 201.606 240.101 199.054 244.576 196.836C245.352 196.452 245.527 196.143 245.113 195.326C243.725 192.605 242.379 189.86 241.091 187.086C240.687 186.205 240.274 186.256 239.537 186.625C230.925 190.937 222.968 196.22 215.684 202.495C215.389 202.745 215.104 203.285 214.687 203.014C214.198 202.693 213.762 202.197 213.49 201.685C213.303 201.33 213.838 201.083 214.1 200.854C217.929 197.567 221.932 194.501 226.158 191.726C237.459 184.305 249.701 178.96 262.883 175.735C272.609 173.357 282.495 172.242 292.538 172.416C293.666 172.431 293.945 172.153 293.838 171.068C293.574 168.342 293.381 165.604 293.234 162.864C293.182 161.943 292.86 161.714 291.938 161.712C286.243 161.715 280.569 162.027 274.922 162.755C274.337 162.834 273.783 162.996 273.791 162.065C273.798 161.388 273.301 160.663 274.596 160.506C285.67 159.158 296.759 159.148 307.864 160.564C321.253 162.271 334.092 165.948 346.409 171.543C348.129 172.325 349.836 173.125 351.501 174.01C352.163 174.366 352.466 174.317 352.811 173.67C354.097 171.234 355.434 168.816 356.738 166.392C357.127 165.67 357.42 164.88 357.894 164.227C358.467 163.423 358.032 163.139 357.388 162.822C352.944 160.64 348.432 158.603 343.813 156.817C335.646 153.655 327.242 151.368 318.666 149.674C300.534 146.103 282.425 146.111 264.377 149.498C244.217 153.282 225.742 161.033 208.981 172.685C200.673 178.461 193.075 185.052 186.193 192.462C182.15 196.818 178.38 201.394 174.992 206.278L175.029 206.278Z" fill="#E5B850"/>
<path d="M181.913 405.038C177.219 400.475 173.131 396.079 169.304 391.443C156.823 376.321 147.359 359.544 140.948 341.085C138.731 334.705 136.943 328.213 135.512 321.623C135.211 320.232 134.656 318.908 134.489 317.481C134.358 316.406 134.711 315.897 135.798 315.706C139.498 315.042 143.184 314.298 146.883 313.624C147.615 313.49 148.296 313.162 149.066 313.126C149.882 313.088 150.245 313.285 150.39 314.175C151.374 320.235 152.855 326.189 154.67 332.063C159.073 346.279 165.522 359.521 173.984 371.826C179.393 379.692 185.547 386.94 192.355 393.636C199.537 400.686 207.426 406.87 215.876 412.303C226.615 419.207 238.082 424.596 250.256 428.453C252.836 429.273 252.838 429.283 252.15 431.836C251.36 434.758 250.643 437.705 249.771 440.604C249.435 441.718 249.699 442.065 250.785 442.378C267.618 447.157 284.738 449.23 302.164 448.479C306.309 448.299 310.431 447.962 314.545 447.46C314.989 447.404 315.704 447.029 315.632 447.986C315.588 448.627 316.232 449.536 314.823 449.701C305.532 450.788 296.206 451.143 286.846 450.651C273.834 449.974 261.073 447.749 248.547 444.022C247.031 443.57 246.957 443.562 247.492 442.041C248.616 438.826 249.253 435.477 250.262 432.234C250.567 431.239 250.412 430.801 249.361 430.477C243.361 428.628 237.541 426.288 231.854 423.61C227.166 421.404 222.614 418.958 218.169 416.298C214.262 413.966 210.521 411.4 206.837 408.742C198.022 402.385 190.104 395.058 182.943 386.908C168.438 370.397 158.119 351.623 151.902 330.649C150.489 325.885 149.294 321.054 148.472 316.152C148.327 315.298 148.049 315.135 147.235 315.307C144.07 315.963 140.889 316.564 137.708 317.128C137.007 317.257 136.883 317.505 137.021 318.169C139.541 330.054 142.99 341.655 147.982 352.789C155.399 369.355 165.243 384.342 177.731 397.603C179.465 399.448 181.251 401.233 183.048 403.016C183.452 403.419 183.636 403.815 183.139 404.098C182.656 404.373 182.406 405.442 181.929 405.041L181.913 405.038Z" fill="#E5B850"/>
<path d="M216.632 393.978C232.981 405.619 248.963 412.639 266.306 416.551C267.131 416.74 267.48 416.653 267.622 415.711C268.088 412.638 268.629 409.574 269.21 406.53C269.365 405.72 269.191 405.437 268.358 405.259C258.111 403.066 248.349 399.475 239.017 394.688C232.569 391.379 226.474 387.498 220.745 383.065C210.895 375.442 202.362 366.562 195.333 356.286C195.111 355.969 194.383 355.53 195.211 355.173C195.821 354.909 196.399 353.87 197.235 355.102C201.628 361.599 206.791 367.469 212.401 372.95C218.029 378.443 224.233 383.241 230.853 387.442C243.239 395.306 256.645 400.705 271.029 403.535C271.902 403.706 272.004 404.017 271.859 404.799C271.152 408.549 270.532 412.317 269.819 416.063C269.643 416.99 269.888 417.288 270.802 417.453C280.166 419.16 289.588 419.854 299.076 419.536C300.132 419.501 300.826 420.516 300.369 421.473C300.145 421.951 299.636 421.747 299.264 421.765C294.175 421.962 289.089 421.852 284.008 421.444C270.529 420.354 257.483 417.308 244.893 412.235C238.226 409.548 231.816 406.337 225.65 402.619C221.562 400.15 217.585 397.513 213.792 394.617C200.486 384.444 189.385 372.295 180.642 358.03C178.65 354.772 176.844 351.416 175.06 348.041C174.398 346.792 174.419 346.762 175.733 346.265C179.209 344.946 182.438 343.106 185.822 341.589C186.542 341.271 186.281 340.908 186.054 340.446C183.408 335.007 181.197 329.399 179.395 323.632C179.314 323.38 179.234 323.128 179.163 322.874C178.584 320.879 178.595 320.94 180.689 320.556C184.169 319.912 187.475 318.631 190.884 317.734C191.656 317.531 191.296 316.966 191.18 316.538C190.07 312.342 189.227 308.099 188.627 303.816C188.323 301.662 188.17 299.484 187.906 297.324C187.814 296.56 187.883 296.122 188.825 296.147C189.603 296.162 190.117 296.121 190.194 297.184C190.952 307.753 193.374 317.976 197.323 327.855C197.73 328.87 198.152 329.877 198.603 330.88C199.166 332.13 197.889 331.795 197.476 332.173C196.974 332.639 196.748 332.239 196.538 331.753C194.954 328.122 193.556 324.42 192.397 320.633C192.162 319.855 191.896 319.737 191.146 319.972C188.277 320.865 185.396 321.714 182.497 322.498C181.663 322.726 181.525 323.008 181.784 323.803C183.685 329.694 185.972 335.435 188.838 340.942C189.318 341.868 189.309 342.409 188.333 342.873C185.894 344.02 183.476 345.199 181.046 346.37C180.201 346.776 179.377 347.241 178.507 347.568C177.691 347.871 177.652 348.215 178.048 348.957C181.398 355.269 185.176 361.32 189.494 367.03C194.542 373.703 200.13 379.883 206.354 385.509C210.207 388.987 214.205 392.276 216.639 393.956L216.632 393.978Z" fill="#E5B850"/>
<path d="M122.866 169.736C126.349 164.592 130.657 159.285 135.155 154.139C142.181 146.097 149.818 138.659 158.02 131.799C158.51 131.387 158.918 131.156 159.35 131.87C159.674 132.41 160.512 132.769 159.527 133.561C153.901 138.125 148.632 143.094 143.597 148.29C140.664 151.314 137.867 154.461 135.11 157.653C131.437 161.892 128.017 166.329 124.747 170.872C121.85 174.902 119.084 179.026 116.524 183.288C113.912 187.637 111.409 192.045 109.092 196.559C105.145 204.229 101.718 212.127 98.7997 220.255C91.4649 240.68 87.5031 261.782 86.8746 283.541C86.454 298.108 87.5894 312.581 90.2974 326.935C94.4542 348.962 101.97 369.835 112.907 389.518C115.251 393.743 117.739 397.893 120.394 401.933C120.904 402.703 120.355 403.939 119.432 404.078C118.919 404.155 118.843 403.658 118.658 403.376C115.617 398.682 112.732 393.894 110.059 388.985C101.392 373.04 94.8684 356.288 90.5603 338.716C84.9841 315.988 83.2857 293.014 85.4485 269.817C87.2908 249.992 91.9487 230.872 99.3638 212.45C102.433 204.828 105.941 197.42 109.914 190.229C113.729 183.323 117.867 176.63 122.872 169.74L122.866 169.736Z" fill="#E5B850"/>
<path d="M187.316 467.724C187.594 467.082 188.036 467.229 188.557 467.555C193.116 470.395 197.85 472.925 202.648 475.316C211.559 479.751 220.733 483.55 230.18 486.678C249.261 492.995 268.819 496.504 288.839 497.21C305.737 497.807 322.423 496.307 338.906 492.815C349.148 490.645 359.139 487.668 368.922 484.004C369.777 483.684 369.983 483.407 369.624 482.514C367.91 478.322 366.242 474.118 364.626 469.89C364.269 468.955 363.855 469.058 363.132 469.331C349.75 474.412 335.946 477.946 321.736 479.934C308.801 481.743 295.793 482.219 282.727 481.379C282.274 481.348 281.601 481.487 281.841 480.659C282.015 480.075 281.453 479.038 282.839 479.132C291.887 479.747 300.924 479.672 309.944 478.967C319.651 478.203 329.227 476.717 338.688 474.485C346.888 472.551 354.922 470.082 362.776 467.061C363.196 466.899 363.606 466.714 364.002 466.51C365.096 465.944 365.458 466.052 365.977 467.262C366.653 468.857 367.265 470.478 367.907 472.094C369.321 475.674 370.739 479.248 372.146 482.824C372.747 484.348 372.462 485.012 370.926 485.608C355.283 491.662 339.106 495.744 322.421 497.871C301.366 500.558 280.324 500.053 259.342 496.353C241.332 493.177 224.015 487.692 207.369 480.031C200.747 476.978 194.321 473.525 188.012 469.856C186.656 469.067 186.573 468.805 187.322 467.702L187.316 467.724Z" fill="#E5B850"/>
<path d="M191.105 432.473C170.695 417.771 153.939 399.738 141.09 378.145C131.804 362.539 125.084 345.938 120.895 328.337C116.841 311.291 115.395 294.068 116.505 276.657C116.543 276.1 116.416 275.435 117.36 275.683C118.015 275.858 118.854 275.562 118.77 276.864C117.716 292.333 118.84 307.69 122.002 322.917C126.872 346.398 136.214 368.031 149.999 387.806C156.676 397.38 164.249 406.186 172.656 414.286C176.934 418.402 181.442 422.258 186.12 425.925C189.343 428.45 192.637 430.875 196.031 433.159C204.829 439.087 214.086 444.193 223.781 448.496C224.583 448.855 224.846 448.662 225.127 447.89C226.359 444.522 227.642 441.173 228.954 437.844C229.25 437.1 229.039 436.755 228.368 436.463C224.068 434.595 219.91 432.439 215.811 430.175C213.396 428.844 211.028 427.423 208.684 425.967C204.852 423.592 201.148 421.025 197.54 418.323C195.454 416.758 193.459 415.064 191.394 413.469C190.857 413.052 190.895 412.848 191.206 412.248C191.834 411.05 192.223 411.336 193.115 412.059C198.117 416.116 203.325 419.895 208.754 423.363C212.294 425.619 215.927 427.719 219.619 429.711C223.381 431.744 227.241 433.564 231.149 435.277C231.844 435.586 231.982 435.808 231.622 436.489C229.289 440.886 227.949 445.689 226.048 450.261C225.52 451.53 225.321 451.583 224.055 451.044C219.365 449.031 214.779 446.809 210.288 444.39C207.126 442.686 204.008 440.908 200.969 438.992C197.643 436.889 194.309 434.798 191.109 432.493L191.105 432.473Z" fill="#E5B850"/>
<path d="M180.837 444.45C160.644 429.833 143.963 411.959 130.576 391.009C129.909 389.968 130.613 389.797 131.184 389.337C131.949 388.714 132.19 389.283 132.516 389.808C139.415 400.769 147.376 410.931 156.352 420.285C161.348 425.496 166.62 430.418 172.206 435.014C176.391 438.454 180.631 441.818 185.081 444.898C206.8 459.903 230.523 470.216 256.331 475.575C260.476 476.439 264.643 477.16 268.832 477.737C269.371 477.811 269.973 477.797 269.716 478.623C269.528 479.24 269.87 480.183 268.533 479.983C260.268 478.758 252.097 477.114 244.032 474.918C232.264 471.712 220.903 467.408 209.937 462.058C204.432 459.376 199.043 456.467 193.861 453.193C192.228 452.163 190.563 451.189 188.938 450.147C188.439 449.828 188.163 449.888 187.847 450.37C185.13 454.476 182.367 458.557 179.669 462.686C178.728 464.121 178.806 464.15 177.352 463.132C173.222 460.244 169.11 457.343 165.174 454.195C159.918 449.992 154.817 445.609 149.937 440.967C142.833 434.21 136.254 426.978 130.138 419.325C129.997 419.145 129.852 418.971 129.717 418.795C129.013 417.896 129.305 416.856 130.377 416.496C130.908 416.317 131.004 416.837 131.21 417.09C133.832 420.407 136.543 423.664 139.357 426.827C144.154 432.215 149.214 437.348 154.539 442.236C161.769 448.879 169.458 454.928 177.516 460.534C178.352 461.111 178.696 461.055 179.233 460.226C181.573 456.586 183.972 452.979 186.388 449.384C186.759 448.826 186.624 448.562 186.132 448.22C184.354 446.99 182.612 445.722 180.851 444.468L180.837 444.45Z" fill="#E5B850"/>
<path d="M234.83 453.49C235.189 452.835 235.638 453.199 236.032 453.338C239.883 454.691 243.767 455.936 247.701 457.021C266.744 462.286 286.081 464.354 305.733 463.109C326.935 461.766 347.171 456.754 366.438 448.054C375.123 444.129 383.418 439.494 391.338 434.202C391.744 433.934 392.248 432.772 393.013 433.927C393.854 435.189 393.866 435.197 392.616 436.032C377.714 446.018 361.637 453.576 344.361 458.635C325.49 464.16 306.178 466.451 286.446 465.516C269.003 464.69 252.016 461.35 235.494 455.529C234.146 455.055 234.032 454.673 234.83 453.49Z" fill="#E5B850"/>
<path d="M125.269 382.03C125.087 381.706 124.942 381.443 124.796 381.171C116.594 366.31 110.463 350.668 106.383 334.25C103.518 322.711 101.755 311.02 101.06 299.178C101.032 298.663 100.841 298.014 101.727 298.141C102.346 298.228 103.235 297.711 103.311 299.065C104.624 322.101 110.02 344.215 119.429 365.401C121.682 370.472 124.18 375.426 126.849 380.289C127.017 380.595 127.532 381.005 126.909 381.313C126.382 381.575 125.947 382.123 125.263 382.025L125.269 382.03Z" fill="#E5B850"/>
<path d="M264.364 432.538C264.639 432.088 265.036 432.362 265.361 432.434C268.84 433.152 272.334 433.747 275.852 434.209C286.938 435.664 298.03 435.851 309.123 434.764C317.385 433.952 325.507 432.457 333.483 430.221C334.332 429.985 334.53 430.312 334.711 430.989C334.9 431.681 335.1 432.168 334.07 432.443C326.436 434.489 318.697 436.001 310.822 436.849C300.499 437.962 290.156 437.982 279.799 436.913C274.921 436.411 270.068 435.671 265.256 434.685C264.019 434.432 263.701 433.658 264.368 432.532L264.364 432.538Z" fill="#E5B850"/>
<path d="M135.241 183.332C131.033 189.507 126.908 196.457 123.227 203.679C118.753 212.468 115.008 221.555 112 230.955C111.668 232.001 111.146 231.638 110.492 231.499C109.707 231.33 109.575 231.023 109.82 230.251C112.612 221.609 116.005 213.218 120.019 205.074C123.484 198.043 127.342 191.239 131.664 184.703C133.085 182.557 134.593 180.465 135.995 178.306C136.595 177.389 137.023 177.871 137.617 178.232C138.293 178.643 138.379 179.013 137.885 179.643C137.081 180.672 136.357 181.765 135.237 183.338L135.241 183.332Z" fill="#E5B850"/>
<path d="M169.595 335.456C169.423 335.042 169.303 334.77 169.201 334.486C164.911 322.844 162.331 310.854 161.385 298.533C161.327 297.784 161.336 297.33 162.298 297.352C163.076 297.367 163.617 297.3 163.681 298.381C164.094 305.104 165.169 311.742 166.686 318.324C167.887 323.538 169.444 328.654 171.274 333.689C171.394 334.013 171.829 334.447 171.224 334.741C170.702 334.997 170.156 335.21 169.595 335.456Z" fill="#E5B850"/>
<path d="M162.635 109.932C165.356 113.93 168.114 117.902 170.802 121.921C172.184 123.984 172.122 124.02 173.987 122.535C174.133 122.418 174.285 122.305 174.439 122.202C185.881 114.342 198.018 107.711 210.837 102.3C211.496 102.017 211.771 102.045 212.085 102.764C213.554 106.153 215.024 109.553 216.638 112.877C217.185 114.01 216.821 114.281 215.875 114.678C203.335 119.899 191.565 126.482 180.481 134.279C171.6 140.531 163.335 147.505 155.666 155.177C151.922 158.923 148.323 162.807 144.952 166.899C144.339 167.647 144.479 168.004 145.194 168.574C148.505 171.215 151.753 173.944 155.06 176.59C155.762 177.152 155.676 177.488 155.19 178.107C152.131 182.013 149.083 185.928 146.285 190.046C141.811 196.633 137.792 203.473 134.238 210.591C130.594 217.875 127.523 225.399 124.931 233.131C124.67 233.9 124.767 234.243 125.618 234.496C126.421 234.74 126.803 234.809 127.125 233.827C132.348 217.93 139.837 203.169 149.374 189.46C152.252 185.318 155.407 181.392 158.643 177.514C162.5 172.903 166.622 168.55 170.947 164.378C174.685 160.778 178.623 157.4 182.653 154.132C182.904 153.931 183.385 153.76 183.23 153.411C183.016 152.905 182.597 152.474 182.112 152.173C181.609 151.859 181.346 152.317 181.053 152.551C172.768 159.201 165.082 166.481 158.224 174.589C157.594 175.335 157.127 175.488 156.308 174.799C153.675 172.579 151.017 170.395 148.294 168.288C147.45 167.634 147.468 167.231 148.113 166.54C150.073 164.442 151.989 162.305 153.949 160.207C161.615 152.011 170.054 144.666 179.112 138.027C188.914 130.847 199.358 124.717 210.377 119.554C217.547 116.196 224.917 113.325 232.462 110.888C233.068 110.692 233.341 110.762 233.519 111.393C233.771 112.298 234.109 113.184 234.386 114.08C235.325 117.092 236.555 120.011 237.228 123.108C237.567 124.684 237.993 124.829 239.497 124.29C240.026 124.101 240.565 123.936 241.104 123.772C250.887 120.886 260.865 118.899 271.031 117.754C286.917 115.968 302.772 116.379 318.59 118.958C333.341 121.36 347.574 125.597 361.284 131.627C367.203 134.232 372.967 137.142 378.559 140.381C381.486 142.076 380.812 142.065 382.209 139.487C382.285 139.355 382.368 139.238 382.45 139.11C384.326 136.236 386.202 133.362 388.088 130.487C388.935 129.197 388.958 129.178 390.231 129.996C394.081 132.472 397.993 134.86 401.696 137.567C407.707 141.918 413.5 146.538 419.016 151.509C424.971 156.882 430.572 162.604 435.815 168.663C447.824 182.547 457.58 197.843 465.198 214.481C472.26 229.91 477.132 245.973 479.869 262.665C481.53 272.824 482.35 283.03 482.399 293.298C482.4 294.165 482.17 294.337 481.336 294.274C477.617 293.996 473.888 293.755 470.16 293.577C469.22 293.536 468.999 293.254 469.004 292.329C469.032 283.16 468.347 274.023 466.887 264.944C465.561 256.695 463.748 248.55 461.232 240.55C457.19 227.705 451.869 215.408 445.117 203.711C444.715 203.018 444.39 203.008 443.823 203.426C442.048 204.736 440.094 205.768 438.19 206.88C435.699 208.325 433.118 209.609 430.706 211.182C429.983 211.657 430.034 212.012 430.418 212.683C431.833 215.177 433.239 217.673 434.541 220.227C443.625 238.016 449.197 256.797 451.19 276.575C451.319 277.879 452.133 277.265 452.709 277.375C453.501 277.522 453.543 277.048 453.463 276.443C453.154 274.056 452.912 271.664 452.562 269.284C450.707 256.766 447.466 244.597 442.725 232.82C439.937 225.882 436.808 219.108 433.005 212.65C432.552 211.877 433.077 211.756 433.503 211.51C436.556 209.766 439.638 208.07 442.66 206.268C443.499 205.769 443.786 205.921 444.235 206.726C450.66 218.253 455.868 230.266 459.513 242.926C461.659 250.388 463.459 257.922 464.662 265.588C467.252 282.122 467.445 298.648 465.248 315.169C463.395 329.079 459.892 342.548 454.669 355.536C454.165 356.786 454.784 356.961 455.614 357.358C456.755 357.896 456.611 356.838 456.785 356.405C458.453 352.287 459.932 348.095 461.244 343.847C465.993 328.426 468.625 312.63 468.938 296.439C468.956 295.443 469.224 295.192 470.221 295.265C474.432 295.584 478.651 295.829 482.866 296.08C484.292 296.167 484.604 295.867 484.61 294.474C484.717 277.225 482.54 260.224 478.033 243.51C473.116 225.284 465.707 208.087 455.706 191.989C442.105 170.091 424.789 151.623 403.906 136.452C399.741 133.425 395.411 130.642 391.009 127.959C385.872 124.823 380.608 121.941 375.2 119.311C365.943 114.797 356.384 111.034 346.524 108.072C345.875 107.875 345.607 107.684 345.842 106.914C346.96 103.191 348.024 99.4555 349.059 95.7092C349.267 94.964 349.518 94.7886 350.299 95.0263C354.27 96.2619 358.24 97.4974 362.122 98.9967C363.305 99.4501 363.336 98.6763 363.654 98.0536C364.061 97.2555 363.486 97.0937 362.926 96.8982C360.709 96.1333 358.511 95.329 356.285 94.6019C342.366 90.0498 328.158 86.9106 313.625 85.3355C298.752 83.7217 283.899 83.6164 269.055 85.172C258.623 86.2608 248.347 88.1144 238.215 90.7342C224.492 94.291 211.304 99.2008 198.624 105.437C189.904 109.725 181.557 114.624 173.558 120.116C172.893 120.571 172.566 120.577 172.073 119.846C169.576 116.113 167.021 112.41 164.471 108.701C164.268 108.407 164.094 107.832 163.742 107.962C163.203 108.152 162.689 108.547 162.301 108.978C161.996 109.318 162.446 109.656 162.648 109.951L162.635 109.932ZM214.783 100.687C223.489 97.2736 232.378 94.4229 241.476 92.1984C251.86 89.6522 262.39 87.9345 273.073 87.0338C294.357 85.2352 315.448 86.7042 336.361 91.4073C339.792 92.179 343.186 93.0659 346.584 93.9469C347.408 94.1622 347.67 94.4369 347.4 95.3324C346.323 98.8724 345.334 102.44 344.333 105.999C344.094 106.863 343.629 107.629 343.426 108.519C343.273 109.224 343.419 109.46 344.122 109.669C348.73 111.005 353.279 112.537 357.773 114.233C366.443 117.506 374.862 121.334 382.956 125.859C384.174 126.541 385.381 127.25 386.612 127.914C387.165 128.22 387.261 128.5 386.895 129.053C385.166 131.669 383.483 134.31 382.083 136.478C380.329 138.953 380.378 138.873 378.131 137.583C372.98 134.631 367.674 131.984 362.246 129.596C347.622 123.163 332.43 118.749 316.665 116.385C302.569 114.272 288.429 113.87 274.265 115.139C262.674 116.181 251.329 118.388 240.212 121.687C239.485 121.903 239.26 121.752 239.033 121.051C237.965 117.716 236.866 114.386 235.704 111.083C235.381 110.163 235.616 109.897 236.492 109.636C246.966 106.561 257.637 104.405 268.513 103.146C288.641 100.817 308.67 101.75 328.602 105.791C329.887 106.051 330.334 105.688 330.489 104.375C330.58 103.643 329.983 103.802 329.669 103.738C326.404 103.111 323.143 102.452 319.867 101.941C308.575 100.197 297.224 99.4284 285.822 99.7022C263.219 100.243 241.437 104.605 220.475 112.789C219.485 113.172 219.084 113.08 218.655 112.058C217.243 108.727 215.744 105.431 214.231 102.142C213.87 101.364 213.915 101.024 214.787 100.681L214.783 100.687Z" fill="#E5B850"/>
</g>
<defs>
<clipPath id="clip0_496_279">
<rect width="424.14" height="413.549" fill="white" transform="translate(345.5 582.889) rotate(-144.547)"/>
</clipPath>
</defs>
</svg>
