<svg width="1288" height="1266" viewBox="0 0 1288 1266" fill="none" xmlns="http://www.w3.org/2000/svg">
<ellipse cx="644" cy="633" rx="582" ry="579" fill="#095869"/>
<g clip-path="url(#clip0_626_7)">
<path d="M59.8389 634.853C60.1272 551.907 76.9832 472.489 110.984 396.711C115.774 386.059 120.875 375.561 126.331 365.24C126.864 364.225 127.041 361.535 129.126 363.123C130.767 364.358 134.693 364.402 132.431 368.636C117.77 396.16 105.616 424.786 95.8132 454.361C84.9455 487.2 76.9832 520.7 72.2369 554.972C69.8859 571.954 68.2669 588.98 67.3575 606.094C66.5813 620.628 66.8474 635.139 66.7809 649.651C66.7809 652.209 67.4463 653.047 70.0856 652.871C82.2396 652.077 94.3937 651.393 106.57 650.82C108.832 650.71 108.899 649.563 108.788 647.931C108.145 639.484 108.61 631.015 108.788 622.568C109.498 586.466 114.244 550.892 122.339 515.738C124.025 508.394 125.999 501.116 127.906 493.816C128.239 492.515 128.283 490.398 130.612 491.721C132.231 492.647 135.669 491.721 134.538 495.69C130.9 508.438 127.884 521.34 125.333 534.352C124.402 539.071 124.38 538.961 129.037 539.622C138.907 541.034 148.799 542.467 158.624 544.144C161.241 544.585 162.062 543.835 162.505 541.453C166.254 521.317 171.599 501.579 178.075 482.171C188.122 452.178 200.919 423.331 216.6 395.807C232.192 368.482 250.223 342.855 270.739 318.926C273.489 315.706 276.483 312.663 279.122 309.354C280.919 307.105 282.072 307.855 283.758 309.443C285.399 310.986 286.198 311.957 284.246 314.096C268.61 331.078 254.526 349.273 241.662 368.438C218.84 402.467 200.675 438.813 186.969 477.386C186.104 479.789 186.17 480.958 188.921 481.885C197.726 484.862 206.464 488.06 215.18 491.302C217.243 492.074 218.086 491.787 218.84 489.559C230.905 454.692 246.919 421.743 267.234 390.889C267.966 389.764 268.277 386.941 270.805 388.904C272.646 390.338 275.64 391.065 272.957 394.77C267.368 402.467 262.843 410.848 257.986 419.008C256.81 420.993 256.833 421.985 259.073 423.154C269.763 428.756 280.387 434.446 290.944 440.268C293.117 441.481 293.849 440.709 294.847 438.945C306.403 418.435 319.732 399.159 334.747 381.009C344.262 369.518 354.398 358.602 365.177 348.258C366.042 347.42 367.084 345.104 368.526 347.42C369.568 349.074 373.294 350.044 369.879 353.286C348.276 373.863 329.447 396.755 313.234 421.743C285.754 464.109 267.079 510.026 257.365 559.515C256.3 564.897 255.502 570.322 254.482 575.703C254.171 577.357 254.659 577.865 256.3 578.129C266.613 579.783 276.905 581.503 287.196 583.268C289.036 583.577 289.569 582.871 289.835 581.151C295.646 543.107 307.423 506.938 324.966 472.666C338.119 446.973 354.154 423.198 373.095 401.343C397.625 373.069 425.859 349.14 457.818 329.556C461.301 327.439 463.895 328.542 464.694 332.445C465.004 333.989 463.585 333.989 462.853 334.452C449.501 342.59 436.726 351.544 424.506 361.27C410.378 372.518 397.403 384.978 385.005 398.079C383.608 399.534 383.341 400.505 385.071 401.938C391.659 407.474 398.224 413.053 404.633 418.765C406.518 420.442 407.206 419.03 408.16 417.994C418.584 406.658 429.873 396.248 441.916 386.632C483.857 353.132 531.209 331.232 584.061 321.176C602.603 317.647 621.3 315.838 640.196 315.596C685.885 315.022 729.666 323.778 771.651 341.62C772.693 342.061 774.623 342.127 774.312 343.759C773.98 345.501 773.181 347.288 772.117 348.699C771.496 349.537 770.231 348.39 769.344 347.993C752.311 340.716 734.789 334.893 716.736 330.659C696.775 326.005 676.614 323.028 656.076 322.543C653.548 322.477 651.019 322.3 648.513 322.102C646.65 321.969 645.852 322.609 645.852 324.616C645.83 334.805 645.741 344.972 645.541 355.139C645.497 357.653 646.318 358.447 648.89 358.513C678.011 359.307 706.511 363.828 734.146 373.201C771.008 385.684 803.899 404.849 832.754 430.851C850.919 447.237 866.688 465.609 879.84 486.185C881.481 488.743 882.634 488.986 885.185 487.354C894.545 481.333 904.059 475.555 913.53 469.711C918.054 466.91 918.875 467.373 921.182 472.048C924.02 477.782 927.414 483.252 930.364 488.942C942.451 512.077 951.412 536.381 957.466 561.721C958.553 566.242 958.531 566.198 963.078 565.249C971.617 563.485 980.155 561.677 988.717 560.067C991.511 559.537 992.664 558.788 991.866 555.546C986.61 534.307 979.801 513.599 970.929 493.573C954.761 457.162 933.092 424.323 905.701 395.278C902.973 392.366 906.033 391.771 907.054 390.249C908.429 388.22 909.449 389.102 910.735 390.47C931.672 412.855 949.504 437.467 964.187 464.329C981.93 496.815 994.283 531.242 1001.31 567.521C1004.49 583.907 1006.68 600.426 1007.21 617.121C1007.33 620.797 1009.28 622.613 1013.07 622.568C1021.12 622.502 1029.17 622.392 1037.22 622.436C1039.53 622.436 1040.13 621.664 1039.97 619.371C1039.17 607.638 1038.35 595.927 1036.82 584.238C1034.05 563.022 1029.53 542.181 1023.34 521.692C1013.65 489.67 1000.05 459.389 982.529 430.829C981.486 429.109 981.198 428.072 983.15 426.639C990.38 421.302 998.497 417.442 1006.06 412.723C1009.94 410.297 1013.91 407.937 1017.97 405.798C1019.9 404.783 1020.03 403.989 1018.9 402.203C1010.67 389.235 1001.98 376.598 992.465 364.534C990.868 362.527 992.598 358.293 995.171 357.852C996.346 357.653 996.679 358.756 997.211 359.418C1011.56 377.789 1024.49 397.064 1035.82 417.42C1043.9 431.932 1051.31 446.774 1057.54 462.168C1058.67 464.991 1059.76 465.344 1062.51 464.021C1071.11 459.941 1079.85 456.103 1088.61 452.354C1091.05 451.317 1091.8 450.369 1090.63 447.634C1073.97 408.951 1052.75 372.959 1026.69 339.811C1021.94 333.768 1017.06 327.836 1012.07 322.014C1010.61 320.293 1010.34 319.191 1012.34 318.044C1013.87 317.162 1014.89 314.692 1017.31 317.47C1036.78 340.142 1054.1 364.314 1069.23 390.029C1072.53 395.653 1075.7 401.365 1078.72 407.143C1079.92 409.459 1080.91 409.944 1083.4 408.709C1095.44 402.754 1107.6 397.02 1119.71 391.22C1124.27 389.036 1124.34 389.014 1126.47 393.447C1130.4 401.585 1134.37 409.723 1138.11 417.927C1139.16 420.177 1140.18 420.397 1142.31 419.427C1152.44 414.818 1162.62 410.319 1172.85 405.908C1174.95 405.004 1175.53 404.254 1174.51 401.938C1162.4 374.811 1148.32 348.787 1132.21 323.822C1130.33 320.889 1131.66 317.956 1135.14 317.382C1136.74 317.118 1136.94 318.617 1137.49 319.455C1146.54 333.394 1154.95 347.685 1162.78 362.351C1169.48 374.878 1175.66 387.647 1181.36 400.637C1181.67 401.365 1182.05 402.092 1182.52 402.732C1185.27 406.503 1184.91 408.003 1180.56 409.922C1167.35 415.81 1154.11 421.655 1140.86 427.477C1136.14 429.55 1135.16 428.91 1133.3 424.213C1130 415.92 1125.92 407.959 1121.99 399.953C1121.04 398.012 1120.04 398.674 1118.73 399.314C1107.75 404.585 1096.82 409.9 1085.77 415.038C1083.35 416.163 1084 417.31 1084.84 419.008C1096.02 441.349 1105.4 464.44 1113.01 488.236C1121.3 514.194 1127.4 540.659 1131.22 567.631C1134.85 593.479 1136.63 619.459 1136.01 645.549C1134.41 712.285 1120.17 776.198 1092.58 837.09C1091.21 840.111 1089.92 843.177 1088.34 846.088C1087.28 848.029 1087.81 848.801 1089.63 849.705C1100.57 855.064 1111.48 860.467 1122.32 865.981C1124.32 866.995 1124.98 866.51 1125.85 864.658C1130.88 854.005 1135.81 843.287 1140.02 832.282C1141.49 828.467 1143.55 830.76 1145.46 831.091C1148.12 831.554 1147.14 833.186 1146.54 834.686C1134.48 864.702 1119.79 893.394 1102.45 920.741C1101.87 921.668 1101.61 923.63 1099.97 923.013C1098.28 922.395 1096.62 921.359 1095.38 920.102C1094.73 919.44 1095.97 918.315 1096.51 917.455C1104.93 904.068 1112.67 890.329 1120.06 876.346C1121.41 873.81 1121.04 872.818 1118.44 871.583C1108.19 866.687 1097.99 861.636 1087.95 856.365C1085.02 854.821 1083.82 855.152 1082.33 858.085C1072.71 877.361 1061.46 895.71 1049.22 913.441C1047.18 916.397 1044.3 916.617 1041.77 914.059C1040.44 912.692 1041.99 911.964 1042.5 911.214C1049.42 901.091 1056.1 890.814 1062.31 880.25C1089.72 833.671 1108.95 784.027 1119.62 731.075C1123.72 710.675 1126.51 690.143 1127.96 669.368C1129.51 647.203 1129.46 625.061 1127.96 602.896C1124.58 553.627 1113.7 506.078 1095.69 460.095C1094.67 457.515 1093.67 457.426 1091.49 458.397C1082.4 462.521 1073.28 466.645 1064.1 470.571C1061.77 471.563 1061.73 472.622 1062.55 474.695C1074.06 504.203 1081.98 534.66 1087.01 565.889C1087.17 566.793 1087.15 567.72 1087.28 568.624C1087.92 573.189 1087.92 573.101 1083.4 573.233C1081.31 573.299 1081.05 572.395 1080.78 570.653C1073.22 519.994 1057.38 472.048 1033.16 426.837C1030.57 422.007 1027.69 417.31 1025.09 412.48C1024.18 410.804 1023.47 410.407 1021.7 411.465C1011.94 417.288 1002.16 423.088 992.287 428.712C989.582 430.234 991.001 431.579 991.888 433.079C1002.33 450.766 1011.32 469.137 1018.86 488.214C1030.01 516.377 1037.89 545.423 1042.39 575.372C1045.67 597.228 1047.45 619.216 1046.94 641.292C1044.92 729.311 1017.24 808.485 963.654 878.618C958.731 885.08 953.341 891.189 948.173 897.474C947.198 898.665 946.155 900.143 944.78 898.07C943.782 896.548 940.278 896.063 943.094 892.843C967.092 865.407 986.92 835.259 1002.47 802.354C1018.59 768.214 1029.53 732.509 1035.38 695.237C1038.64 674.528 1040.19 653.731 1040.19 632.78C1040.19 629.67 1039.46 628.545 1036.22 628.876C1027.75 629.758 1019.21 629.405 1010.7 629.427C1008.52 629.427 1007.66 629.935 1007.7 632.272C1008.03 648.416 1006.75 664.471 1004.97 680.483C1004.86 681.387 1004.51 682.291 1004.55 683.195C1004.71 686.967 1002.98 687.342 999.673 686.57C997.433 686.04 997.255 685.247 997.544 683.35C1000.83 660.656 1001.58 637.874 1000.29 614.982C999.429 599.566 997.389 584.326 994.683 569.131C994.15 566.176 993.064 565.801 990.447 566.374C980.466 568.558 970.441 570.543 960.461 572.638C954.627 573.873 953.297 573.145 951.877 567.477C949.016 556.053 945.978 544.695 942.141 533.558C935.576 514.569 927.103 496.462 917.234 478.973C916.147 477.033 915.304 476.415 913.108 477.849C904.924 483.142 896.607 488.258 888.246 493.287C886.183 494.522 885.607 495.426 886.959 497.742C902.928 525.331 914.04 554.708 919.762 586.091C922.202 599.5 923.799 612.975 924.331 626.582C925.64 659.818 920.96 692.238 910.558 723.819C898.293 761.069 878.997 794.327 852.515 823.394C812.948 866.819 764.376 895.114 707.066 908.479C682.78 914.125 658.072 916.617 633.143 915.426C589.406 913.331 548.131 902.238 509.673 881.198C505.259 878.794 505.259 878.838 502.553 883.205C498.14 890.307 493.815 897.452 489.224 904.443C487.76 906.671 488.137 907.575 490.377 908.81C518.922 924.557 549.174 935.782 581.134 942.377C606.595 947.625 632.323 949.632 658.25 948.441C697.418 946.633 735.078 937.988 771.008 922.197C798 910.354 822.884 895.092 845.573 876.324C865.379 859.938 882.945 841.434 898.16 820.77C900.4 817.726 903.327 817.726 905.568 820.704C906.499 821.939 905.324 822.6 904.813 823.306C898.138 832.48 890.974 841.28 883.344 849.705C853.669 882.411 818.67 907.95 778.438 926.321C750.27 939.179 720.839 947.78 690.165 952.191C672.378 954.749 654.502 955.94 636.559 955.433C592.844 954.198 550.992 944.869 511.115 926.872C500.535 922.087 490.288 916.683 480.219 910.905C477.979 909.626 477.136 908.678 479.044 906.362C487.339 896.372 493.127 884.749 500.247 873.986C503.374 869.245 503.285 869.289 508.098 872.046C536.465 888.366 566.85 899.04 599.121 904.664C619.747 908.259 640.529 909.119 661.333 907.884C695.178 905.899 727.537 897.673 758.388 883.58C791.989 868.252 821.265 846.992 846.106 819.865C878.354 784.645 899.735 743.668 910.58 697.244C916.147 673.359 918.431 649.144 917.145 624.73C913.996 565.25 893.724 512.099 855.998 465.719C831.623 435.747 801.97 412.215 767.459 394.792C741.221 381.56 713.431 372.981 684.332 368.548C666.168 365.791 647.914 365.107 629.661 366.056C595.572 367.864 562.925 375.87 531.807 389.941C505.215 401.982 481.151 417.795 459.593 437.423C457.175 439.629 456.931 440.82 459.437 443.179C465.293 448.671 470.86 454.471 476.449 460.249C478.023 461.881 478.977 462.146 480.862 460.448C515.639 428.69 556.315 408.665 602.758 400.372C624.338 396.513 646.074 395.631 667.986 397.902C729.223 404.276 780.922 429.837 822.663 474.695C854.379 508.769 874.073 549.04 882.346 594.78C885.141 610.24 886.605 625.81 886.161 641.491C884.875 687.099 872.188 729.267 847.148 767.619C827.098 798.341 801.238 823.152 769.744 842.162C768.612 842.846 767.06 844.765 766.017 841.964C765.308 840.023 762.757 838.369 766.372 836.186C804.01 813.404 832.998 782.484 853.247 743.558C865.157 720.644 872.964 696.384 876.735 670.823C879.33 653.202 879.884 635.558 878.598 617.849C878.554 617.165 878.354 616.481 878.354 615.82C878.398 612.754 876.89 612.313 874.029 612.534C863.45 613.306 852.87 613.703 842.291 614.342C839.763 614.497 838.964 613.526 838.654 611.1C833.686 573.035 818.914 539.115 793.896 509.915C765.862 477.209 730.62 455.905 688.502 446.046C669.45 441.592 650.154 440.379 630.593 441.768C616.775 442.76 603.091 444.547 589.939 448.583C569.002 455.023 549.307 464.285 531.408 477.099C497.718 501.204 473.809 532.609 460.081 571.579C455.201 585.451 451.808 599.698 450.167 614.342C449.901 616.768 445.664 618.51 443.779 617.077C442.959 616.459 443.358 615.643 443.446 614.871C449.169 564.433 470.594 521.781 508.009 487.222C524.755 471.762 543.873 459.874 564.788 450.656C584.66 441.9 605.486 436.894 626.977 435.174C679.897 430.961 727.67 444.834 769.588 477.386C806.028 505.681 829.56 542.534 841.005 587.017C842.535 592.972 843.599 599.059 844.708 605.124C845.019 606.756 845.44 607.55 847.259 607.461C856.552 606.91 865.845 606.447 875.138 605.984C877.334 605.873 876.934 604.66 876.735 603.161C874.206 585.319 869.505 568.05 862.851 551.311C849.41 517.414 829.117 488.17 801.925 463.822C768.302 433.718 729.089 414.818 684.465 406.966C667.277 403.945 649.955 402.82 632.611 403.835C581.244 406.79 535.356 424.257 495.545 456.809C460.835 485.171 436.394 520.744 422.044 563.066C415.634 581.967 411.753 601.418 410.577 621.378C406.918 683.284 425.06 738.155 464.406 786.167C466.69 788.968 464.162 789.585 463.031 790.952C461.212 793.158 460.014 791.768 458.728 790.225C445.287 773.971 434.065 756.349 425.215 737.228C415.102 715.395 408.204 692.546 405.276 668.684C397.203 602.874 413.217 543.35 453.36 490.353C458.972 482.943 465.027 475.908 471.702 469.424C473.432 467.748 473.477 466.755 471.702 465.101C463.851 457.735 456.776 449.553 448.525 442.584C446.463 440.842 446.751 439.827 448.57 438.063C478.467 408.951 513.244 387.669 552.722 373.973C578.184 365.13 604.399 360.278 631.302 358.91C636.448 358.646 639.021 355.94 639.021 350.794C639.021 342.436 638.932 334.077 639.109 325.741C639.176 322.896 638.156 322.344 635.539 322.411C579.492 323.976 527.571 339.414 479.731 368.372C453.116 384.471 429.429 404.121 408.892 427.433C407.206 429.351 406.119 429.484 404.234 427.786C396.56 420.905 388.687 414.244 381.057 407.319C379.039 405.467 378.041 405.842 376.466 407.694C352.757 435.725 333.705 466.579 319.555 500.432C308.243 527.471 300.592 555.502 296.178 584.415C292.762 606.623 292.053 629.008 292.696 651.437C292.696 652.121 292.807 652.805 292.896 653.488C293.472 658.076 292.541 659.024 287.861 658.892C286.575 658.848 286.375 658.23 286.308 657.194C285.51 644.865 285.31 632.515 285.976 620.165C286.464 610.924 286.952 601.683 288.327 592.531C288.659 590.325 287.129 590.038 285.665 589.796C276.949 588.34 268.233 586.907 259.516 585.561C253.217 584.591 253.217 584.679 252.485 590.788C249.536 615.489 249.159 640.212 251.066 665.045C253.727 699.648 260.913 733.259 272.491 765.943C280.498 788.526 290.434 810.272 302.632 830.915C304.562 834.179 303.164 834.995 300.88 836.538C297.997 838.479 297.575 836.053 296.71 834.554C276.195 799.135 261.49 761.444 252.596 721.526C248.249 701.986 245.477 682.247 244.08 662.266C242.926 645.814 242.705 629.361 243.658 612.909C246.497 564.676 257.409 518.318 277.126 474.077C280.808 465.829 284.556 457.581 288.992 449.707C289.901 448.075 289.746 447.171 287.994 446.245C277.126 440.511 266.303 434.711 255.502 428.844C253.772 427.896 253.018 428.116 252.108 429.859C240.975 451.207 231.371 473.195 223.963 496.11C222.455 500.785 221.213 501.8 216.888 499.55C210.833 496.418 204.291 494.72 198.036 492.228C194.621 490.861 191.05 489.89 187.701 488.413C184.706 487.089 183.442 487.575 182.444 490.883C177.875 505.99 173.706 521.185 170.468 536.623C169.647 540.527 168.76 544.452 168.25 548.4C167.873 551.377 166.409 552.149 163.681 551.708C157.449 550.716 151.216 549.79 144.984 548.819C138.53 547.827 132.054 546.878 125.6 545.864C123.914 545.599 123.093 546.084 122.805 547.893C120.41 562.779 118.414 577.688 117.238 592.729C115.974 608.807 115.065 624.906 115.331 641.028C115.73 665.949 117.571 690.76 121.386 715.417C121.718 717.644 122.605 717.622 124.313 717.335C135.159 715.461 146.026 713.564 156.894 711.844C159.356 711.447 158.757 709.903 158.602 708.558C157.892 702.669 157.049 696.803 156.34 690.914C154.987 679.579 154.077 668.199 153.678 656.775C153.545 653.18 156.14 654.282 157.826 653.775C160.043 653.069 160.287 654.657 160.398 656.245C160.975 664.339 161.308 672.433 162.084 680.527C163.082 690.76 164.368 700.949 165.899 711.094C166.564 715.461 165.256 717.38 161.064 718.063C146.914 720.357 132.741 722.584 118.635 725.076C116.284 725.495 116.04 724.856 115.708 722.893C113.201 708.029 111.383 693.076 110.318 678.035C109.897 671.992 109.365 665.971 109.076 659.906C108.987 657.811 108.056 657.48 106.282 657.591C100.094 657.921 93.8836 658.12 87.6735 658.451C82.1731 658.759 76.6727 659.487 71.1723 659.487C67.7346 659.487 67.3354 660.832 67.4684 663.744C68.156 678.939 69.6863 694.024 71.6159 709.109C75.0093 735.662 80.3988 761.797 87.5404 787.578C100.826 835.546 120.055 881.044 145.228 924.05C147.69 928.262 147.668 928.152 144.252 930.026C142.145 931.195 141.147 930.666 139.972 928.659C106.348 871.384 83.2155 810.162 70.4848 745.058C66.3595 723.996 63.454 702.736 61.8572 681.321C60.7038 665.817 59.8167 650.291 59.8832 634.742L59.8389 634.853Z" fill="#E5B850"/>
<path d="M1085.06 636.463C1085.06 630.067 1085.24 623.649 1085 617.253C1084.82 612.82 1088.21 614.717 1090.05 614.188C1092.76 613.416 1091.92 615.82 1091.96 617.033C1094.64 696.626 1077.61 771.809 1040.44 842.383C1026.2 869.421 1009.21 894.651 989.648 918.183C988.096 920.058 988.14 920.852 990.136 922.307C1000.47 929.938 1010.63 937.789 1020.94 945.442C1023.29 947.184 1022.94 948.397 1021.28 950.294C1005.37 968.709 988.517 986.198 970.198 1002.28C942.563 1026.49 912.643 1047.44 880.328 1065.02C840.761 1086.54 798.998 1102.36 755.061 1112.41C734.235 1117.18 713.187 1120.53 691.896 1122.63C677.457 1124.04 662.996 1124.48 648.536 1124.94C646.207 1125.01 645.386 1125.56 645.364 1128.01C645.231 1138.28 644.965 1148.58 644.566 1158.86C644.455 1161.97 644.943 1164.99 645.209 1168.06C645.431 1170.66 644.499 1171.32 641.926 1171.32C627.776 1171.28 613.67 1170.46 599.587 1169.29C571.264 1166.93 543.363 1162.17 515.795 1155.38C500.181 1151.52 484.766 1146.95 469.596 1141.57C468.465 1141.17 465.581 1141.55 467.023 1138.84C467.999 1136.98 467.755 1133.59 471.925 1135.09C490.422 1141.75 509.34 1146.97 528.503 1151.34C549.107 1156.04 569.911 1159.46 590.959 1161.64C605.819 1163.18 620.723 1164.2 635.672 1164.44C638.4 1164.48 639.198 1163.73 639.243 1161.07C639.509 1150.11 639.908 1139.14 640.44 1128.18C640.551 1125.85 639.93 1124.92 637.535 1124.79C630.083 1124.39 622.609 1124.46 615.134 1124.02C589.052 1122.49 563.302 1118.83 537.818 1113.25C520.075 1109.37 502.642 1104.36 485.409 1098.7C481.949 1097.55 482.837 1095.92 483.369 1093.62C484.034 1090.67 485.698 1091.53 487.494 1092.15C514.708 1101.43 542.565 1108.27 570.998 1112.64C588.83 1115.37 606.773 1116.94 624.804 1117.8C640.352 1118.55 655.855 1118.39 671.358 1117.51C707 1115.48 742.042 1109.68 776.442 1099.98C842.07 1081.45 901.154 1050.51 953.785 1007.39C974.789 990.19 994.106 971.268 1011.87 950.757C1013.54 948.838 1012.96 948.111 1011.3 946.854C1002.76 940.436 994.262 933.974 985.878 927.402C983.926 925.858 982.862 926.277 981.398 927.975C973.946 936.554 966.117 944.781 957.977 952.698C922.934 986.838 883.3 1014.47 839.231 1035.91C802.125 1053.95 763.135 1066.14 722.591 1073.55C706.667 1076.47 690.609 1078.36 674.419 1079.4C662.597 1080.15 650.776 1080.74 638.932 1080.59C593.487 1079.99 549.085 1072.89 505.814 1059C448.614 1040.65 397.137 1012.05 351.515 973.186C309.774 937.613 275.685 895.82 249.403 847.764C246.719 842.846 244.124 837.862 241.618 832.833C240.775 831.157 240.065 830.738 238.247 831.598C229.153 835.987 220.016 840.332 210.811 844.522C208.46 845.581 208.549 846.617 209.569 848.646C221.102 871.737 234.144 893.923 249.336 914.809C251.488 917.764 249.802 918.404 248.072 919.992C245.699 922.175 244.812 920.477 243.658 918.845C217.975 882.676 197.482 843.816 182.356 802.178C176.323 785.615 171.266 768.766 167.163 751.652C166.897 750.527 164.613 748.211 167.962 747.682C170.268 747.329 172.863 745.565 173.906 750.042C179.716 775.029 187.9 799.289 197.925 822.909C199.944 827.651 202.139 832.304 204.091 837.068C204.912 839.075 205.71 839.538 207.839 838.501C216.6 834.201 225.405 829.988 234.321 825.996C237.027 824.783 237.249 823.681 236.051 821.189C227.357 802.862 220.193 783.939 214.249 764.553C207.041 741.022 201.807 717.071 198.613 692.679C195.685 670.316 194.31 647.865 194.709 625.325C194.754 622.855 194.177 622.017 191.56 621.841C179.983 621.113 168.427 620.054 156.85 619.304C154.255 619.15 153.656 618.334 153.678 615.82C153.789 607.572 154.721 599.389 155.231 591.185C155.453 587.546 158.247 589.421 159.955 589.09C162.173 588.671 162.306 590.171 162.173 591.825C161.685 597.978 161.241 604.131 160.798 610.284C160.687 611.762 160.709 612.909 162.816 613.041C172.331 613.636 181.846 614.298 191.338 615.092C194.177 615.335 195.22 614.739 195.353 611.519C196.373 586.951 199.944 562.691 205.023 538.63C205.888 534.572 208.505 536.976 210.412 536.976C213.14 536.976 212.031 538.961 211.743 540.174C206.42 564.544 203.248 589.178 202.073 614.122C198.835 683.151 211.543 749.16 239.489 812.367C251.465 839.472 266.237 864.988 283.425 889.16C285.089 891.498 286.065 892.115 288.682 890.218C299.416 882.367 310.706 875.266 321.285 867.172C324.567 864.658 324.9 864.79 327.295 868.385C331.177 874.207 335.79 879.478 340.048 885.014C341.734 887.197 342.821 887.837 345.238 885.499C352.069 878.883 359.211 872.575 366.33 866.245C368.016 864.746 367.972 863.775 366.574 862.055C330.733 818.167 306.735 768.545 294.271 713.41C294.005 712.197 292.12 709.749 295.291 709.462C297.442 709.286 300.126 707.83 301.058 712.02C308.51 745.851 320.908 777.852 337.853 808.111C339.361 810.801 340.47 811.286 343.198 809.544C349.652 805.376 356.305 801.494 362.959 797.657C365.155 796.4 365.443 795.319 364.179 793.092C348.498 765.678 337.209 736.567 330.29 705.801C326.142 687.386 323.658 668.772 322.793 649.894C320.886 608.277 327.051 567.896 340.913 528.639C349.408 504.578 360.719 481.885 374.825 460.602C375.557 459.5 375.956 456.61 378.418 458.684C380.037 460.051 383.076 460.646 380.636 464.285C365.887 486.406 354.376 510.136 345.837 535.3C339.25 554.73 334.592 574.578 331.931 594.934C329.868 610.615 328.892 626.34 329.292 642.108C330.622 693.517 343.508 741.882 368.504 786.938C386.802 819.932 410.378 848.668 439.055 873.259C440.874 874.802 441.717 874.869 443.247 872.972C449.102 865.76 455.068 858.659 461.146 851.646C462.809 849.727 462.365 848.69 460.68 847.235C422.798 814.418 395.784 774.346 379.438 727.127C371.343 703.75 366.597 679.711 365.022 655.076C361.806 604.771 371.698 557.067 394.254 511.966C400.619 499.241 408.005 487.111 416.322 475.577C417.231 474.32 417.941 471.784 420.425 473.967C422.199 475.533 424.839 476.283 422.354 479.723C402.46 507.225 388.443 537.505 380.015 570.322C375.135 589.311 372.452 608.608 371.786 628.214C370.212 674.55 380.126 718.372 400.996 759.702C416.655 790.71 437.769 817.616 463.874 840.685C466.18 842.714 467.4 843.155 469.64 840.42C476.294 832.26 483.369 824.431 490.178 816.425C492.041 814.242 493.793 814.727 495.39 816.381C501.356 822.534 508.542 827.077 515.595 831.775C528.437 840.332 542.121 847.301 556.382 853.189C558.777 854.182 559.687 853.829 560.596 851.381C563.768 842.802 567.139 834.289 570.577 825.82C571.375 823.835 570.954 823.129 569.024 822.335C541.655 811.308 517.702 795.209 497.475 773.816C470.15 744.903 452.895 710.829 445.687 671.793C445.066 668.419 444.467 665.045 443.979 661.67C443.802 660.369 442.914 658.252 445.532 658.539C447.372 658.737 450.211 656.73 450.766 660.81C454.802 691.245 465.182 719.453 482.748 744.683C514.863 790.82 558.822 819.226 614.668 827.761C672.866 836.671 725.208 821.894 770.498 784.49C806.894 754.431 828.807 715.549 837.323 669.235C837.878 666.214 838.499 663.148 838.654 660.083C838.831 656.377 841.338 657.105 843.556 657.127C846.882 657.127 845.663 659.641 845.463 661.119C842.757 681.188 837.456 700.53 828.94 718.923C808.979 762.061 777.551 794.349 735.012 815.785C711.901 827.452 687.282 834.112 661.422 836.208C634.009 838.435 607.261 835.259 581.156 826.724C578.539 825.864 577.652 826.438 576.765 828.863C573.682 837.222 570.466 845.559 567.028 853.785C565.963 856.321 566.584 857.049 568.98 857.821C586.501 863.511 604.377 867.458 622.764 869.179C649.689 871.693 676.215 869.642 702.386 862.981C710.393 860.952 718.4 858.769 726.051 855.637C729.156 854.358 729.4 856.343 730.265 858.196C731.241 860.313 730.775 861.305 728.491 862.143C707.887 869.664 686.661 874.273 664.771 876.082C624.693 879.412 586.235 873.104 549.285 857.468C530.233 849.418 512.579 839.008 496.321 826.261C493.97 824.409 492.773 824.475 490.865 826.79C476.383 844.257 461.744 861.592 447.173 878.993C442.227 884.925 442.293 884.925 436.305 879.853C410.511 858.041 388.598 832.899 370.833 804.251C369.524 802.156 368.593 802.068 366.597 803.303C359.788 807.559 352.89 811.683 345.926 815.697C343.819 816.91 343.597 817.881 344.861 819.932C356.039 837.862 368.593 854.755 382.765 870.458C409.979 900.606 441.406 925.505 477.225 944.847C480.02 946.368 480.53 950.007 478.201 952.213C477.004 953.338 476.072 952.014 475.207 951.529C460.835 943.788 447.04 935.143 433.821 925.549C412.086 909.758 392.324 891.872 374.736 871.605C373.25 869.906 372.341 869.906 370.677 871.472C363.469 878.199 356.15 884.837 348.787 891.387C347.301 892.71 347.323 893.504 348.609 894.938C361.739 909.692 375.89 923.41 391.06 936.113C393.477 938.142 393.056 941.98 390.239 943.347C389.019 943.942 388.576 942.862 387.955 942.355C368.349 926.167 350.45 908.259 334.304 888.653C331.021 884.683 327.761 880.669 324.723 876.523C323.392 874.714 322.549 874.935 320.908 876.082C311.327 882.808 301.723 889.491 292.009 896.041C289.99 897.408 290.19 898.246 291.498 899.966C309.264 923.3 329.269 944.582 351.315 963.946C382.455 991.271 416.832 1013.79 454.403 1031.43C490.023 1048.15 527.195 1060.04 566.03 1066.85C584.949 1070.16 603.956 1072.17 623.141 1073.16C642.703 1074.17 662.22 1073.56 681.716 1072.14C687.77 1071.7 693.803 1070.82 699.858 1070.2C701.477 1070.05 702.009 1069.41 701.788 1067.75C700.39 1056.9 698.993 1046.03 697.817 1035.16C697.44 1031.72 695.577 1031.54 692.938 1031.92C673.287 1034.65 653.526 1035.14 633.742 1034.65C598.079 1033.79 563.147 1028.15 528.991 1017.87C492.551 1006.91 458.373 991.116 426.391 970.584C426.014 970.341 425.593 970.099 425.238 969.812C423.996 968.797 421.467 968.467 423.53 965.842C425.149 963.791 425.947 961.983 429.252 964.166C473.566 993.013 521.849 1012.09 573.926 1021.57C593.487 1025.15 613.182 1027.15 633.099 1027.81C647.848 1028.3 662.553 1027.99 677.191 1026.82C706.8 1024.44 735.832 1018.75 764.177 1009.77C799.109 998.725 831.912 983.221 862.563 963.196C865.158 961.498 865.357 960.571 863.295 958.189C857.728 951.794 852.449 945.155 847.171 938.517C845.507 936.422 844.199 936.157 841.803 937.701C802.657 962.975 760.007 979.626 714.23 988.338C696.975 991.624 679.52 993.41 661.932 994.292C646.251 995.064 630.659 994.601 615.09 993.278C582.176 990.477 550.239 983.243 519.343 971.532C518.057 971.047 516.77 970.562 515.484 970.077C510.937 968.401 511.07 968.467 513.288 964.254C514.309 962.314 515.329 962.711 516.859 963.306C532.717 969.503 548.908 974.598 565.498 978.413C582.509 982.317 599.698 985.074 617.13 986.595C635.517 988.205 653.903 988.426 672.245 987.014C713.476 983.839 753.021 974.024 790.88 957.241C833.797 938.208 871.346 911.787 903.705 878.044C922.668 858.284 939.036 836.516 952.854 812.874C955.071 809.081 955.027 809.081 951.079 806.942C941.187 801.582 931.362 796.135 921.448 790.82C919.186 789.607 919.119 788.482 920.317 786.321C937.018 756.371 948.263 724.481 954.406 690.826C958.243 669.742 959.884 648.46 959.308 627.045C959.13 620.539 958.687 614.033 957.977 607.549C957.533 603.624 960.017 603.668 962.524 603.359C965.806 602.962 964.808 605.697 964.919 607.064C966.183 624.289 966.471 641.513 965.207 658.781C963.122 687.209 957.378 714.821 947.93 741.705C942.873 756.085 936.818 770.023 929.654 783.498C928.412 785.836 928.523 786.916 930.985 788.218C939.214 792.54 947.375 796.995 955.449 801.627C957.999 803.104 958.931 802.244 960.106 800.017C973.813 773.971 984.192 746.667 991.157 718.085C991.445 716.938 991.201 715.086 992.709 715.02C994.483 714.953 996.435 715.417 998.01 716.211C999.097 716.762 998.21 718.328 997.966 719.364C994.284 734.361 989.782 749.115 984.215 763.539C969.333 802.112 948.462 837.178 921.537 868.627C901.664 891.828 879.175 912.162 854.024 929.563C851.207 931.526 851.008 932.717 853.181 935.231C858.637 941.561 863.938 948.045 869.128 954.617C870.88 956.822 872.078 956.822 874.362 955.19C888.446 945.067 901.931 934.217 914.617 922.373C915.926 921.138 917.012 919.749 918.631 922.087C919.807 923.785 922.313 924.711 919.385 927.402C894.368 950.426 866.954 970.143 836.991 986.331C800.861 1005.85 762.624 1019.48 722.303 1027.4C716.67 1028.5 711.036 1029.53 705.358 1030.28C703.096 1030.57 702.431 1031.23 702.719 1033.46C703.828 1041.82 704.782 1050.22 705.824 1058.58C706.135 1061.07 706.8 1063.56 706.778 1066.03C706.778 1069.06 708.352 1068.99 710.504 1068.64C725.342 1066.19 740.091 1063.26 754.662 1059.51C780.434 1052.89 805.252 1043.67 829.45 1032.67C880.594 1009.38 925.374 977.2 964.054 936.709C1007.26 891.475 1039.31 839.339 1060.24 780.521C1070.62 751.365 1077.81 721.437 1081.78 690.738C1084.11 672.698 1085.37 654.591 1085.15 636.396L1085.06 636.463Z" fill="#E5B850"/>
<path d="M717.934 153.034C737.584 156.078 755.438 159.783 773.071 164.546C830.581 180.095 883.544 205.126 931.916 239.773C948.639 251.749 964.497 264.761 979.646 278.655C982.839 281.588 986.543 283.904 989.471 287.168C991.689 289.616 991.711 291.513 989.36 293.916C981.376 302.143 973.569 310.545 965.606 318.794C964.032 320.426 962.923 322.455 961.082 323.91C959.13 325.454 957.888 325.608 955.958 323.646C942.851 310.281 928.701 298.063 913.863 286.639C877.933 259.005 838.654 237.436 796.048 221.777C768.812 211.765 740.822 204.619 712.189 200.01C682.004 195.18 651.596 193.768 621.122 195.224C582.398 197.076 544.538 204.001 507.632 215.999C499.803 218.535 499.781 218.513 496.987 210.926C493.793 202.237 490.377 193.614 487.427 184.836C486.296 181.462 485.032 181.065 481.794 182.212C431.736 200.186 385.737 225.416 343.952 258.233C334.015 266.04 324.412 274.2 315.119 282.757C314.121 283.683 313.012 285.889 311.504 283.375C310.483 281.698 307.29 280.574 310.483 277.663C331.554 258.453 353.999 241.008 378.018 225.615C411.398 204.2 446.884 187.086 484.433 174.14C488.98 172.574 489.18 172.464 490.532 177.206C493.416 187.218 497.741 196.702 500.957 206.582C501.955 209.603 503.108 210.419 506.28 209.361C524.378 203.318 542.897 198.819 561.683 195.4C577.164 192.577 592.733 190.593 608.414 189.335C622.187 188.211 635.96 187.968 649.755 188.056C682.758 188.255 715.25 192.467 747.321 200.076C812.283 215.492 870.88 243.986 923.2 285.249C935.088 294.622 946.555 304.547 957.223 315.309C959.086 317.184 960.062 317.095 961.769 315.221C968.445 307.965 975.254 300.819 982.13 293.762C983.638 292.196 983.505 291.358 981.997 289.947C954.827 264.783 925.862 241.979 893.902 223.078C846.372 194.937 795.627 175.044 741.377 164.15C733.836 162.628 726.273 161.349 718.688 160.092C716.98 159.805 715.827 159.143 716.558 157.555C717.268 156.012 716.004 152.902 717.889 153.056L717.934 153.034Z" fill="#E5B850"/>
<path d="M651.53 242.266C590.582 242.266 538.683 253.138 488.892 274.178C486.518 275.17 485.809 276.008 487.117 278.611C491.376 287.102 495.434 295.703 499.36 304.326C500.403 306.62 501.334 307.017 503.707 305.98C532.917 293.255 563.391 284.874 594.907 280.243C616.687 277.045 638.6 275.898 660.579 276.78C698.372 278.302 735.123 285.293 770.609 298.438C771.718 298.835 774.291 298.636 772.871 300.996C771.829 302.738 772.228 306.355 767.992 304.767C745.68 296.365 722.569 290.895 699.038 287.19C675.439 283.485 651.641 282.537 627.865 283.816C583.374 286.198 540.702 296.541 500.136 315.022C497.675 316.147 496.876 315.552 495.856 313.346C490.999 302.738 485.897 292.24 481.062 281.632C479.865 279.008 478.734 278.699 476.183 279.912C450.012 292.284 425.482 307.281 402.571 324.925C400.02 326.888 396.516 325.586 395.962 322.388C395.673 320.801 397.292 320.404 398.18 319.698C410.422 310.17 423.197 301.415 436.483 293.409C471.747 272.193 509.385 256.623 549.462 246.919C570.688 241.78 592.201 238.406 614.003 236.73C628.464 235.627 642.947 235.142 657.43 235.627C708.264 237.369 757.124 247.956 803.878 268.003C814.546 272.59 824.925 277.751 835.283 283C839.12 284.94 839.12 285.051 836.747 288.623C830.47 298.085 825.724 308.406 820.024 318.198C818.804 320.271 820.09 320.712 821.466 321.462C837.59 330.328 852.938 340.385 867.554 351.566C868.197 352.051 868.84 352.537 869.461 353.044C874.407 356.992 874.274 356.859 869.771 361.535C862.297 369.32 856.375 378.384 849.522 386.677C847.969 388.551 849.855 389.323 850.897 390.183C861.033 398.674 870.592 407.76 879.619 417.376C884.166 422.206 888.38 427.367 892.838 432.285C894.412 434.027 895.011 435.24 892.638 436.85C890.686 438.195 889.489 439.21 887.426 436.695C866.932 411.686 842.935 390.492 815.766 372.871C812.971 371.062 810.154 369.298 807.271 367.6C803.678 365.482 807.426 364.049 807.781 362.373C808.203 360.322 809.467 360.917 810.842 361.755C821.155 367.997 831.136 374.745 840.673 382.133C842.624 383.655 843.489 383.479 844.931 381.56C850.453 374.238 856.087 367.004 861.876 359.903C863.539 357.852 863.384 356.903 861.343 355.382C846.262 344.068 830.492 333.813 813.703 325.167C810.886 323.712 809.955 322.344 811.552 319.455C815.566 312.266 819.469 305.032 823.417 297.798C824.792 295.284 826.012 292.659 827.587 290.3C829.073 288.094 828.563 287.168 826.278 286.021C806.872 276.229 786.866 267.848 766.129 261.276C741.887 253.601 717.18 248.11 691.874 245.133C676.215 243.302 660.535 242.199 651.552 242.332L651.53 242.266Z" fill="#E5B850"/>
<path d="M1278.46 634.963C1278.91 653.974 1277.6 674.859 1275.54 695.678C1272.32 728.208 1266.53 760.319 1258.32 791.989C1257.84 793.886 1257.24 795.187 1254.91 794.172C1253.16 793.4 1250.45 793.996 1251.49 790.269C1257.37 768.898 1261.65 747.153 1264.96 725.253C1266.89 712.505 1268.26 699.692 1269.46 686.834C1271.08 669.742 1271.72 652.606 1271.81 635.47C1271.88 620.275 1271.45 605.079 1270.28 589.906C1269.08 574.424 1267.51 558.986 1265.29 543.614C1261.54 517.48 1256.11 491.699 1249.01 466.248C1231.18 402.291 1203.81 342.634 1167.04 287.256C1142.42 250.183 1114.12 216.109 1082.13 185.123C1033.05 137.574 977.694 98.869 915.97 69.2061C902.729 62.8325 889.267 56.8999 875.582 51.5407C872.965 50.5262 872.144 46.4682 874.185 44.4834C875.316 43.3806 876.381 44.4834 877.334 44.8583C893.126 51.1658 908.695 57.9805 923.954 65.479C973.48 89.8489 1019.12 120.041 1060.73 156.21C1114.56 202.987 1159.23 257.262 1194.74 318.948C1225.1 371.658 1247.26 427.609 1261.36 486.714C1267.2 511.173 1271.57 535.873 1274.4 560.861C1277.13 584.856 1278.68 608.895 1278.44 634.963H1278.46Z" fill="#E5B850"/>
<path d="M594.153 6.30752C594.597 8.40267 593.244 8.8217 591.381 8.93198C575.101 9.94647 558.933 12.0416 542.853 14.5999C513 19.3636 483.613 26.1784 454.736 35.1544C396.405 53.283 341.845 79.2629 291.077 113.05C248.228 141.566 209.592 174.934 174.97 212.911C153.457 236.509 133.984 261.673 116.24 288.182C114.688 290.498 114.666 291.557 117.128 293.145C128.749 300.555 140.282 308.075 151.727 315.75C154.255 317.448 155.098 316.456 156.406 314.493C180.559 278.06 208.483 244.736 240.132 214.543C268.943 187.064 300.282 162.782 334.082 141.676C335.258 140.948 336.677 139.405 337.542 141.897C338.141 143.661 341.357 145.249 337.764 147.477C314.299 162.01 292.075 178.242 271.005 196.018C248.338 215.161 227.268 235.87 207.795 258.233C190.917 277.618 175.392 298.041 161.286 319.521C160.532 320.668 159.844 321.859 159.223 323.072C157.515 326.424 156.429 326.799 153.013 324.704C148.533 321.925 144.164 318.97 139.728 316.081C129.925 309.663 120.122 303.268 110.341 296.85C106.171 294.115 105.705 291.954 108.456 287.741C136.49 244.868 169.315 205.964 206.842 171.03C254.194 126.944 307.135 90.8413 365.554 62.8104C415.701 38.7493 468.199 21.6793 522.87 11.2256C544.627 7.07942 566.607 4.27854 588.675 2.22749C593.421 1.78641 594.087 2.29366 594.175 6.37369L594.153 6.30752Z" fill="#E5B850"/>
<path d="M646.872 100.942C723.257 101.361 796.47 116.579 866.289 147.609C916.746 170.038 962.612 199.502 1003.98 235.958C1044.03 271.267 1077.94 311.648 1105.87 357.036C1106.75 358.491 1108.24 359.925 1105.47 360.983C1103.54 361.711 1101.99 363.939 1099.9 360.542C1075.26 320.095 1045.43 283.794 1010.79 251.44C957.378 201.531 896.164 164.172 827.232 139.339C793.853 127.319 759.608 118.806 724.543 113.535C706.711 110.867 688.769 109.257 670.737 108.419C658.317 107.845 645.896 107.647 633.476 107.977C601.272 108.816 569.379 112.521 537.818 119.005C535.201 119.534 534.891 120.482 535.556 122.908C538.439 133.494 541.167 144.124 543.784 154.754C544.361 157.136 545.492 157.622 547.666 157.158C561.594 154.181 575.678 152.174 589.806 150.542C598.123 149.572 606.484 148.91 614.846 148.381C628.508 147.499 642.193 147.322 655.877 147.653C663.795 147.851 671.713 148.535 679.631 148.844C681.693 148.932 681.959 149.506 682.248 151.557C682.802 155.659 681.339 155.637 677.856 155.416C658.339 154.181 638.799 154.005 619.26 154.997C606.529 155.659 593.842 156.872 581.2 158.46C568.314 160.07 555.562 162.385 542.875 165.054C540.613 165.517 539.881 165.208 539.57 162.87C537.597 147.763 532.451 133.406 529.102 118.63C528.17 114.528 528.57 114.042 532.651 113.138C547.799 109.83 563.058 107.228 578.428 105.287C589.251 103.919 600.097 102.817 610.987 102.199C622.919 101.538 634.851 100.832 646.828 100.898L646.872 100.942Z" fill="#E5B850"/>
<path d="M651.175 52.8417C726.872 53.4371 799.619 68.3899 869.638 96.8619C873.12 98.2733 871.678 99.9495 871.08 102.111C870.281 105.022 868.684 104.03 866.954 103.302C830.581 88.2166 792.987 77.0131 754.307 69.6249C732.771 65.5008 711.058 62.5896 689.145 61.0458C672.733 59.899 656.321 59.0389 639.886 59.2595C559.731 60.4063 482.881 76.8146 409.601 109.278C397.824 114.483 386.247 120.085 374.869 126.084C373.405 126.856 371.942 127.958 371.121 125.444C370.5 123.57 367.994 121.827 371.653 119.953C394.254 108.33 417.364 97.9205 441.184 89.0767C475.939 76.175 511.625 66.7358 548.176 60.6048C566.518 57.5172 584.971 55.2015 603.557 54.1649C609.412 53.8341 615.245 53.3048 621.1 53.0181C622.897 52.9299 623.473 52.2903 623.407 50.526C622.897 35.463 622.542 20.3779 621.943 5.29281C621.744 0.0439033 621.499 0.110066 626.889 0.0659576C642.192 -0.0663677 657.474 -0.13253 672.755 0.727584C693.16 1.8744 713.498 3.74901 733.747 6.66017C763.223 10.8946 792.233 17.2462 820.844 25.4724C821.51 25.6709 822.175 25.8473 822.818 26.0458C826.145 27.0383 827.254 30.1479 825.236 32.9488C824.238 34.3382 823.084 33.2134 822.131 32.9488C809.799 29.3319 797.357 26.0238 784.826 23.1347C763.467 18.2166 741.909 14.4012 720.129 11.6665C690.543 7.93931 660.867 6.50579 631.059 6.8366C627.976 6.88071 627.222 7.63055 627.355 10.652C627.976 23.8845 628.397 37.1391 628.752 50.3937C628.819 52.4447 629.617 52.8637 631.436 52.8417C638.001 52.7535 644.543 52.8196 651.108 52.8196L651.175 52.8417Z" fill="#E5B850"/>
<path d="M501.689 126.172C501.955 128.444 500.203 128.333 498.983 128.686C487.073 132.149 475.274 135.942 463.63 140.221C407.251 160.908 355.773 190.085 309.353 228.085C259.272 269.083 218.042 317.515 185.705 373.422C171.133 398.63 158.779 424.919 148.511 452.178C147.978 453.567 148.777 457.36 144.851 455.839C140.548 454.184 140.504 454.184 142.123 449.884C161.397 398.52 187.856 351.125 221.679 307.833C258.629 260.548 302.366 220.542 352.823 187.836C397.425 158.923 445.332 137.089 496.454 122.269C500.624 121.056 501.578 121.805 501.689 126.172V126.172Z" fill="#E5B850"/>
<path d="M641.705 1265.96C614.757 1266.31 587.943 1264.43 561.262 1261.02C501.778 1253.43 444.445 1237.88 389.397 1214.17C359.167 1201.16 330.09 1185.97 302.256 1168.43C299.461 1166.67 299.461 1163.14 302.256 1161.31C303.498 1160.49 304.163 1161.64 304.939 1162.15C325.033 1174.65 345.66 1186.19 366.996 1196.46C417.431 1220.77 470.195 1238.1 525.243 1248.49C546.224 1252.46 567.383 1255.17 588.675 1257.07C615.312 1259.45 641.971 1259.74 668.63 1258.79C692.606 1257.95 716.515 1255.61 740.202 1251.6C748.009 1250.28 755.816 1248.95 763.579 1247.45C767.482 1246.7 766.661 1249.97 767.438 1251.73C768.524 1254.25 766.129 1253.91 764.954 1254.13C743.75 1258.21 722.436 1261.35 700.923 1263.29C681.206 1265.05 661.489 1266.15 641.705 1265.93V1265.96Z" fill="#E5B850"/>
<path d="M272.181 1140.71C271.205 1142.3 270.495 1144.26 269.098 1145.47C268.1 1146.33 266.946 1144.59 265.993 1143.91C227.534 1115.88 192.669 1084.01 161.397 1048.19C123.626 1004.94 92.3534 957.484 67.4464 905.855C59.5285 889.468 52.3869 872.751 46.0659 855.703C44.4468 851.337 44.469 851.337 40.011 853.035C28.3005 857.468 16.5457 861.746 4.94607 866.422C1.46396 867.811 1.5305 865.518 0.554627 863.665C-0.753933 861.195 0.621163 860.6 2.59509 859.872C14.5496 855.439 26.4375 850.852 38.392 846.463C41.12 845.47 42.0959 844.566 40.9426 841.39C36.1519 828.29 32.0931 814.947 28.3449 801.516C27.8791 799.84 27.1472 798.142 29.8974 797.789C31.9822 797.502 34.0449 795.959 35.0651 799.73C45.9772 839.78 61.0811 878.243 79.8667 915.294C102.179 959.27 129.326 1000.07 161.33 1037.67C193.578 1075.54 229.819 1109.13 270.096 1138.44C270.894 1139.03 271.914 1139.48 272.225 1140.73L272.181 1140.71Z" fill="#E5B850"/>
<path d="M5.32296 638.359C5.32296 606.513 6.9642 580.312 10.2911 554.222C18.0759 493.353 34.2 434.733 59.0848 378.539C65.8051 363.365 73.0576 348.457 80.9755 333.879C81.5743 332.776 81.7074 330.063 84.1693 331.96C85.8327 333.239 89.1152 333.305 86.9638 337.275C62.1455 383.324 43.3156 431.689 30.7179 482.414C24.6852 506.696 20.0498 531.242 17.0335 556.075C15.0374 572.527 13.6844 589.002 12.8416 605.543C12.0432 621.201 12.021 636.882 12.4646 652.518C13.0634 673.403 14.7712 694.222 17.6101 714.953C19.0961 725.804 20.7152 736.633 22.8 747.395C23.5984 751.519 20.3381 750.284 18.6525 751.122C16.1685 752.357 16.4568 750.306 16.1907 748.939C13.2409 733.7 11.0895 718.35 9.31518 702.934C6.63152 679.645 5.50039 656.267 5.30078 638.359H5.32296Z" fill="#E5B850"/>
<path d="M898.581 109.83C899.602 110.315 900.422 110.712 901.265 111.131C947.73 133.627 990.447 161.746 1029.46 195.444C1056.87 219.131 1081.82 245.155 1104.4 273.45C1105.38 274.685 1107 275.964 1104.58 277.221C1102.89 278.104 1101.61 280.971 1099.04 277.729C1055.21 222.615 1002.91 177.051 942.318 140.926C927.813 132.281 912.909 124.364 897.739 116.976C896.785 116.512 894.789 116.402 895.787 114.528C896.63 112.94 896.741 110.8 898.604 109.83H898.581Z" fill="#E5B850"/>
<path d="M465.537 230.864C465.648 232.474 464.184 232.496 463.253 232.893C453.383 237.281 443.691 242.001 434.176 247.095C404.19 263.151 376.422 282.382 350.894 304.789C331.887 321.484 314.432 339.635 298.64 359.373C296.955 361.469 295.89 361.005 294.249 359.638C292.563 358.249 291.21 357.389 293.273 354.874C308.554 336.217 325.033 318.706 343.021 302.606C366.597 281.5 392.147 263.085 419.649 247.36C432.601 239.95 445.909 233.179 459.549 227.092C463.053 225.526 465.205 226.894 465.537 230.886V230.864Z" fill="#E5B850"/>
<path d="M1223.9 623.032C1223.44 600.161 1221.4 575.505 1217.78 550.959C1213.37 521.097 1206.63 491.787 1197.51 463.006C1196.49 459.808 1198.42 459.786 1200.28 458.97C1202.52 458 1203.39 458.529 1204.14 460.889C1212.46 487.398 1218.85 514.349 1223.26 541.784C1227.07 565.47 1229.51 589.289 1230.33 613.262C1230.6 621.135 1230.56 629.03 1230.89 636.904C1231.02 640.256 1229.11 639.815 1227.01 639.969C1224.61 640.146 1223.75 639.374 1223.86 636.926C1224.04 632.934 1223.9 628.92 1223.9 623.01V623.032Z" fill="#E5B850"/>
<path d="M870.969 304.679C872.122 305.407 872.899 305.87 873.653 306.399C904.77 327.814 932.272 353.132 956.314 382.177C957.778 383.942 958.554 385.089 956.136 386.743C954.185 388.088 952.965 389.213 950.902 386.632C938.038 370.599 923.689 355.955 908.341 342.237C896.187 331.365 883.323 321.374 869.927 312.067C869.062 311.472 867.221 311.163 868.197 309.354C869.04 307.789 870.015 306.289 870.969 304.679Z" fill="#E5B850"/>
<path d="M1285.43 854.711C1271.65 849.572 1257.84 844.566 1244.11 839.317C1237.05 836.627 1237.14 836.428 1235.15 843.441C1234.99 843.993 1234.81 844.544 1234.61 845.073C1220.15 884.992 1201.81 923.079 1179.63 959.336C1178.5 961.211 1177.77 961.63 1175.73 960.395C1166.13 954.551 1156.5 948.684 1146.65 943.259C1143.3 941.406 1143.73 940.083 1145.37 937.414C1167.19 902.128 1184.71 864.812 1198.4 825.688C1209.35 794.327 1217.51 762.26 1222.97 729.509C1225.63 713.52 1227.7 697.442 1228.83 681.255C1229.03 678.299 1228.05 677.66 1225.28 677.506C1212.44 676.8 1199.59 675.763 1186.75 675.035C1184.02 674.881 1183.65 673.889 1183.76 671.485C1184.45 656.311 1185.09 641.138 1184.76 625.899C1184.22 601.529 1182.12 577.335 1178.37 553.274C1174.55 528.64 1168.9 504.424 1161.69 480.539C1160.98 478.157 1160.14 477.474 1157.59 478.356C1155.17 479.172 1154.11 479.679 1155.04 482.701C1170.12 531.617 1177.59 581.724 1178.15 632.846C1178.32 648.284 1177.44 663.678 1176.26 679.093C1174.84 697.443 1172.31 715.615 1168.97 733.7C1166.06 749.314 1162.27 764.73 1158.05 780.036C1157.79 780.984 1156.9 782.263 1157.9 782.858C1159.32 783.741 1161.11 784.071 1162.84 783.961C1164.64 783.851 1164.48 782.241 1164.8 781.138C1173.58 749.843 1179.77 718.041 1182.45 685.644C1182.69 682.666 1183.58 681.453 1186.82 681.718C1197.24 682.578 1207.67 683.306 1218.11 683.725C1221.35 683.857 1222.02 684.894 1221.64 687.761C1220.49 696.472 1219.51 705.206 1218.36 713.917C1213.83 747.969 1205.89 781.271 1195.18 813.911C1183.58 849.22 1168.54 883.051 1150.38 915.493C1138.56 936.598 1125.38 956.844 1111.01 976.318C1109.86 977.884 1109.06 978.193 1107.51 976.936C1105.29 975.127 1102.89 973.517 1100.63 971.775C1093 965.931 1084.82 960.836 1077.7 954.308C1074.08 950.978 1072.77 951.375 1070 955.389C1069.03 956.8 1067.98 958.167 1066.94 959.535C1047.82 984.103 1026.64 1006.77 1003.51 1027.68C967.358 1060.34 927.414 1087.47 883.743 1109.13C843.023 1129.33 800.351 1144.04 755.815 1153.35C736.586 1157.36 717.202 1160.34 697.662 1162.19C687.437 1163.16 689.123 1161.99 690.21 1170.9C690.254 1171.37 690.254 1171.81 690.276 1172.27C690.698 1182.77 691.119 1193.27 691.518 1203.79C691.696 1208.5 691.674 1208.59 687.083 1208.81C673.199 1209.48 659.314 1210.47 645.386 1210.29C622.852 1210.11 600.385 1208.88 577.984 1206.28C553.787 1203.45 529.856 1199.13 506.213 1193.33C452.052 1180.03 400.974 1159.21 352.823 1131.25C308.177 1105.31 267.833 1073.91 231.659 1037.14C209.658 1014.76 189.652 990.764 171.443 965.247C169.913 963.086 170.179 962.247 172.353 960.924C182.045 955.014 191.693 948.993 201.23 942.818C203.625 941.252 204.668 941.561 206.287 943.876C222.366 966.791 240.154 988.36 259.76 1008.41C277.57 1026.62 296.4 1043.72 316.716 1059.2C349.341 1084.05 384.162 1105.27 421.467 1122.45C423.685 1123.46 424.506 1122.91 425.171 1120.86C427.256 1114.44 430.272 1108.4 433.022 1102.25C436.638 1094.22 440.763 1086.43 443.957 1078.23C444.91 1075.76 444.156 1074.97 442.027 1073.97C434.131 1070.27 426.258 1066.54 418.539 1062.48C364.733 1034.25 317.869 997.314 278.102 951.529C275.485 948.508 274.554 951.485 272.934 952.235C270.717 953.271 271.448 954.528 272.713 955.896C277.681 961.299 282.494 966.835 287.55 972.15C314.187 1000.07 343.641 1024.66 376.111 1045.61C395.229 1057.96 414.902 1069.3 435.684 1078.65C438.168 1079.77 437.081 1081.01 436.46 1082.38C431.98 1092.15 427.345 1101.85 423.042 1111.71C421.844 1114.44 420.868 1114.58 418.34 1113.36C382.144 1096.03 348.099 1075.32 316.782 1050.22C298.329 1035.42 280.608 1019.83 264.129 1002.85C228.599 966.217 199.012 925.351 175.347 880.25C155.43 842.273 140.371 802.465 130.412 760.804C129.459 756.79 127.618 757.452 124.868 757.937C121.097 758.621 123.315 761.003 123.648 762.392C126.775 775.625 130.501 788.703 134.737 801.627C150.152 848.514 171.466 892.578 199.212 933.511C200.919 936.025 200.698 937.128 198.103 938.716C187.124 945.398 176.256 952.279 165.389 959.138C161.707 961.454 161.463 962.755 163.903 966.239C194.022 1009.44 229.353 1047.97 269.94 1081.65C314.21 1118.37 362.826 1148.1 415.922 1170.48C488.137 1200.94 563.501 1216.25 641.882 1217C657.518 1217.15 673.132 1216.4 688.746 1215.28C706.977 1213.97 725.075 1211.81 743.084 1208.77C773.935 1203.59 804.21 1196 833.819 1185.88C835.77 1185.22 836.768 1185.22 837.545 1187.55C841.337 1198.82 845.285 1210.03 849.322 1221.21C850.12 1223.44 849.81 1224.32 847.459 1225.11C835.46 1229.08 823.461 1233.05 811.218 1236.21C807.492 1237.18 808.779 1239.16 809.089 1241.28C809.488 1243.99 811.196 1243.37 812.926 1242.87C819.757 1240.84 826.61 1238.94 833.397 1236.8C875.848 1223.44 916.524 1206.03 955.249 1184.16C994.882 1161.77 1031.81 1135.66 1065.79 1105.42C1089.68 1084.19 1111.83 1061.31 1132.28 1036.79C1159.96 1003.55 1183.94 967.893 1204.32 929.828C1218.34 903.649 1230.36 876.611 1240.47 848.712C1241.31 846.397 1242.11 845.801 1244.62 846.75C1257.37 851.624 1270.21 856.321 1283.05 861.041C1284.07 861.416 1285.52 862.54 1286.16 861.592C1287.16 860.159 1287.73 858.262 1287.93 856.497C1288.09 855.108 1286.38 855.064 1285.36 854.689L1285.43 854.711ZM1172.71 970.363C1157.19 994.336 1140.22 1017.23 1121.64 1038.93C1100.43 1063.72 1077.41 1086.7 1052.57 1107.92C1003.09 1150.19 948.329 1183.98 888.312 1209.39C878.465 1213.56 868.507 1217.37 858.548 1221.21C856.131 1222.13 855 1221.91 854.09 1219.2C850.519 1208.46 846.682 1197.81 842.89 1187.16C841.958 1184.58 841.759 1181.84 840.694 1179.26C839.829 1177.23 839.053 1176.9 836.946 1177.63C823.195 1182.48 809.244 1186.74 795.138 1190.49C767.925 1197.72 740.356 1203.12 712.367 1206.21C708.153 1206.67 703.916 1207.05 699.702 1207.58C697.795 1207.8 697.063 1207.27 696.997 1205.24C696.664 1195.65 696.176 1186.08 695.821 1178.18C695.799 1168.9 695.821 1169.18 703.65 1168.41C721.593 1166.62 739.381 1163.8 757.013 1160.12C804.52 1150.19 849.876 1134.23 893.036 1112.13C931.628 1092.37 967.314 1068.26 1000.12 1039.94C1026.95 1016.77 1051.13 991.116 1072.82 963.152C1074.24 961.321 1075.06 961.299 1076.86 962.644C1085.37 969.062 1093.96 975.414 1102.65 981.589C1105.07 983.309 1104.96 984.39 1103.25 986.595C1082.76 1012.86 1060.16 1037.19 1035.47 1059.64C989.781 1101.19 938.592 1134.42 882.169 1159.74C878.531 1161.37 878.066 1163.07 879.995 1166.62C881.06 1168.61 882.258 1167.15 883.145 1166.76C892.327 1162.52 901.553 1158.38 910.558 1153.83C941.564 1138.13 970.996 1119.89 998.719 1098.96C1053.68 1057.48 1099.88 1007.92 1137.32 950.294C1139.09 947.581 1140.24 947.096 1143.1 948.883C1152.46 954.683 1161.98 960.241 1171.52 965.754C1173.78 967.055 1174.27 967.982 1172.71 970.385V970.363Z" fill="#E5B850"/>
</g>
<defs>
<clipPath id="clip0_626_7">
<rect width="1288" height="1266" fill="white"/>
</clipPath>
</defs>
</svg>
