<svg width="589" height="1175" viewBox="0 0 589 1175" fill="none" xmlns="http://www.w3.org/2000/svg">
<g clip-path="url(#clip0_496_50)">
<path d="M314.273 809.264C282.264 853.889 242.728 890.286 195.398 918.175C188.739 922.092 181.972 925.806 175.083 929.29C174.408 929.633 173.28 931.017 172.772 929.365C172.366 928.072 170.278 926.549 173.117 925.129C191.547 915.882 209.057 905.083 225.671 892.875C244.109 879.313 261.243 864.285 276.949 847.613C284.731 839.351 292.138 830.787 299.198 821.904C305.195 814.362 310.626 806.434 316.234 798.633C317.217 797.253 317.182 796.547 315.699 795.634C308.878 791.423 302.099 787.151 295.351 782.812C294.095 782.008 293.619 782.601 293.052 783.524C290.153 788.325 286.651 792.714 283.312 797.202C269.067 816.403 252.861 833.776 235.02 849.646C231.296 852.963 227.443 856.135 223.616 859.344C222.938 859.918 222.102 861.043 221.361 859.441C220.849 858.323 218.65 857.51 220.781 855.801C227.626 850.314 234.198 844.508 240.563 838.464C242.875 836.274 242.844 836.342 240.601 834.207C235.852 829.678 231.099 825.128 226.475 820.473C225.241 819.236 224.513 819.327 223.361 820.443C213.618 829.871 203.172 838.476 192.247 846.471C175.342 858.812 157.402 869.485 138.425 878.343C119.572 887.127 100.063 894.065 79.8743 899.138C77.1633 899.825 74.3892 900.324 71.7037 901.1C69.8766 901.627 69.5463 900.783 69.2523 899.283C68.9653 897.824 68.9099 896.996 70.7778 896.587C85.6826 893.397 100.221 888.961 114.478 883.536C139.782 873.895 163.479 861.228 185.641 845.657C187.028 844.691 187.441 844.035 186.322 842.485C182.745 837.518 179.288 832.457 175.86 827.381C175.05 826.178 174.488 826.01 173.228 826.924C153.369 841.123 132.13 852.78 109.389 861.665C108.565 861.992 107.314 863.396 106.713 861.372C106.276 859.896 104.95 858.36 107.812 857.387C113.764 855.369 119.409 852.577 125.147 850.03C126.539 849.408 126.908 848.864 126.156 847.379C122.576 840.277 119.065 833.152 115.641 825.981C114.942 824.497 114.253 824.634 113.04 825.205C98.9682 831.855 84.4192 837.162 69.3985 841.219C59.8846 843.784 50.258 845.802 40.5067 847.266C39.7211 847.388 38.2729 848.238 38.3893 846.439C38.4656 845.149 36.8406 843.203 39.9168 842.759C59.4008 839.908 78.2878 834.75 96.5762 827.463C127.579 815.105 155.225 797.47 179.439 774.487C182.076 771.991 184.588 769.37 187.202 766.857C188.003 766.084 187.937 765.624 187.158 764.855C182.264 760.025 177.407 755.169 172.567 750.289C171.699 749.419 171.143 749.597 170.339 750.423C152.614 768.722 132.41 783.733 109.842 795.52C92.9236 804.356 75.1961 811.056 56.6478 815.613C32.6383 821.497 8.31151 823.624 -16.3445 821.985C-19.0245 821.798 -19.9923 820.212 -18.9212 817.802C-18.4948 816.851 -17.7338 817.393 -17.1635 817.422C-6.87984 818.131 3.40808 818.179 13.6951 817.598C25.5892 816.926 37.3308 815.159 49.0088 812.827C50.317 812.575 50.8323 812.153 50.4553 810.72C49.0495 805.219 47.6726 799.704 46.4297 794.176C46.0626 792.552 45.152 793.051 44.2426 793.246C34.3004 795.38 24.2502 796.685 14.1006 797.273C-21.2506 799.329 -55.0483 793.063 -87.2469 778.31C-98.5429 773.135 -109.262 766.972 -119.486 759.889C-144.202 742.756 -164.312 721.32 -179.97 695.669C-180.36 695.033 -181.369 694.261 -180.576 693.499C-179.728 692.686 -178.614 692.028 -177.501 691.673C-176.846 691.458 -176.609 692.559 -176.286 693.112C-169.948 703.54 -162.79 713.369 -154.737 722.545C-145.822 732.675 -136.157 741.978 -125.332 750.08C-124.002 751.081 -122.714 752.141 -121.447 753.205C-120.499 753.988 -119.825 753.947 -119.054 752.865C-115.129 747.378 -111.177 741.929 -107.166 736.522C-106.176 735.183 -106.312 734.441 -107.665 733.423C-122.974 721.878 -136.517 708.559 -147.734 692.954C-162.703 672.149 -172.978 649.256 -178.462 624.217C-181.908 608.445 -183.308 592.516 -182.457 576.398C-182.354 574.392 -182.879 573.82 -184.874 573.727C-192.204 573.401 -199.524 572.885 -206.846 572.421C-210.348 572.205 -210.61 571.642 -210.051 568.239C-209.371 564.063 -209.09 559.818 -208.486 555.623C-206.082 538.531 -201.553 522.003 -195.067 506.024C-193.914 503.171 -193.919 503.203 -196.721 501.979C-201.976 499.671 -207.249 497.386 -212.457 494.986C-214.159 494.205 -215.065 494.169 -215.882 496.222C-221.22 509.683 -225.522 523.452 -228.456 537.639C-233.771 563.449 -234.764 589.432 -231.233 615.554C-230.889 618.166 -232.758 617.318 -233.89 617.75C-235.406 618.319 -235.614 617.454 -235.779 616.225C-238.408 596.159 -238.516 576.077 -236.072 555.985C-233.109 531.69 -226.511 508.407 -216.348 486.157C-211.756 476.108 -206.589 466.361 -200.463 457.154C-199.115 455.126 -199.464 453.402 -201.511 451.98C-205.852 448.942 -210.211 445.928 -214.511 442.831C-215.747 441.95 -216.365 442.138 -217.163 443.434C-221.24 450.067 -225.298 456.696 -228.966 463.585C-235.627 476.085 -241.205 489.053 -245.756 502.465C-252.857 523.436 -257.197 544.958 -258.771 567.05C-258.873 568.376 -259.116 569.045 -260.713 569.073C-266.639 569.191 -272.474 568.174 -278.341 567.832C-281.354 567.659 -284.388 567.416 -287.386 567.02C-288.81 566.83 -289.186 567.208 -289.266 568.603C-289.834 578.738 -290.026 588.873 -289.558 599.012C-289.472 600.704 -292.026 602.327 -293.575 601.583C-294.281 601.241 -294.036 600.519 -294.067 599.959C-294.706 584.573 -294.236 569.241 -292.495 553.935C-291.25 543.027 -289.522 532.194 -286.951 521.512C-286.474 519.558 -286.921 518.953 -288.904 518.616C-295.084 517.532 -301.243 516.265 -307.38 514.943C-309.086 514.57 -309.854 514.794 -310.274 516.718C-316.2 543.94 -318.642 571.454 -317.4 599.281C-317.176 604.352 -316.838 609.414 -316.399 614.459C-316.275 615.946 -316.555 616.642 -318.066 616.499C-319.225 616.39 -320.721 617.333 -320.95 614.911C-322.683 595.25 -322.688 575.6 -320.922 555.957C-320.534 551.662 -320.041 547.371 -319.439 543.103C-319.192 541.397 -319.541 540.754 -321.347 540.472C-330.09 539.086 -338.809 537.538 -347.529 536.043C-350.817 535.477 -350.861 535.463 -350.3 532.26C-349.279 526.372 -348.283 520.467 -347.142 514.611C-346.837 513 -347.299 512.492 -348.813 512.202C-356.017 510.819 -363.203 509.359 -370.379 507.834C-371.856 507.518 -372.453 507.702 -372.795 509.34C-376.72 528.594 -379.164 548.006 -380.118 567.618C-380.234 569.919 -382.074 570.993 -384.161 569.973C-385.119 569.506 -384.65 568.621 -384.625 567.957C-384.124 556.986 -383.143 546.069 -381.708 535.17C-380.488 525.857 -378.902 516.608 -376.969 507.426C-376.856 506.915 -376.779 506.378 -376.783 505.856C-376.809 502.772 -376.043 502.098 -372.975 502.723C-363.627 504.594 -354.284 506.497 -344.949 508.411C-341.62 509.097 -341.342 509.814 -342.147 513.059C-343.56 518.793 -344.43 524.645 -345.399 530.461C-345.633 531.872 -344.844 531.896 -343.897 532.051C-335.987 533.399 -328.083 534.707 -320.188 536.152C-318.46 536.468 -318.365 535.604 -318.164 534.367C-315.578 518.05 -311.74 502.015 -306.68 486.277C-301.158 469.11 -294.265 452.508 -285.952 436.505C-277.976 421.176 -268.95 406.487 -258.598 392.653C-232.112 357.27 -199.934 328.235 -161.757 305.928C-159.859 304.823 -157.992 303.661 -156.03 302.692C-154.714 302.052 -154.703 301.432 -155.331 300.25C-159.135 293.186 -162.91 286.106 -166.607 278.992C-167.288 277.683 -167.831 277.69 -169.006 278.359C-175.796 282.182 -182.552 286.083 -189.038 290.41C-191.288 291.909 -191.513 289.884 -192.409 288.978C-193.658 287.712 -192.508 287.204 -191.611 286.624C-173.615 275.042 -154.724 265.172 -134.923 257.044C-134.258 256.765 -133.362 255.808 -132.719 256.768C-132.052 257.744 -131.559 258.938 -131.375 260.09C-131.285 260.693 -132.383 260.825 -132.998 261.086C-142.658 265.088 -152.084 269.543 -161.414 274.265C-163.113 275.116 -163.292 275.796 -162.375 277.452C-158.762 284.005 -155.231 290.623 -151.869 297.302C-150.892 299.252 -150.123 299.531 -148.2 298.516C-135.637 291.795 -122.561 286.192 -109.188 281.303C-106.959 280.488 -105.329 281.469 -104.955 283.814C-104.767 285.06 -105.879 284.86 -106.44 285.069C-114.038 287.887 -121.564 290.881 -128.95 294.208C-161.535 308.864 -190.91 328.297 -216.965 352.783C-226.999 362.219 -236.383 372.226 -245.134 382.88C-254.478 394.242 -262.958 406.201 -270.661 418.73C-287.775 446.59 -300.197 476.392 -308.2 508.067C-308.644 509.848 -308.143 510.277 -306.605 510.583C-300.146 511.83 -293.675 513.086 -287.244 514.474C-285.615 514.828 -285.184 514.274 -284.828 512.843C-279.667 492.533 -272.216 473.084 -262.922 454.32C-262.658 453.773 -262.291 453.282 -262.015 452.743C-260.606 450.035 -260.64 450.083 -258.164 451.739C-257.02 452.499 -257.225 453.088 -257.751 454.13C-273.151 484.339 -283.074 516.243 -287.451 549.873C-287.915 553.468 -288.173 557.102 -288.637 560.698C-288.793 561.949 -288.565 562.434 -287.207 562.541C-279.739 563.126 -272.267 563.732 -264.816 564.466C-262.781 564.679 -263.026 563.411 -262.925 562.264C-261.733 548.736 -259.494 535.399 -256.211 522.232C-251.376 502.783 -244.443 484.112 -235.355 466.241C-228.722 453.2 -221.229 440.664 -212.478 428.953C-177.594 382.252 -132.348 350.118 -76.6856 332.75C-71.5642 331.145 -66.3287 329.907 -61.1442 328.49C-60.1637 328.221 -59.0373 327.822 -59.0962 329.465C-59.1455 330.666 -57.4531 332.266 -60.1998 332.927C-83.6021 338.562 -105.811 347.253 -126.783 359.064C-148.538 371.321 -168.113 386.404 -185.566 404.27C-195.267 414.194 -204.086 424.818 -212.132 436.118C-213.326 437.795 -213.366 438.681 -211.503 439.739C-206.621 442.497 -202.179 445.948 -197.604 449.187C-196.439 450.017 -195.78 450.073 -194.906 448.796C-188.885 439.962 -182.029 431.794 -174.929 423.836C-174.523 423.391 -173.985 423.038 -173.662 422.534C-172.297 420.44 -171.225 420.899 -169.75 422.577C-168.752 423.717 -168.962 424.213 -169.845 425.126C-180.32 436.112 -189.473 448.111 -197.575 460.949C-203.031 469.593 -207.79 478.592 -212.175 487.82C-213.024 489.617 -212.586 490.234 -210.962 490.924C-204.773 493.557 -198.636 496.313 -192.48 498.993C-188.878 500.554 -188.444 501.455 -189.86 505.054C-192.713 512.307 -195.446 519.593 -197.666 527.064C-201.439 539.812 -203.85 552.812 -205.275 566.012C-205.437 567.473 -205.223 568.128 -203.495 568.193C-197.074 568.463 -190.65 568.879 -184.236 569.359C-182.656 569.48 -182 569.213 -181.836 567.447C-179.802 546.471 -174.478 526.385 -165.494 507.275C-161.652 499.112 -157.333 491.235 -152.393 483.692C-140.331 465.268 -125.372 449.57 -107.666 436.508C-86.7854 421.1 -63.6681 410.53 -38.3073 404.963C-0.417076 396.648 36.4908 399.93 72.3499 414.601C87.5388 420.828 101.743 428.916 114.651 439.075C137.295 456.903 155.164 478.643 167.703 504.672C169.147 507.654 169.164 507.63 172.291 506.308C177.385 504.163 182.448 501.96 187.594 499.942C189.234 499.3 189.379 498.668 188.653 497.147C179.396 477.757 167.488 460.153 152.885 444.396C141.25 431.845 128.227 420.94 113.869 411.685C92.1748 397.707 68.6637 387.992 43.336 382.792C24.3164 378.875 5.1137 377.606 -14.2584 379.066C-31.1701 380.343 -47.6938 383.616 -63.787 388.953C-66.1568 389.739 -67.7264 388.621 -67.784 386.16C-67.8091 385.139 -66.9248 385.231 -66.3803 385.045C-59.2778 382.645 -52.0576 380.634 -44.7317 379.003C-16.2611 372.693 12.3107 372.28 40.9363 377.731C60.9757 381.55 80.0583 388.147 98.1976 397.478C108.717 402.889 118.758 409.071 128.183 416.195C151.146 433.55 170.002 454.559 184.471 479.488C188.305 486.108 191.724 492.934 194.903 499.895C195.613 501.44 195.701 502.273 193.789 502.794C185.505 505.015 177.938 509.074 169.988 512.16C166.49 513.524 166.555 513.534 165.033 510.21C156.092 490.578 143.9 473.221 128.758 457.868C119.08 448.055 108.269 439.658 96.6406 432.382C77.7325 420.531 57.2243 412.614 35.2718 408.437C11.3705 403.876 -12.4904 404.166 -36.2259 409.313C-67.0414 415.997 -94.2409 429.935 -117.884 450.832C-130.041 461.589 -140.566 473.777 -149.252 487.435C-170.406 520.717 -179.949 557.121 -177.534 596.538C-175.976 622.008 -169.114 646.02 -157.303 668.592C-148.317 685.745 -136.712 700.981 -122.814 714.481C-114.134 722.902 -104.61 730.239 -94.4593 736.696C-75.4883 748.735 -54.9102 756.881 -32.8234 761.172C-13.9416 764.829 5.03285 765.488 24.1289 763.132C26.272 762.865 26.8601 762.316 26.4227 760.087C25.3924 754.89 24.6352 749.636 23.8577 744.386C23.6401 742.905 23.2305 742.398 21.5676 742.594C-9.2738 746.446 -38.7724 741.717 -66.8568 728.459C-79.909 722.302 -91.901 714.48 -102.777 704.89C-133.161 678.074 -151.062 644.552 -156.214 604.423C-160.133 573.938 -155.227 544.7 -142.096 516.873C-137.657 507.468 -132.463 498.511 -126.203 490.224C-107.998 466.117 -85.0028 448.218 -56.8492 437.093C-34.3016 428.178 -10.9083 424.67 13.2777 426.44C14.1467 426.503 15.7159 426.061 15.1992 427.969C14.8344 429.287 15.5667 431.153 12.7899 430.95C-16.1383 428.868 -43.5542 434.478 -69.3595 447.741C-84.5449 455.553 -98.0471 465.656 -109.885 478.003C-118.043 486.516 -125.116 495.82 -131.228 505.862C-131.466 506.248 -131.622 506.693 -131.876 507.049C-133.077 508.686 -132.438 509.499 -130.819 510.473C-124.851 514.095 -119.026 517.92 -113.109 521.614C-111.694 522.496 -111.638 523.324 -112.403 524.751C-124.358 547.177 -129.465 571.11 -127.266 596.409C-124.796 624.751 -114.082 649.696 -95.2872 671.092C-86.7836 680.768 -76.9042 688.788 -65.8827 695.507C-58.0935 700.247 -50.0706 704.508 -41.4693 707.352C-27.771 711.872 -13.6546 714.395 0.862342 714.317C28.1821 714.178 53.0614 706.368 75.3877 690.591C83.331 684.972 90.6217 678.584 97.1254 671.313C98.1998 670.106 101.14 670.784 101.6 672.276C101.803 672.923 101.276 673.21 100.932 673.593C78.4939 698.611 50.627 713.436 17.295 717.79C2.38004 719.736 -12.4352 718.848 -27.1887 715.835C-41.2055 712.971 -54.2938 707.72 -66.4769 700.444C-96.4667 682.513 -116.753 656.793 -126.726 623.234C-135.396 594.062 -133.86 565.202 -122.913 536.842C-121.446 533.046 -119.68 529.357 -117.945 525.663C-117.485 524.664 -117.406 524.075 -118.415 523.428C-123.609 520.178 -128.769 516.88 -133.929 513.582C-135.149 512.803 -135.401 513.61 -135.869 514.495C-141.366 525.083 -145.477 536.191 -148.338 547.759C-154.149 571.172 -154.5 594.692 -149.272 618.204C-142.806 647.276 -129.041 672.439 -108.131 693.71C-100.076 701.901 -91.2209 709.121 -81.5325 715.195C-52.8579 733.211 -21.5473 741.309 12.2982 738.951C41.7996 736.906 68.565 727.051 92.5116 709.704C103.207 701.957 112.758 692.948 121.053 682.632C146.789 650.642 158.134 614.122 155.478 573.207C155.329 570.824 156.921 571.456 158.053 571.151C159.875 570.656 159.984 571.862 160.08 573.186C161.044 587.083 160.294 600.871 157.695 614.562C154.733 630.199 149.656 645.155 142.062 659.142C121.117 697.717 89.6724 723.707 47.7972 736.964C41.943 738.819 35.995 740.301 29.9257 741.25C28.3545 741.493 27.9496 742.012 28.2657 743.581C29.6463 750.551 30.2973 757.665 32.0444 764.574C32.4812 766.301 31.937 766.738 30.2844 766.995C3.07537 771.282 -23.743 769.484 -50.1687 761.799C-67.2159 756.848 -83.1344 749.457 -98.0834 739.924C-100.944 738.102 -103.362 738.579 -105.338 741.354C-108.548 745.862 -111.711 750.404 -115.007 754.832C-116.136 756.341 -115.8 757.028 -114.372 757.992C-83.7216 778.544 -49.956 790.039 -13.1864 792.685C7.26564 794.163 27.5117 792.608 47.4751 787.876C49.1157 787.485 49.7492 787.828 50.1078 789.464C51.5796 796.104 53.2431 802.702 54.6742 809.35C55.0448 811.119 55.7239 811.298 57.2796 810.9C80.756 804.834 102.819 795.467 123.407 782.611C139.855 772.346 154.722 760.15 168.192 746.241C178.552 735.567 187.529 723.765 195.798 711.423C196.06 711.054 196.264 710.643 196.478 710.24C197.931 707.546 198.795 707.39 201.253 709.248C201.926 709.763 201.795 710.173 201.433 710.757C197.127 717.711 192.491 724.448 187.391 730.855C183.581 735.652 179.77 740.45 175.518 744.861C174.493 745.923 175.203 746.662 175.895 747.352C180.009 751.465 184.132 755.565 188.288 759.619C191.293 762.547 191.327 762.499 194.065 759.484C205.132 747.288 214.829 734.098 223.343 719.977C235.205 700.298 244.26 679.428 250.605 657.38C254.985 642.144 258.009 626.622 259.396 610.832C259.615 608.335 260.677 608.429 262.495 608.468C264.786 608.522 264.081 609.991 263.968 611.13C261.365 638.065 254.775 664.006 244.213 688.931C239.04 701.129 232.946 712.833 226.022 724.143C220.322 733.456 214.122 742.414 207.293 750.923C187.248 775.853 163.594 796.689 136.033 813.022C130.892 816.065 125.714 819.083 120.313 821.636C119.198 822.169 118.934 822.716 119.518 823.884C123.142 831.126 126.718 838.386 130.256 845.673C130.819 846.845 131.308 847.014 132.465 846.422C146.633 839.158 160.226 830.966 172.997 821.435C175.601 819.49 176.657 819.417 178.112 822.281C180.155 826.281 183.011 829.695 185.407 833.427C186.713 835.468 188.255 837.355 189.483 839.43C190.58 841.287 191.444 841.508 193.25 840.105C201.501 833.701 209.572 827.098 217.237 820.008C219.176 818.216 221.159 816.437 222.949 814.503C224.294 813.041 225.376 813.184 226.669 814.463C229.629 817.378 232.615 820.256 235.583 823.159C238.663 826.158 241.771 829.142 244.841 832.153C245.643 832.939 246.27 832.991 247.119 832.126C254.12 825.011 260.916 817.733 267.322 810.069C274.174 801.881 280.844 793.545 286.893 784.749C296.25 771.156 304.791 757.071 312.215 742.317C312.892 740.989 312.408 740.662 311.382 740.165C304.847 737.035 298.292 733.909 291.805 730.688C290.333 729.962 290.061 731.024 289.627 731.808C287.747 735.255 285.945 738.741 284.065 742.188C280.437 748.818 276.554 755.303 272.381 761.616C271.071 763.606 270.104 762.021 269.005 761.651C267.545 761.185 268.024 760.235 268.574 759.336C271.374 754.751 274.304 750.259 276.996 745.597C280.39 739.697 283.614 733.711 286.689 727.655C288.009 725.046 289.448 724.511 291.958 725.742C300.425 729.907 308.879 734.116 317.399 738.157C318.82 738.829 318.705 739.267 318.13 740.452C313.765 749.426 308.998 758.185 303.792 766.703C301.698 770.123 299.671 773.574 297.496 776.955C296.739 778.119 297.112 778.653 298.105 779.271C301.55 781.454 304.956 783.718 308.412 785.911C311.48 787.844 314.708 789.551 317.657 791.651C319.5 792.964 320.231 792.39 321.278 790.769C326.745 782.312 331.717 773.592 336.476 764.719C344.854 749.103 352.001 732.95 358.073 716.319C369.371 685.377 376.535 653.498 379.554 620.693C379.852 617.481 379.821 617.549 382.372 617.842C383.951 618.016 384.283 618.683 384.142 620.214C380.174 663.94 369.064 705.79 350.888 745.763C345.011 758.697 338.404 771.273 331.036 783.432C325.701 792.234 320.214 800.946 314.207 809.306L314.273 809.264Z" fill="#E5B850"/>
<path d="M-234.773 417.002C-237.23 420.452 -239.789 423.845 -242.115 427.388C-243.722 429.846 -244.813 427.528 -246.003 427.111C-247.75 426.494 -246.375 425.519 -245.933 424.848C-216.805 380.896 -178.8 346.851 -131.768 322.979C-113.75 313.833 -94.9528 306.711 -75.4278 301.488C-73.8755 301.069 -73.5944 300.624 -74.1056 299.077C-76.7163 291.016 -79.1473 282.904 -81.7377 274.839C-82.3291 273.002 -81.673 272.483 -80.0528 272.095C-64.4548 268.234 -48.7012 265.237 -32.7049 263.56C-8.58902 261.05 15.4981 261.172 39.5736 264.029C69.0536 267.525 97.5172 274.94 124.935 286.29C137.931 291.671 150.503 297.899 162.723 304.897C171.006 309.648 178.928 314.931 186.859 320.202C188.133 321.055 188.785 321.071 189.737 319.759C193.755 314.267 197.853 308.814 202.014 303.423C203.267 301.789 204.166 299.973 205.201 298.218C206.081 296.73 206.835 296.728 208.214 297.711C215.784 303.137 223.033 308.962 230.135 314.969C244.414 327.054 257.543 340.275 269.715 354.463C276.604 362.505 283.115 370.852 289.182 379.546C289.636 380.192 291.326 381.09 289.511 382.003C288.277 382.63 287.103 384.555 285.444 382.154C278.084 371.5 269.948 361.459 261.352 351.788C252.109 341.389 242.268 331.603 231.822 322.39C224.447 315.884 216.846 309.647 208.925 303.809C207.479 302.744 206.763 302.844 205.715 304.266C201.362 310.076 196.939 315.835 192.444 321.544C191.487 322.762 191.464 323.499 192.698 324.484C196.541 327.544 200.573 330.361 204.411 333.453C217.811 344.231 230.21 356.035 241.73 368.774C249.753 377.641 257.176 386.996 264.239 396.632C265.654 398.571 264.551 399.113 263.385 400.146C261.893 401.486 261.332 400.387 260.606 399.369C249.581 383.972 237.272 369.65 223.704 356.44C215.194 348.157 206.175 340.463 196.838 333.115C188.791 326.775 180.419 320.94 171.769 315.497C151.881 302.985 130.865 292.735 108.696 284.836C66.3956 269.773 22.835 263.905 -21.9406 267.066C-39.8077 268.325 -57.4317 271.156 -74.8331 275.436C-76.4618 275.835 -76.4321 276.448 -76.0231 277.761C-73.9097 284.482 -71.8369 291.21 -69.8661 297.955C-69.4125 299.533 -68.6808 299.714 -67.2438 299.356C-59.9538 297.574 -52.597 296.127 -45.1925 294.964C-13.2937 289.929 18.568 290.156 50.4279 295.419C77.2498 299.855 102.838 308.163 127.421 319.644C137.076 324.153 146.414 329.261 155.492 334.883C162.118 338.991 168.685 343.183 174.976 347.788C199.112 365.458 220.19 386.239 238.054 410.252C261.674 441.985 278.289 477.064 287.825 515.439C296.543 550.56 298.769 586.114 294.405 622.066C293.955 625.743 293.432 629.422 292.845 633.091C292.653 634.316 292.873 634.813 294.178 635.044C300.739 636.148 307.307 637.293 313.851 638.547C315.518 638.874 315.868 638.281 316.1 636.797C318.785 619.941 320.313 602.996 320.188 585.932C320.17 583.517 321.319 583.816 322.856 583.62C324.967 583.348 324.791 584.603 324.782 585.923C324.662 615.235 320.726 644.017 312.845 672.248C309.719 683.484 305.959 694.502 301.587 705.298C301.298 706.007 301.633 708.128 299.634 707.135C298.262 706.444 296.193 706.405 297.354 703.593C303.834 687.898 308.763 671.689 312.459 655.123C313.198 651.795 313.808 648.448 314.591 645.133C314.922 643.738 314.671 643.183 313.132 642.929C306.783 641.904 300.445 640.814 294.132 639.563C292.215 639.185 291.673 639.695 291.358 641.496C288.981 654.699 285.555 667.64 281.297 680.364C276.124 695.808 269.733 710.723 262.078 725.098C255.059 738.276 247.174 750.91 238.304 762.914C237.332 764.229 237.319 764.901 238.655 765.995C244.582 770.808 250.371 775.79 256.29 780.614C257.622 781.688 257.63 782.357 256.653 783.704C253.425 788.111 249.784 792.168 246.36 796.398C244.843 798.276 244.065 796.198 243.022 795.724C241.672 795.104 242.177 794.244 242.883 793.403C245.508 790.27 248.109 787.121 250.71 783.972C251.337 783.217 251.765 782.59 250.686 781.715C245.814 777.761 240.966 773.772 236.182 769.72C234.753 768.505 233.966 768.428 232.658 770.114C222.676 782.975 211.445 794.696 199.481 805.734C197.459 807.592 196.979 805.296 195.956 804.568C194.494 803.527 195.851 802.88 196.471 802.336C208.684 791.224 219.845 779.149 230.054 766.145C258.3 730.152 276.836 689.7 286.127 644.941C290.115 625.751 291.995 606.35 292.062 586.751C292.068 584.856 291.782 584.15 289.65 584.174C280.88 584.31 272.1 583.83 263.319 584.157C260.594 584.26 260.466 584.061 260.563 581.208C260.718 576.586 260.269 571.982 260.111 567.371C260.046 565.55 259.709 564.79 257.515 565.128C251.312 566.088 245.061 566.764 238.813 567.46C237.333 567.625 236.984 568.165 237.073 569.626C239.434 606.979 233.244 642.903 218.753 677.398C218.43 678.154 218.5 680.194 216.69 679.138C215.469 678.412 213.471 678.172 214.581 675.557C223.578 654.465 229.22 632.473 231.755 609.685C231.98 607.658 231.572 606.973 229.44 606.872C224.379 606.656 219.321 606.209 214.28 605.739C212.62 605.578 212.05 606.051 211.873 607.735C209.752 628.506 204.625 648.517 196.52 667.751C191.671 679.266 185.855 690.254 179.069 700.766C164.109 723.939 145.296 743.364 122.788 759.244C108.993 768.978 94.2137 776.899 78.4779 782.992C77.662 783.307 76.3384 784.713 75.8147 782.655C75.4717 781.3 74.0713 779.818 76.7768 778.787C93.1794 772.488 108.464 764.084 122.706 753.772C133.699 745.808 143.819 736.881 153.063 726.918C160.191 719.249 166.753 711.14 172.595 702.483C191.624 674.249 203.289 643.245 207.191 609.402C210.051 584.623 208.447 560.124 202.515 535.913C202.133 534.387 201.707 534.029 200.158 534.468C194.249 536.122 188.323 537.674 182.372 539.137C180.743 539.537 180.583 540.265 180.928 541.694C188.635 573.854 187.729 605.78 178.359 637.486C173.722 653.185 167.035 667.962 158.418 681.849C140.823 710.208 117.2 732.159 87.7869 747.873C79.4872 752.306 70.8692 756.028 61.9805 759.074C61.0102 759.405 59.6557 760.501 59.1624 758.376C58.8124 756.854 57.6854 755.442 60.3384 754.534C81.5663 747.297 100.71 736.317 117.831 721.836C127.74 713.457 136.589 704.074 144.476 693.754C163.114 669.365 174.628 641.946 179.311 611.688C182.824 588.986 181.836 566.414 176.7 544.007C176.242 542.032 175.758 541.328 173.506 541.948C166.805 543.809 160.005 545.331 153.28 547.049C151.443 547.515 150.69 546.585 150.469 545.083C149.633 539.487 147.525 534.293 145.548 529.067C141.949 519.549 137.289 510.567 131.904 501.946C131.001 500.497 130.378 500.34 128.951 501.313C123.956 504.729 118.879 508.033 113.783 511.288C112.593 512.054 112.548 512.596 113.278 513.76C123.716 530.156 130.376 547.984 133.005 567.243C136.551 593.268 132.717 618.233 121.59 642.038C120.628 644.095 119.653 646.143 118.619 648.15C118.214 648.919 117.877 650.4 116.584 649.246C115.673 648.436 113.38 648.435 114.65 646.022C124.173 628.067 129.441 608.891 129.712 588.578C130.213 551.434 117.553 519.332 90.8892 493.409C63.1088 466.386 29.3713 454.373 -9.27468 457.256C-40.3319 459.574 -67.0122 472.178 -89.3644 493.905C-90.822 495.323 -92.3323 496.739 -93.5928 498.333C-95.1108 500.264 -96.175 498.914 -97.3556 498.056C-99.1393 496.786 -97.5198 495.896 -96.8453 495.175C-87.6873 485.384 -77.4175 476.976 -65.7877 470.307C-38.5192 454.662 -9.27014 449.247 21.7693 453.925C38.6402 456.456 54.3971 462.262 69.0667 471.005C84.6195 480.269 97.7405 492.193 108.459 506.762C109.531 508.225 110.227 508.254 111.635 507.285C116.497 503.954 121.423 500.685 126.425 497.561C127.97 496.599 127.917 495.97 126.929 494.639C119.72 484.881 111.652 475.928 102.455 467.981C88.9846 456.346 73.9752 447.325 57.386 440.926C52.3141 438.964 47.1829 437.085 41.8779 435.852C39.7219 435.357 40.3533 434.193 40.601 432.864C40.8909 431.35 41.5217 430.992 43.0684 431.412C57.0033 435.222 70.1531 440.839 82.5841 448.221C105.35 461.725 123.547 479.809 137.353 502.348C144.476 513.963 149.943 526.317 153.764 539.399C154.313 541.295 154.981 541.717 156.893 541.196C171.365 537.305 185.87 533.544 200.365 529.722C205.295 528.411 205.26 528.385 206.522 533.407C211.975 555.018 214.068 576.943 212.591 599.176C212.488 600.806 212.954 601.209 214.498 601.305C219.783 601.609 225.065 602.018 230.34 602.512C231.936 602.662 232.428 602.223 232.537 600.634C233.43 586.697 233.187 572.793 231.619 558.914C228.607 532.265 221.319 506.838 209.543 482.732C208.629 480.844 209.753 478.687 211.849 478.387C212.923 478.237 212.914 479.307 213.192 479.899C217.924 489.56 222 499.489 225.403 509.71C230.992 526.524 234.718 543.715 236.364 561.36C236.509 562.843 236.996 563.191 238.49 562.981C244.937 562.105 251.411 561.319 257.874 560.597C259.179 560.451 259.472 560.014 259.333 558.75C257.959 545.78 255.641 532.98 252.386 520.337C251.869 518.32 253.569 516.411 255.604 516.749C256.487 516.894 256.309 517.646 256.448 518.156C260.743 534.372 263.461 550.863 264.589 567.601C264.824 570.996 265.031 574.405 265.067 577.801C265.086 579.285 265.623 579.487 266.943 579.495C274.663 579.525 282.379 579.588 290.102 579.764C291.709 579.797 291.924 579.268 291.883 577.841C291.319 558.475 288.767 539.359 284.383 520.499C278.182 493.874 268.398 468.606 255.031 444.747C242.353 422.133 226.989 401.531 208.785 383.029C199.912 374.023 190.492 365.684 180.588 357.825C170.489 349.81 159.788 342.691 148.794 336.01C145.378 333.936 141.805 332.109 138.322 330.131C137.394 329.596 136.863 329.738 136.347 330.714C132.929 337.1 129.503 343.497 125.957 349.81C124.838 351.81 125.769 352.616 127.328 353.421C138.914 359.448 149.695 366.731 160.116 374.545C178.906 388.624 195.467 405.005 209.832 423.587C225.16 443.41 237.42 464.974 246.681 488.258C246.79 488.533 246.923 488.824 247.003 489.114C247.28 490.136 248.508 491.279 246.394 491.907C244.739 492.396 243.616 493.066 242.683 490.627C230.003 458.152 211.442 429.43 187.164 404.434C178.048 395.04 168.259 386.438 157.835 378.478C150.114 372.586 142.112 367.138 133.815 362.181C117.025 352.162 99.2748 344.147 80.6309 338.167C57.6592 330.79 34.1182 326.629 9.99441 325.728C7.95096 325.653 7.48826 326.076 7.67941 328.148C8.20789 333.723 8.48861 339.319 8.76936 344.914C8.85658 346.679 9.45653 347.321 11.3336 347.403C42.0275 348.717 71.2885 356.018 99.1772 368.796C109.69 373.611 119.735 379.312 129.503 385.55C138.206 391.12 146.388 397.322 154.227 403.98C170.798 418.056 185.143 434.15 197.21 452.261C197.714 453.013 198.217 453.766 198.72 454.519C200.514 457.159 200.468 457.072 197.661 458.497C196.369 459.155 195.975 458.551 195.383 457.646C189.261 448.249 182.537 439.321 175.107 430.929C167.486 422.33 159.329 414.281 150.567 406.805C141.328 398.918 131.555 391.779 121.179 385.538C97.8537 371.511 72.883 361.707 46.1396 356.305C15.8211 350.186 -14.457 350.101 -44.7645 355.946C-62.5201 359.364 -79.6552 364.855 -96.1427 372.331C-98.7886 373.53 -98.7648 373.547 -97.4698 376.208C-94.2244 382.875 -91.0487 389.564 -87.7745 396.215C-87.0275 397.733 -87.4238 398.365 -88.8959 399.073C-109.352 408.85 -127.627 421.757 -143.846 437.562C-154 447.469 -163.053 458.32 -170.968 470.09C-173.371 473.667 -175.632 477.345 -177.741 481.113C-179.011 483.399 -180.326 482.427 -181.788 481.637C-183.701 480.598 -182.115 479.504 -181.649 478.724C-175.713 468.952 -169.252 459.552 -161.943 450.722C-149.908 436.185 -136.224 423.487 -120.834 412.594C-112.601 406.769 -104.002 401.564 -94.9861 397.031C-93.4224 396.244 -93.0669 395.619 -93.8871 393.978C-96.6387 388.505 -99.3037 382.986 -101.853 377.406C-102.653 375.636 -103.483 375.744 -104.969 376.497C-122.32 385.311 -138.37 396.074 -153.081 408.831C-153.676 409.339 -154.256 410.431 -155.09 409.891C-156.067 409.25 -156.936 408.255 -157.475 407.225C-157.846 406.513 -156.769 406.007 -156.24 405.541C-148.507 398.859 -140.427 392.62 -131.903 386.966C-109.111 371.844 -84.4548 360.9 -57.9415 354.217C-38.3771 349.291 -18.5106 346.91 1.65636 347.127C3.92034 347.143 4.4847 346.577 4.28491 344.392C3.79047 338.895 3.43858 333.374 3.18 327.849C3.08756 325.99 2.44541 325.533 0.593861 325.541C-10.8445 325.624 -22.2413 326.328 -33.5911 327.872C-34.767 328.039 -35.8832 328.373 -35.8535 326.494C-35.8316 325.13 -36.8195 323.673 -34.2166 323.34C-11.9612 320.473 10.3079 320.305 32.5894 323.013C59.4555 326.279 85.1899 333.526 109.848 344.649C113.292 346.205 116.711 347.797 120.043 349.56C121.366 350.269 121.977 350.166 122.677 348.855C125.293 343.923 128.008 339.027 130.659 334.121C131.45 332.659 132.05 331.061 133.011 329.737C134.171 328.107 133.301 327.542 132.013 326.911C123.117 322.567 114.083 318.518 104.831 314.977C88.4727 308.707 71.6264 304.204 54.4269 300.902C18.0622 293.937 -18.3029 294.196 -54.5911 301.268C-95.126 309.169 -132.331 325.053 -166.144 348.782C-182.906 360.544 -198.252 373.942 -212.17 388.983C-220.347 397.824 -227.978 407.107 -234.846 417.004L-234.773 417.002Z" fill="#E5B850"/>
<path d="M-223.593 817.886C-232.96 808.743 -241.109 799.928 -248.733 790.628C-273.596 760.287 -292.379 726.567 -305.008 689.414C-309.374 676.571 -312.88 663.499 -315.665 650.223C-316.251 647.422 -317.348 644.759 -317.664 641.881C-317.913 639.714 -317.196 638.682 -315.013 638.283C-307.573 636.895 -300.16 635.343 -292.724 633.935C-291.253 633.656 -289.879 632.985 -288.333 632.902C-286.694 632.815 -285.968 633.206 -285.688 635.001C-283.793 647.213 -280.898 659.205 -277.33 671.031C-268.679 699.651 -255.903 726.279 -239.074 750.99C-228.317 766.787 -216.055 781.327 -202.473 794.744C-188.144 808.872 -172.384 821.242 -155.487 832.091C-134.013 845.875 -111.056 856.594 -86.6617 864.213C-81.4901 865.834 -81.4867 865.854 -82.902 871.013C-84.5267 876.918 -86.007 882.873 -87.7964 888.733C-88.4858 890.985 -87.9605 891.682 -85.7839 892.299C-52.0431 901.716 -17.6919 905.669 17.3136 903.922C25.639 903.505 33.9216 902.77 42.1902 901.703C43.081 901.584 44.5225 900.818 44.3656 902.75C44.2689 904.043 45.5492 905.869 42.7189 906.22C24.0454 908.536 5.31223 909.376 -13.4776 908.509C-39.5976 907.315 -65.1956 902.998 -90.2989 895.645C-93.3379 894.754 -93.4872 894.737 -92.3916 891.663C-90.0923 885.162 -88.7691 878.397 -86.699 871.84C-86.0737 869.83 -86.3787 868.949 -88.4857 868.309C-100.509 864.659 -112.166 860.016 -123.551 854.688C-132.935 850.3 -142.045 845.427 -150.934 840.118C-158.751 835.467 -166.228 830.34 -173.591 825.026C-191.208 812.319 -207.011 797.643 -221.283 781.296C-250.192 748.182 -270.666 710.444 -282.87 668.215C-285.644 658.622 -287.981 648.892 -289.567 639.014C-289.846 637.292 -290.403 636.967 -292.039 637.326C-298.404 638.691 -304.799 639.945 -311.195 641.127C-312.605 641.396 -312.856 641.898 -312.589 643.235C-307.687 667.179 -300.914 690.536 -291.038 712.931C-276.362 746.253 -256.795 776.355 -231.894 802.941C-228.435 806.641 -224.871 810.218 -221.287 813.792C-220.482 814.598 -220.118 815.396 -221.12 815.973C-222.093 816.534 -222.61 818.694 -223.561 817.891L-223.593 817.886Z" fill="#E5B850"/>
<path d="M-153.724 795.111C-121.047 818.379 -89.0464 832.328 -54.2709 839.99C-52.6175 840.36 -51.9151 840.179 -51.6173 838.276C-50.6396 832.071 -49.5125 825.883 -48.3056 819.733C-47.9837 818.098 -48.3307 817.529 -50.0011 817.182C-70.5485 812.894 -90.1053 805.78 -108.781 796.246C-121.686 789.656 -133.875 781.909 -145.32 773.042C-164.998 757.793 -182.017 739.993 -195.995 719.356C-196.437 718.719 -197.892 717.844 -196.225 717.113C-194.997 716.571 -193.822 714.468 -192.161 716.942C-183.425 729.991 -173.135 741.764 -161.942 752.746C-150.713 763.753 -138.318 773.35 -125.079 781.737C-100.311 797.437 -73.4604 808.149 -44.6141 813.668C-42.8622 814.001 -42.6628 814.627 -42.9628 816.206C-44.4325 823.782 -45.7291 831.391 -47.2107 838.958C-47.5765 840.831 -47.0886 841.429 -45.2553 841.749C-26.4724 845.067 -7.56157 846.344 11.4976 845.575C13.6188 845.49 14.9979 847.529 14.0671 849.466C13.6119 850.432 12.5914 850.028 11.8447 850.07C1.62198 850.535 -8.58971 850.38 -18.7869 849.626C-45.8414 847.605 -72.0001 841.634 -97.2139 831.567C-110.567 826.236 -123.397 819.843 -135.73 812.423C-143.906 807.498 -151.857 802.23 -159.436 796.439C-186.021 776.093 -208.152 751.731 -225.519 723.07C-229.477 716.523 -233.06 709.777 -236.598 702.992C-237.91 700.481 -237.867 700.421 -235.223 699.4C-228.224 696.694 -221.716 692.939 -214.899 689.834C-213.449 689.182 -213.969 688.453 -214.419 687.523C-219.659 676.586 -224.025 665.303 -227.567 653.693C-227.726 653.185 -227.884 652.678 -228.023 652.167C-229.158 648.15 -229.138 648.272 -224.928 647.469C-217.931 646.124 -211.275 643.496 -204.416 641.64C-202.864 641.222 -203.578 640.086 -203.807 639.224C-205.98 630.775 -207.616 622.225 -208.763 613.593C-209.346 609.253 -209.623 604.861 -210.125 600.506C-210.3 598.965 -210.155 598.083 -208.264 598.12C-206.701 598.14 -205.67 598.05 -205.529 600.193C-204.146 621.505 -199.42 642.097 -191.62 661.973C-190.816 664.015 -189.984 666.042 -189.09 668.059C-187.977 670.572 -190.537 669.915 -191.371 670.683C-192.385 671.628 -192.834 670.825 -193.249 669.848C-196.382 662.544 -199.141 655.094 -201.417 647.469C-201.879 645.903 -202.41 645.668 -203.92 646.152C-209.693 647.993 -215.491 649.744 -221.322 651.364C-223.001 651.835 -223.282 652.406 -222.773 654.006C-219.032 665.865 -214.515 677.416 -208.834 688.488C-207.883 690.349 -207.909 691.442 -209.874 692.39C-214.788 694.735 -219.658 697.147 -224.553 699.541C-226.256 700.372 -227.918 701.322 -229.668 701.993C-231.312 702.615 -231.394 703.31 -230.61 704.8C-223.966 717.49 -216.458 729.647 -207.864 741.109C-197.814 754.503 -186.677 766.897 -174.252 778.163C-166.56 785.129 -158.577 791.71 -153.71 795.067L-153.724 795.111Z" fill="#E5B850"/>
<path d="M-213.577 944.275C-213.01 942.976 -212.124 943.266 -211.083 943.918C-201.965 949.586 -192.492 954.628 -182.889 959.387C-165.054 968.215 -146.681 975.758 -127.752 981.941C-89.5163 994.433 -50.2872 1001.25 -10.0931 1002.41C23.8315 1003.39 57.3603 1000.14 90.5068 992.876C111.104 988.362 131.208 982.225 150.901 974.701C152.623 974.045 153.041 973.483 152.331 971.686C148.946 963.253 145.651 954.794 142.462 946.286C141.759 944.405 140.926 944.618 139.47 945.177C112.529 955.606 84.761 962.919 56.1976 967.12C30.198 970.941 4.07094 972.073 -22.1564 970.552C-23.0661 970.496 -24.42 970.787 -23.9267 969.112C-23.5702 967.932 -24.6846 965.848 -21.9028 966.018C-3.74063 967.138 14.4078 966.868 32.5308 965.325C52.035 963.654 71.2845 960.529 90.313 955.902C106.807 951.89 122.973 946.803 138.785 940.603C139.63 940.272 140.456 939.892 141.255 939.475C143.458 938.319 144.185 938.532 145.211 940.966C146.546 944.175 147.754 947.437 149.022 950.688C151.814 957.892 154.613 965.084 157.393 972.279C158.578 975.346 157.998 976.689 154.905 977.911C123.41 990.332 90.8711 998.782 57.3356 1003.3C15.0175 1009 -27.2311 1008.26 -69.317 1001.07C-105.443 994.905 -140.145 984.069 -173.471 968.836C-186.728 962.766 -199.588 955.885 -212.207 948.567C-214.921 946.993 -215.083 946.465 -213.564 944.231L-213.577 944.275Z" fill="#E5B850"/>
<path d="M-117.971 914.928C-117.242 913.601 -116.345 914.33 -115.555 914.605C-107.84 917.284 -100.057 919.743 -92.1712 921.881C-53.9997 932.247 -15.1953 936.163 24.2858 933.391C66.8807 930.398 107.585 920.018 146.393 902.21C163.886 894.178 180.605 884.716 196.579 873.934C197.398 873.388 198.427 871.038 199.947 873.357C201.619 875.892 201.642 875.909 199.123 877.61C169.064 897.954 136.677 913.414 101.917 923.851C63.9478 935.246 25.1348 940.126 -14.4777 938.502C-49.4942 937.069 -83.5638 930.555 -116.664 919.032C-119.366 918.094 -119.589 917.325 -117.971 914.928Z" fill="#E5B850"/>
<path d="M244.676 246.756C259.259 256.853 272.916 268.101 285.908 280.131C314.886 306.931 339.653 337.205 360.062 371.007C371.273 389.565 381.026 408.861 389.216 428.943C390.037 430.962 388.682 432.865 386.481 432.785C385.501 432.751 385.585 431.878 385.364 431.308C379.393 416.893 372.764 402.798 365.271 389.11C347.564 356.748 325.933 327.255 300.408 300.638C290.684 290.487 280.381 280.946 269.694 271.795C256.328 260.341 242.145 250.009 227.488 240.343C214.312 231.642 200.595 223.775 186.354 216.897C181.66 214.63 176.966 212.363 172.229 210.209C169.848 209.123 171.541 207.676 171.803 206.428C172.186 204.657 173.343 205.75 174.058 206.08C186.992 211.974 199.622 218.422 211.902 225.588C223.151 232.164 234.145 239.096 244.668 246.768L244.676 246.756Z" fill="#E5B850"/>
<path d="M394.694 455.376C395.827 454.892 396.962 454.104 398.177 453.983C399.042 453.901 398.991 455.281 399.24 456.013C409.094 485.813 415.549 516.311 418.56 547.566C422.202 585.311 420.742 622.847 414.268 660.2C412.221 672.061 409.63 683.803 406.472 695.411C405.663 698.384 405.651 698.375 408.693 699.161C416.674 701.241 424.619 703.421 432.634 705.328C435.034 705.908 434.118 707.12 433.93 708.491C433.682 710.323 432.717 710.119 431.379 709.758C423.267 707.585 415.132 705.521 407.037 703.324C405.193 702.818 404.323 702.933 403.722 705.086C401.259 713.98 398.311 722.726 395.163 731.401C394.769 732.482 394.509 733.678 392.899 732.818C391.671 732.177 389.972 732.222 390.874 729.799C400.404 704.032 407.077 677.522 411.234 650.368C416.16 618.132 417.274 585.764 414.556 553.266C411.809 520.531 405.278 488.581 394.94 457.397C394.74 456.771 394.363 456.143 394.679 455.347L394.694 455.376Z" fill="#E5B850"/>
<path d="M344.848 828.185C332.618 845.361 321.676 858.865 309.873 871.666C282.323 901.523 251.166 926.982 216.244 947.79C206.814 953.407 197.2 958.679 187.357 963.519C186.612 963.885 185.499 965.297 184.908 963.334C184.507 962.009 182.772 960.721 185.45 959.401C216.441 944.04 245.11 925.144 271.344 902.596C283.904 891.803 295.816 880.334 306.97 868.093C314.358 859.981 321.41 851.613 328.214 843.014C334.656 834.873 340.689 826.425 346.457 817.822C354.156 806.33 361.236 794.449 367.675 782.185C371.045 775.765 374.336 769.307 377.351 762.706C378.507 760.177 379.781 762.088 381.006 762.28C382.812 762.562 381.87 763.558 381.488 764.397C377.217 773.742 372.475 782.842 367.506 791.834C360.001 805.419 351.63 818.459 344.86 828.193L344.848 828.185Z" fill="#E5B850"/>
<path d="M-58.3842 872.266C-57.8254 871.356 -57.0321 871.903 -56.3803 872.044C-49.4033 873.445 -42.3944 874.6 -35.3367 875.484C-13.0941 878.273 9.17897 878.502 31.4707 876.163C48.0728 874.415 64.4015 871.289 80.4482 866.672C82.1566 866.186 82.5495 866.842 82.9043 868.206C83.2744 869.599 83.6695 870.579 81.5981 871.148C66.2399 875.377 50.68 878.53 34.8535 880.346C14.1079 882.728 -6.66267 882.906 -27.4464 880.888C-37.2366 879.939 -46.9713 878.511 -56.6219 876.586C-59.1021 876.093 -59.7304 874.534 -58.3758 872.254L-58.3842 872.266Z" fill="#E5B850"/>
<path d="M-258.382 222.802C-252.971 230.832 -247.486 238.807 -242.141 246.879C-239.393 251.023 -239.517 251.096 -235.753 248.076C-235.458 247.837 -235.151 247.608 -234.841 247.399C-211.758 231.39 -187.297 217.851 -161.482 206.763C-160.156 206.184 -159.603 206.237 -158.983 207.683C-156.079 214.501 -153.171 221.34 -149.975 228.025C-148.89 230.303 -149.625 230.855 -151.529 231.668C-176.781 242.368 -200.506 255.804 -222.868 271.681C-240.786 284.412 -257.476 298.591 -272.979 314.171C-280.546 321.778 -287.826 329.662 -294.649 337.961C-295.891 339.478 -295.614 340.196 -294.187 341.337C-287.573 346.621 -281.086 352.082 -274.481 357.377C-273.077 358.502 -273.256 359.181 -274.239 360.435C-280.434 368.356 -286.606 376.294 -292.281 384.64C-301.354 397.987 -309.515 411.839 -316.746 426.247C-324.161 440.99 -330.429 456.209 -335.737 471.842C-336.271 473.398 -336.082 474.088 -334.375 474.586C-332.766 475.069 -332 475.202 -331.339 473.217C-320.64 441.077 -305.404 411.2 -286.069 383.416C-280.236 375.023 -273.848 367.059 -267.298 359.193C-259.49 349.839 -251.155 341.003 -242.415 332.528C-234.861 325.216 -226.907 318.35 -218.77 311.704C-218.263 311.294 -217.296 310.943 -217.603 310.241C-218.025 309.223 -218.861 308.359 -219.831 307.758C-220.836 307.131 -221.371 308.059 -221.961 308.535C-238.688 322.06 -254.219 336.85 -268.1 353.298C-269.374 354.811 -270.315 355.127 -271.95 353.748C-277.208 349.304 -282.518 344.932 -287.957 340.718C-289.643 339.411 -289.601 338.598 -288.298 337.195C-284.334 332.937 -280.457 328.6 -276.493 324.341C-260.991 307.704 -243.945 292.774 -225.666 279.26C-205.887 264.645 -184.833 252.14 -162.635 241.578C-148.192 234.708 -133.354 228.818 -118.17 223.802C-116.95 223.398 -116.403 223.536 -116.054 224.807C-115.559 226.629 -114.893 228.411 -114.349 230.215C-112.503 236.279 -110.072 242.151 -108.762 248.39C-108.103 251.566 -107.249 251.852 -104.221 250.745C-103.156 250.357 -102.072 250.017 -100.988 249.678C-81.3024 243.726 -61.2396 239.585 -40.8081 237.14C-8.88224 233.325 22.9511 233.945 54.6817 238.936C84.2719 243.586 112.799 251.943 140.251 263.926C152.102 269.102 163.638 274.897 174.826 281.357C180.68 284.737 179.327 284.724 182.166 279.504C182.32 279.237 182.49 278.999 182.656 278.741C186.461 272.918 190.267 267.096 194.093 261.269C195.81 258.656 195.856 258.617 198.402 260.251C206.1 265.195 213.925 269.96 221.325 275.372C233.339 284.07 244.91 293.313 255.92 303.269C267.809 314.029 278.98 325.496 289.428 337.65C313.359 365.499 332.749 396.228 347.825 429.692C361.802 460.724 371.371 493.064 376.646 526.702C379.846 547.174 381.356 567.753 381.32 588.466C381.31 590.216 380.846 590.566 379.172 590.45C371.706 589.938 364.221 589.502 356.736 589.191C354.851 589.121 354.411 588.557 354.432 586.69C354.611 568.193 353.357 549.769 350.544 531.472C347.992 514.848 344.46 498.442 339.514 482.336C331.567 456.476 321.046 431.74 307.643 408.232C306.843 406.838 306.192 406.822 305.047 407.674C301.465 410.34 297.527 412.447 293.689 414.716C288.668 417.666 283.467 420.289 278.604 423.495C277.144 424.463 277.243 425.179 278.004 426.527C280.814 431.54 283.604 436.556 286.184 441.691C304.19 477.457 315.13 515.271 318.868 555.146C319.11 557.775 320.753 556.524 321.909 556.738C323.496 557.026 323.587 556.068 323.434 554.848C322.845 550.038 322.391 545.215 321.721 540.418C318.162 515.19 311.814 490.683 302.452 466.988C296.945 453.028 290.751 439.404 283.2 426.427C282.3 424.872 283.357 424.621 284.215 424.121C290.369 420.562 296.581 417.098 302.674 413.424C304.366 412.406 304.94 412.707 305.83 414.327C318.579 437.494 328.879 461.66 336.031 487.151C340.241 502.177 343.754 517.352 346.068 532.802C351.049 566.123 351.218 599.458 346.585 632.817C342.679 660.903 335.465 688.122 324.805 714.392C323.775 716.921 325.016 717.267 326.677 718.055C328.961 719.126 328.687 716.995 329.042 716.118C332.447 707.788 335.472 699.312 338.164 690.724C347.906 659.552 353.401 627.65 354.244 594.981C354.294 592.973 354.837 592.463 356.838 592.598C365.29 593.185 373.759 593.623 382.22 594.072C385.083 594.229 385.714 593.62 385.744 590.81C386.188 556.01 382.042 521.742 373.214 488.084C363.581 451.38 348.933 416.786 329.062 384.443C302.041 340.447 267.514 303.421 225.778 273.094C217.455 267.041 208.795 261.485 199.992 256.131C189.718 249.873 179.185 244.129 168.36 238.895C149.83 229.913 130.685 222.447 110.923 216.603C109.622 216.214 109.087 215.833 109.569 214.276C111.863 206.75 114.049 199.201 116.179 191.629C116.606 190.123 117.112 189.766 118.677 190.235C126.635 192.675 134.592 195.114 142.367 198.087C144.738 198.987 144.81 197.425 145.457 196.165C146.284 194.549 145.132 194.23 144.009 193.843C139.568 192.33 135.165 190.736 130.705 189.299C102.813 180.301 74.322 174.157 45.1584 171.173C15.3124 168.115 -14.5141 168.1 -44.343 171.436C-65.3059 173.771 -85.968 177.647 -106.35 183.067C-133.953 190.425 -160.503 200.506 -186.049 213.254C-203.618 222.022 -220.446 232.015 -236.583 243.201C-237.924 244.128 -238.581 244.144 -239.56 242.676C-244.526 235.179 -249.607 227.743 -254.679 220.295C-255.082 219.703 -255.423 218.546 -256.132 218.812C-257.218 219.204 -258.255 220.007 -259.04 220.882C-259.657 221.572 -258.758 222.248 -258.355 222.84L-258.382 222.802ZM-153.538 203.458C-136.007 196.455 -118.119 190.586 -99.8205 185.978C-78.9328 180.703 -57.7646 177.098 -36.2988 175.138C6.46625 171.227 48.8007 173.91 90.7349 183.119C97.6152 184.631 104.42 186.375 111.232 188.107C112.884 188.53 113.406 189.081 112.852 190.891C110.641 198.047 108.608 205.257 106.55 212.45C106.059 214.197 105.116 215.748 104.696 217.546C104.38 218.971 104.669 219.446 106.078 219.857C115.314 222.49 124.428 225.52 133.431 228.883C150.799 235.371 167.655 242.982 183.847 252.002C186.284 253.361 188.699 254.776 191.162 256.099C192.269 256.708 192.458 257.273 191.715 258.393C188.209 263.694 184.795 269.043 181.953 273.436C178.399 278.452 178.497 278.289 174.003 275.717C163.697 269.83 153.077 264.562 142.209 259.817C112.927 247.033 82.4777 238.329 50.8512 233.771C22.572 229.695 -5.81791 229.072 -34.2797 231.822C-57.5694 234.078 -80.3808 238.682 -102.75 245.483C-104.214 245.929 -104.662 245.627 -105.109 244.216C-107.21 237.503 -109.373 230.801 -111.663 224.151C-112.298 222.3 -111.824 221.76 -110.061 221.222C-88.9865 214.88 -67.5275 210.388 -45.6708 207.703C-5.21848 202.737 34.9897 204.354 74.9637 212.239C77.5405 212.748 78.4424 212.01 78.7715 209.358C78.963 207.881 77.7618 208.209 77.1338 208.084C70.5847 206.863 64.0458 205.576 57.4733 204.589C34.8192 201.221 12.0355 199.822 -10.866 200.526C-56.2633 201.918 -100.064 211.007 -142.267 227.795C-144.26 228.581 -145.064 228.402 -145.912 226.347C-148.703 219.645 -151.67 213.015 -154.666 206.401C-155.379 204.835 -155.285 204.15 -153.529 203.446L-153.538 203.458Z" fill="#E5B850"/>
</g>
<defs>
<clipPath id="clip0_496_50">
<rect width="847.726" height="838.201" fill="white" transform="translate(102.55 1174.5) rotate(-144.547)"/>
</clipPath>
</defs>
</svg>
