<svg xmlns="http://www.w3.org/2000/svg" viewBox="0 0 442.35 447.5"><defs><style>.cls-1{fill:#e6ba55;}.cls-2{fill:#e6ba54;}</style></defs><g id="Layer_1" data-name="Layer 1"><path class="cls-1" d="M303.8,624.48a199.11,199.11,0,0,1-62.22-9.63,196.72,196.72,0,0,1-31.79-13.32c-.38-.2-1.27-.16-.83-1.07.65-1.36,1-1.56,2-1A200.69,200.69,0,0,0,278,620.53a211.94,211.94,0,0,0,30.84,1.65c1.13,0,1.42-.33,1.34-1.41q-.42-6.1-.71-12.2c0-.79-.36-.91-1-.89-3.28.07-6.55,0-9.83-.09a183.57,183.57,0,0,1-34.18-4.2c-3.28-.71-6.52-1.58-9.77-2.4-.47-.12-1.28-.1-.8-1,.33-.62.08-1.76,1.52-1.35,4.56,1.33,9.2,2.35,13.86,3.29.92.19,1.2-.08,1.32-.92.53-3.68,1.07-7.35,1.66-11,.18-1.09-.63-1-1.16-1.06a171.18,171.18,0,0,1-67.67-29.78c-4.58-3.36-9-7-13.22-10.71-.63-.55-.74-.93-.09-1.51s.79-1.18,1.7-.37a165.63,165.63,0,0,0,35.5,24.51,173.74,173.74,0,0,0,21.77,9.38c.87.3,1.1,0,1.35-.71,1.05-3,2.09-6,3.24-8.9.39-1,.1-1.29-.81-1.6a153.05,153.05,0,0,1-34.07-16.59c-1.2-.79-1.18-1.61,0-2.46.5-.36.75.07,1,.26,2.79,1.8,5.64,3.49,8.5,5.17.88.52,1.3.33,1.74-.51q2.85-5.42,5.79-10.77c.38-.7.24-1-.44-1.38a141.41,141.41,0,0,1-30.1-22.8,17.83,17.83,0,0,0-1.41-1.47c-1-.76-.68-1.26.16-1.91.62-.48.95-.43,1.47.11a128.32,128.32,0,0,0,10.17,9.48A136.85,136.85,0,0,0,256.35,550a144.81,144.81,0,0,0,26.14,6.89c1.13.19,1.59,0,1.76-1.25.43-3.29,1-6.55,1.59-9.81.15-.84-.11-1-.86-1.14A125.57,125.57,0,0,1,197,486c-.24-.4-.95-1,0-1.31.65-.23,1.21-1.44,2.06,0A121.12,121.12,0,0,0,220,510.46c1.9,1.8,1.9,1.82,3.58-.09s3.06-3.59,4.64-5.33c.6-.65.47-1-.11-1.54a109.13,109.13,0,0,1-20.91-26.24A112.12,112.12,0,0,1,193.86,440a108.13,108.13,0,0,1-1.55-18.48,111.67,111.67,0,0,1,5.06-33.15c1.19-3.77,2.58-7.46,4.08-11.13.48-1.15,1-.82,1.82-.54s.75.81.46,1.48a109.24,109.24,0,0,0-8.33,31.25,100.26,100.26,0,0,0-.63,10.4c0,.88.22,1.18,1.14,1.17q5.15-.06,10.31,0c.87,0,1.16-.22,1.18-1.13a97.45,97.45,0,0,1,24.25-62.7A95,95,0,0,1,252,339.66c.86-.54.94-.94.42-1.76-2.11-3.29-4.16-6.63-6.24-9.94-.89-1.42-.69-1.87.81-2.62,2.78-1.4,5.47-3,8.26-4.36a109.31,109.31,0,0,1,23.08-8.25c1.58-.38,1.58-.38,1.25-2-.62-3-1.28-6-1.83-9-.18-1-.61-1.11-1.46-.91a125.1,125.1,0,0,0-30.92,11.79,122.78,122.78,0,0,0-25,18c-.8.74-1.12.39-1.7-.16s-.67-1,0-1.61a125.65,125.65,0,0,1,61.57-31.35,127.9,127.9,0,0,1,18.41-2.17c.86,0,1.07-.35,1.05-1.15-.09-2.92-.17-5.84-.15-8.75,0-1.06-.3-1.34-1.37-1.3A137,137,0,0,0,252.64,294a133.23,133.23,0,0,0-20,10.07c-.62.38-.94.42-1.43-.24-1.82-2.49-3.16-5.27-4.78-7.87-.83-1.32-1.64-2.66-2.37-4-.45-.85-.86-.89-1.66-.39-4.42,2.81-8.72,5.78-12.86,9a1.66,1.66,0,0,1-2.36-.94c-.06-.4.31-.54.54-.72a154.55,154.55,0,0,1,16-11,147.93,147.93,0,0,1,20-10.05c.84-.34.94-.74.58-1.53q-2.15-4.62-4.18-9.29c-.34-.79-.69-1-1.54-.6a168.94,168.94,0,0,0-42,25.66c-.65.54-1.3,1.07-1.91,1.64s-1,.68-1.43-.06c-.36-.59-1.17-1-.17-1.83,4.11-3.43,8.3-6.77,12.67-9.86a165.48,165.48,0,0,1,18.68-11.47c.79-.41.9-.74.5-1.54q-3.11-6.28-6.09-12.63c-.86-1.81-1.12-1.46.78-2.39q4.2-2.06,8.45-4c.71-.33,1-.6.61-1.41q-2.51-5.44-4.88-10.94c-.32-.75-.67-.55-1.18-.32A203.91,203.91,0,0,0,195.33,252c-1.13.72-1.94.39-2.27-.94-.16-.63.4-.71.73-.92q6.69-4.33,13.72-8.1c4.54-2.44,9.16-4.73,13.88-6.8a9.19,9.19,0,0,0,1.58-.84c1.12-.8,1.71-.69,2.31.6,1.21,2.65,2.39,5.32,3.58,8l2.73,6.13c.68,1.56.43,1.9-1.17,2.53-2.9,1.13-5.69,2.53-8.48,3.91-.55.27-.52.58-.29,1,1.87,3.85,3.74,7.69,5.54,11.57.42.88.83.55,1.39.27a167.38,167.38,0,0,1,27.17-10.69,170.55,170.55,0,0,1,116.12,6.82c2,.85,3.95,1.73,5.9,2.65.62.3.91.19,1.2-.41q2.8-5.64,5.66-11.24c.38-.72.2-1-.49-1.36-3.61-1.71-7.26-3.33-11-4.81a1.46,1.46,0,0,1-.5-2.42c.46-.47.91,0,1.31.12,3.64,1.46,7.23,3,10.76,4.71A199.05,199.05,0,0,1,404,262.34c.89.55.79.94.32,1.67s-.74,1-1.62.45c-4.62-3-9.45-5.66-14.35-8.2-.86-.45-1.19-.29-1.6.55q-2.64,5.44-5.43,10.82c-.46.88-.22,1.2.58,1.6a165.92,165.92,0,0,1,19.54,11.65,1.48,1.48,0,0,1,.13,2.5c-.5.45-.81,0-1.13-.26-3.54-2.4-7.13-4.73-10.82-6.89a168.53,168.53,0,0,0-74-22.77,160.93,160.93,0,0,0-20.6-.14,170.25,170.25,0,0,0-52,11.34c-.89.35-1.05.73-.66,1.58q2.2,4.78,4.32,9.62c.26.58.52.63,1.09.41a150.25,150.25,0,0,1,28.69-8c1.61-.28,3.22-.54,4.84-.8.53-.09,1.17-.18,1.05.64-.09.61.81,1.55-.71,1.77a152.67,152.67,0,0,0-29.47,7.31,157.54,157.54,0,0,0-25.63,11.86c-.86.5-.87.91-.41,1.68q2.91,4.81,5.72,9.7c.4.68.69.86,1.46.41a138.57,138.57,0,0,1,48.88-17.53,136.15,136.15,0,0,1,25.67-1.67,139.28,139.28,0,0,1,59.52,15.16,141.65,141.65,0,0,1,27.81,18.63.86.86,0,0,1,.26.24c.26.45,1.37.58.52,1.45-.67.68-1.13,1.3-2.2.35A132.35,132.35,0,0,0,364.39,298a137.39,137.39,0,0,0-41.29-12.63,147.58,147.58,0,0,0-19.82-1.4c-1.08,0-1.34.31-1.3,1.35.1,3,.11,5.92.11,8.88,0,.75.2,1.06,1,1.05a117.14,117.14,0,0,1,16.74.94c.35.05.71.08,1.07.14,1.46.25,1.39.24,1.14,1.73-.13.82-.52.84-1.14.75A114.26,114.26,0,0,0,300,297.69a124.47,124.47,0,0,0-19.14,2.15c-.86.17-1,.57-.79,1.34.75,3.47,1.46,6.95,2.19,10.43.45,2.12.2,2.56-2,3.09a114.61,114.61,0,0,0-27.12,10.05c-1.23.65-2.43,1.37-3.67,2-.63.33-.79.65-.38,1.3q2.79,4.4,5.52,8.84c.43.7.81.63,1.46.26a96.52,96.52,0,0,1,31.7-11.54A104.63,104.63,0,0,1,300,324.25,97.37,97.37,0,0,1,369,348.35,96.7,96.7,0,0,1,392.82,380a97.91,97.91,0,0,1,8.55,29.57,92.76,92.76,0,0,1,.62,17,96.82,96.82,0,0,1-9.27,36.57c-1,2-2,3.91-3,5.84-.33.61-.32,1,.32,1.35,2.8,1.7,5.58,3.42,8.34,5.19.67.42.92.25,1.26-.37a110.14,110.14,0,0,0,12.58-36,105.73,105.73,0,0,0,1.37-21.61,109.58,109.58,0,0,0-24.79-65.38,107.46,107.46,0,0,0-19.89-18.81,1.48,1.48,0,0,1,0-2.58c.49-.33.73.15,1,.35a105.53,105.53,0,0,1,12.53,10.59,111.25,111.25,0,0,1,31.77,59.91,106.49,106.49,0,0,1,1.71,24.57,111.9,111.9,0,0,1-13.17,48.24c-.81,1.51-1.71,3-2.54,4.48-.3.55-.62.66-1.11.26-3.75-3-8-5.2-12-7.81-.89-.58-1.14-1.08-.49-2.19a93.21,93.21,0,0,0,11.52-31.43,92.2,92.2,0,0,0,1.27-21.49,94.88,94.88,0,0,0-65.93-85.05,92.23,92.23,0,0,0-23-4.3,94.23,94.23,0,0,0-47.29,9.45,92.77,92.77,0,0,0-23.36,16.17,94.76,94.76,0,0,0-19.93,111.17,93.12,93.12,0,0,0,15.09,22c1,1.11,1,1.1,2.11,0,1.95-2,3.89-3.92,5.87-5.84.56-.54.68-.86.08-1.52a83.85,83.85,0,0,1-14.91-91.19,81.61,81.61,0,0,1,17.24-25,83.92,83.92,0,0,1,131,15.82c.22.37,1,.9.06,1.32-.68.29-1.34,1.28-2.14-.06A76.08,76.08,0,0,0,362.47,364a81,81,0,0,0-44.53-23,77.71,77.71,0,0,0-20.77-.75c-.8.08-1,.27-1,1.15.26,3.83.39,7.66.6,11.49,0,.77-.22,1-1,1.1a67.92,67.92,0,0,0-54.17,41,65.7,65.7,0,0,0-4.89,18.83,66.42,66.42,0,0,0,14,49.4,68,68,0,0,0,23.75,19.19,55.36,55.36,0,0,0,7.65,3.14,68.35,68.35,0,0,0,14.35,3.28c.51.05,1.41-.22,1.44.82,0,1.87.12,1.77-1.58,1.58a69.62,69.62,0,0,1-36.88-15.63,69.78,69.78,0,0,1-25-45.27A68.3,68.3,0,0,1,236.62,402a70.31,70.31,0,0,1,54.43-49.64,17.63,17.63,0,0,1,2.36-.4c.89-.05,1-.51,1-1.25-.18-2.91-.38-5.82-.48-8.73,0-1.31-.77-1.23-1.67-1.08A81.67,81.67,0,0,0,231,386.51a77.27,77.27,0,0,0-7.43,26.63c-2.13,23.13,4.23,43.7,19.27,61.36a78.46,78.46,0,0,0,48.36,27.25c23.1,3.76,44.06-1.62,62.85-15.55,1-.71,1.9-1.46,2.82-2.23,1.14-1,1.27.44,1.81.8.7.46.07.77-.28,1.06a83.31,83.31,0,0,1-39.91,18.34,77.11,77.11,0,0,1-15.39,1.17c-20.09-.59-37.87-7.26-53.2-20.32-1.3-1.11-2.58-2.26-3.81-3.47-.61-.6-1-.56-1.55,0-2.53,2.66-5.32,5.08-7.67,7.91-.71.85-1.15.74-1.87,0a98.21,98.21,0,0,1-21.84-34.88,99.53,99.53,0,0,1-5.28-22.82c-.28-2.41-.39-4.85-.51-7.28,0-.74-.21-1.06-1-1.06-3.52,0-7,0-10.55-.1-.87,0-1.06.29-1,1.11A109.51,109.51,0,0,0,230,502q.48.45,1,.87c1.37,1.15,1.45,1.35.19,2.6-2.38,2.38-4.39,5.07-6.69,7.5-.62.67-.6,1,.09,1.6a123.26,123.26,0,0,0,56.35,26.95,126.39,126.39,0,0,0,28.13,2.18c.72,0,1.44-.09,2.15-.18s.89.11,1,.8c.19,1.49.25,1.51-1.27,1.62a105.71,105.71,0,0,1-16.88-.22c-1.63-.14-3.26-.26-4.88-.48-1-.13-.85.57-.93,1-.45,2.51-.85,5-1.26,7.56a18.73,18.73,0,0,1-.39,2.24c-.3,1,.08,1.44,1.1,1.52,2.67.21,5.33.56,8,.71a137,137,0,0,0,68.87-13.86,78.22,78.22,0,0,0,8-4.31c1.16-.74,1.36.08,1.86.71.69.87,0,1.08-.56,1.39a139.66,139.66,0,0,1-134,3.11c-1.39-.72-1.4-.72-2.13.65-1.86,3.45-3.7,6.91-5.58,10.34-.41.73-.43,1.14.42,1.57a148.08,148.08,0,0,0,23.07,9.68c1.44.45,1.73,1.32,1,2.8-1.75,3.37-2.67,7.07-4.06,10.59-.29.72.32.7.68.81,4.38,1.41,8.8,2.65,13.28,3.65,2.37.54,4.76,1.07,7.16,1.45,1.19.19,1.38.78,1.23,1.78-.57,3.74-1.11,7.5-1.72,11.24-.44,2.68-.48,2.64,2.25,3.07a190.75,190.75,0,0,0,25.15,2.25A180.63,180.63,0,0,0,326.17,604c1.95-.23,3.88-.53,5.82-.75.69-.07.89-.36.78-1q-1-5.65-1.93-11.33c-.11-.73-.59-.66-1.06-.58-3.63.58-7.28,1-10.94,1.29-2.5.21-5,.37-7.53.47-1,0-.63-.9-.77-1.44s0-1,.78-1c1.51-.05,3-.15,4.54-.24a150.72,150.72,0,0,0,15-1.69,1.64,1.64,0,0,1,2.15,1.5c.85,5.08,1.66,10.16,2.54,15.23.12.7-.22.7-.68.79-3.26.59-6.55,1-9.84,1.37q-6.13.69-12.3.95c-.74,0-.85.35-.81,1,.1,1.67.11,3.36.28,5,.32,3.3,0,6.64.59,9.91.16.82-.18,1.08-.95,1.07C309.16,624.47,306.48,624.48,303.8,624.48Z" transform="translate(-82.12 -197.92)"/><path class="cls-1" d="M304.71,266c4-.05,8,.1,12,.42a153.19,153.19,0,0,1,27.23,4.73,155.21,155.21,0,0,1,58.9,30.29c.75.61,1.08.58,1.65-.19,2.46-3.34,5-6.64,7.49-9.95.12-.16.25-.32.36-.49.58-.93,1.18-.9,2-.19,4.27,3.8,8.52,7.61,12.51,11.72a170.88,170.88,0,0,1,45.49,87.76,155.47,155.47,0,0,1,2.77,26.18c0,1.32.12,2.63.13,4,0,.64.16.92.87.93,4,.07,8.07.2,12.1.28a14.1,14.1,0,0,0,2.14-.21c.83-.1,1.08.22,1.09,1.06,0,4.68-.19,9.35-.59,14A186.61,186.61,0,0,1,481,482.2c-.17.48-.1,1.43-1.07.94-.67-.34-1.77-.27-1.26-1.72a179.37,179.37,0,0,0,8.24-33.07A163.61,163.61,0,0,0,488.69,431c.09-2,.19-4,.23-6,0-1.64.4-1.61-1.55-1.66-3.39-.09-6.79-.17-10.18-.28-2-.06-2-.08-2,1.89a172.72,172.72,0,0,1-8.83,50.78c-.1.31-.19.61-.3.91a1.45,1.45,0,0,1-2.47.64c-.45-.37-.05-.74.06-1.07,1.63-4.8,3.07-9.66,4.28-14.59a168.48,168.48,0,0,0,4.27-26.21c.41-5.06.69-10.13.62-15.2a169,169,0,0,0-38-105.25,165.88,165.88,0,0,0-20.55-21.1c-.51-.45-.77-.47-1.19.09-2.31,3.07-4.63,6.12-7,9.13-.61.77-.08,1.05.35,1.43a148.41,148.41,0,0,1,12.66,12.42,154.46,154.46,0,0,1,21.79,30.71,142.47,142.47,0,0,1,7.46,15.69,160.64,160.64,0,0,1,9.46,34.45A156,156,0,0,1,374.18,561c-1.92,1-2.06.49-.93,2.85,1.26,2.63,2.55,5.25,3.72,7.92.46,1,.88,1.24,1.94.71a172.61,172.61,0,0,0,22.73-13.56c.53-.38,1-1,1.66,0,.84,1.22.91,1.19-.42,2.12A171.46,171.46,0,0,1,364.2,581.4a166.79,166.79,0,0,1-19.57,6c-.55.13-1.24.61-1.36-.57-.09-.85-.41-1.54.87-1.84a165.37,165.37,0,0,0,30-10.3c1-.46,1.29-.82.73-1.91-1.49-2.92-2.85-5.9-4.22-8.87-.35-.74-.68-.9-1.46-.54a155,155,0,0,1-54.21,14c-4.83.34-9.65.51-14.49.4-.77,0-1,.21-1.07,1-.27,4.15-.63,8.29-.93,12.43,0,.58-.07,1-.85.92-2.9-.24-5.81-.48-8.72-.59-1.43,0-.88-1-1-1.68-.12-.92.53-.8,1.09-.76,2,.15,4.06.29,6.09.47.87.08,1.17-.18,1.22-1.1.16-3.15.4-6.3.68-9.44.1-1.07-.17-1.41-1.32-1.46a149.72,149.72,0,0,1-25.48-3.38c-1.44-.31-.41-1.28-.47-1.93-.08-.86.57-.53,1-.44a159.77,159.77,0,0,0,27.3,3.45,150.31,150.31,0,0,0,34.21-2.56,152.42,152.42,0,0,0,43.15-15.08,162.48,162.48,0,0,0,17.54-10.8c.75-.52.78-.87.26-1.59-2.72-3.74-5.23-7.64-8-11.33-1-1.3-.9-1.38.42-2.26,2.14-1.41,4.08-3.08,6.08-4.67.47-.38.53-.69.09-1.17-2.36-2.55-4.72-5.1-7-7.71-.69-.79-1.09-.25-1.56.13a120.68,120.68,0,0,1-11.07,8,125,125,0,0,1-40.58,16.95c-.47.1-1.15.55-1.42.06a3.53,3.53,0,0,1-.15-1.87c.05-.5.59-.45,1-.53a124.91,124.91,0,0,0,33.67-12.9c.87-.49.89-.88.41-1.65-1.46-2.33-2.88-4.7-4.26-7.08-.4-.7-.77-.72-1.42-.35a109.85,109.85,0,0,1-35.19,12.76,112.31,112.31,0,0,1-72.7-11.42,94.87,94.87,0,0,1-8.34-5c-.42-.28-1.44-.41-.69-1.35.53-.67.83-1.48,2-.68a102.27,102.27,0,0,0,15.67,8.51,109.48,109.48,0,0,0,127.16-28.91c.39-.45.61-.76,0-1.25q-3.93-3.24-7.81-6.54c-.66-.56-.89,0-1.22.35a97.58,97.58,0,0,1-57.76,32.21A95,95,0,0,1,299,518.68a96.88,96.88,0,0,1-37.06-9.75,98.86,98.86,0,0,1-13.78-8.22c-.56-.4-1.11-.74-.41-1.46.54-.56.79-1.5,1.94-.66a92.11,92.11,0,0,0,24.19,12.49,94.76,94.76,0,0,0,90.23-15.73A96.82,96.82,0,0,0,376,483.93c.56-.63.54-1-.1-1.53-2.58-2.14-5.13-4.32-7.69-6.49-.33-.29-.61-.64-.95-.91-.75-.6-.5-1.25,0-1.74,2.52-2.39,4.3-5.34,6.17-8.21a79.93,79.93,0,0,0,6.71-13c.33-.79.29-1.15-.6-1.48-2.9-1-5.76-2.16-8.61-3.32-.85-.35-1.26-.26-1.61.64a68,68,0,0,1-10.8,18.16,69.68,69.68,0,0,1-28.7,20.81,71.23,71.23,0,0,1-16.44,4.23c-.45.06-1.27.49-1.22-.52,0-.68-.61-1.67.88-1.86a66,66,0,0,0,22-6.84,67.18,67.18,0,0,0,33.7-39.26A64.65,64.65,0,0,0,372,425.76a67.83,67.83,0,0,0-34.72-63.7A67.16,67.16,0,0,0,312.59,354c-1.27-.16-.81-1-.87-1.7-.08-.83.51-.76,1-.7A70.36,70.36,0,0,1,372.14,403a68.34,68.34,0,0,1,2.4,16.67,70.34,70.34,0,0,1-3.61,24.13c-.22.65-.11.89.51,1.12q4.53,1.71,9.05,3.5c.72.28,1,.18,1.3-.6a81.95,81.95,0,0,0,2.08-45.46,60.37,60.37,0,0,0-2.77-9c-.5-1.17.17-1.28.93-1.64,1-.45,1.14.12,1.39.82a82.19,82.19,0,0,1,5,25.62,83.17,83.17,0,0,1-17.35,54.58c-1,1.37-1,1.35.27,2.44q9.28,7.75,18.57,15.54c1.34,1.12,1.31,1.18.19,2.51a112.2,112.2,0,0,1-26.94,23.4c-.6.37-.89.66-.43,1.39,1.5,2.4,3,4.84,4.39,7.29.42.72.76.76,1.47.32a124.35,124.35,0,0,0,24.22-19.5,123,123,0,0,0,19.42-26.51,1.59,1.59,0,0,1,2.56-.28c.38.41-.08.73-.24,1a124.78,124.78,0,0,1-27.72,34.77c-.72.64-.77,1-.11,1.7,2.25,2.38,4.48,4.79,6.66,7.23.61.69,1,.64,1.64.06a145.44,145.44,0,0,0,14.1-14.53,1.51,1.51,0,0,1,2.56.25c.28.53-.26.79-.51,1.08a136.2,136.2,0,0,1-9.94,10.72,127.86,127.86,0,0,1-12.46,10.68c-.82.6-1.05,1-.37,2,2.31,3.16,4.52,6.4,6.73,9.62.44.63.76.75,1.42.24a153.75,153.75,0,0,0,58-93.54,156.48,156.48,0,0,0,2.55-22.23,159.27,159.27,0,0,0-1-25.83c-.09-.76-.3-1-1.13-.86-3.59.5-7.2.9-10.81,1.33-1.59.19-1.63.27-1.4,1.85.46,3.29.7,6.59.85,9.9A139.62,139.62,0,0,1,421,497.62c-.32.49-.51,1.39-1.48.62-.74-.58-1.28-.88-.55-2a136.38,136.38,0,0,0,20.29-51.47,134.41,134.41,0,0,0,1.86-30.43A136.11,136.11,0,0,0,429,364.58a142.06,142.06,0,0,0-10.4-18.88c-.55-.84-.9-.93-1.7-.24-2.24,1.93-4.54,3.79-6.87,5.61-.77.59-.81,1-.29,1.84a118.84,118.84,0,0,1,10.33,19.58,127.5,127.5,0,0,1,9.52,52.41A124.58,124.58,0,0,1,421,466.57c-.17.42-.06,1.44-1.08.89-.73-.39-1.75-.4-1.16-1.87a120.75,120.75,0,0,0,7.63-30.23,115.68,115.68,0,0,0,.87-18.41,123.26,123.26,0,0,0-61.59-102.89c-.64-.37-.91-.28-1.27.37-2,3.65-4,7.27-6,10.92-.36.65-.64.8-1.36.4a108.37,108.37,0,0,0-36.68-12.44,100.82,100.82,0,0,0-24.36-.85,9.54,9.54,0,0,0-1.32.09c-1.14.28-1.61-.1-1.74-1.3-.1-.83.09-1.05.86-1.1,4.34-.29,8.69-.57,13.05-.43a117.3,117.3,0,0,1,17.73,1.86,110.84,110.84,0,0,1,31.35,10.83c.76.4,1.12.42,1.56-.41,1.53-2.9,3.13-5.76,4.75-8.61.41-.72.31-1.05-.44-1.45a123.56,123.56,0,0,0-28-10.69l-.59-.13a1.45,1.45,0,0,1-.88-2.41c.35-.49.75-.13,1.07-.06a120.69,120.69,0,0,1,15,4.58A125.3,125.3,0,0,1,407,348.78c.62.89,1,.93,1.79.23,2.24-1.92,4.55-3.77,6.87-5.59.76-.6.72-1,.19-1.77a151.45,151.45,0,0,0-11.35-13.92c-.33-.36-1.23-.69-.33-1.38.64-.5,1.05-1.39,2.09-.28a140.09,140.09,0,0,1,35,69.34c.32,1.69.6,3.38.84,5.08.09.6.29.85.91.77q6-.75,12-1.47c.73-.08.53-.59.46-1-.67-4.18-1.44-8.34-2.43-12.46A151.88,151.88,0,0,0,447,366.8a153.56,153.56,0,0,0-73.95-81.94,152.1,152.1,0,0,0-43.16-14.31,156.89,156.89,0,0,0-31.74-2.16,1.51,1.51,0,0,1-1.55-2c.1-.36.37-.38.65-.38Z" transform="translate(-82.12 -197.92)"/><path class="cls-2" d="M524.47,422.4a220.49,220.49,0,0,1-34,117.9c-.73,1.15-1.56,1.19-2.49.17-.43-.46,0-.73.17-1,2.6-4.17,5.11-8.4,7.45-12.72A221.12,221.12,0,0,0,514,481.42c.21-.75.08-1.07-.7-1.27-4.11-1-8.22-2-12.3-3.17-1.17-.33-1.48,0-1.78,1.06A199.84,199.84,0,0,1,484,515.87a204.09,204.09,0,0,1-64.51,72.74c-.93.64-1.46.53-2.12-.52-2.43-3.85-4.88-7.7-7.27-11.57-.5-.82-.85-1-1.72-.39A185.94,185.94,0,0,1,360,599.27c-3.89,1.21-7.81,2.3-11.78,3.23-.45.1-1.18.63-1.24-.41,0-.73-.83-1.63.71-2A177.17,177.17,0,0,0,379,589.55a184.21,184.21,0,0,0,42.54-26.17,179.47,179.47,0,0,0,17.81-16.73,183.93,183.93,0,0,0,25.89-35.29c2.06-3.7,4-7.47,5.87-11.27.42-.85.4-1.28-.57-1.7-3.47-1.52-6.91-3.12-10.36-4.71-.55-.26-.82-.32-1.15.37a170,170,0,0,1-23.38,36.67,174.13,174.13,0,0,1-19.18,19.61,1.31,1.31,0,0,1-2.33-.76c-.13-.52.3-.7.58-.94q5.6-4.8,10.72-10.12a168.21,168.21,0,0,0,26-35.14c2.13-3.84,4-7.82,6-11.75.34-.69.62-.82,1.34-.54,4.32,1.69,8.39,3.92,12.67,5.69a21.93,21.93,0,0,0,2.34.87c.82.23.84.61.52,1.31-2.58,5.55-5.39,11-8.49,16.25a184.36,184.36,0,0,1-48.47,54.58c-1.79,1.34-3.6,2.66-5.43,3.94-.67.46-.91.84-.41,1.62,2.19,3.39,4.33,6.81,6.46,10.24.38.61.68.7,1.31.27a205.68,205.68,0,0,0,17.41-13.71A201.14,201.14,0,0,0,502.38,453a211.12,211.12,0,0,0,2.48-26.45c.22-6.84-.05-13.66-.49-20.47-.07-.95-.46-1.08-1.28-1-3.79.19-7.58.31-11.37.48-.59,0-1.17.18-1.77.22-1.56.11-1.57.1-1.7-1.45-.27-3.46-.71-6.91-1.2-10.35a184.66,184.66,0,0,0-30-77.05,184.56,184.56,0,0,0-40.32-42.69c-.25-.2-.52-.38-.78-.56-1.82-1.25-1.7-1.23-.36-2.82,1.83-2.17,3.38-4.53,5.15-6.73.86-1.06,1.58-2.22,2.45-3.26.6-.74.5-1.16-.26-1.71-4.35-3.12-8.76-6.15-13.33-9a202.06,202.06,0,0,0-45.2-20.72,194.2,194.2,0,0,0-33-7.42c-3.08-.41-6.17-.75-9.26-1.14-.74-.09-1.07.1-1.11.93-.2,3.67-.46,7.34-.7,11-.1,1.47-.06,1.53,1.55,1.67a173.6,173.6,0,0,1,19.78,2.89c4.46.89,8.88,2,13.27,3.19a1.45,1.45,0,0,1,.82,2.36c-.35.52-.79.17-1.17.07-4.55-1.25-9.12-2.38-13.74-3.31a186.14,186.14,0,0,0-21.8-3c-5.14-.41-10.29-.68-15.44-.63a185.54,185.54,0,0,0-52.17,7.81,2.24,2.24,0,0,0-.46.14c-1.07.56-1.45.12-1.78-.95s.37-1.17,1.05-1.37a186.42,186.42,0,0,1,32.08-6.7,189.62,189.62,0,0,1,25-1.3c3.16,0,6.31.22,9.46.41.9.05,1.14-.21,1.19-1.1.26-4.58.62-9.16.9-13.74,0-.69.16-1,1-.91a210.09,210.09,0,0,1,26.88,4,202.73,202.73,0,0,1,53.35,19.59c3.34,1.79,6.6,3.75,9.86,5.68.74.44,1.11.49,1.59-.33q2.94-5.09,6-10.09c.53-.85.39-1.24-.45-1.75a222.83,222.83,0,0,0-39.73-19,6.77,6.77,0,0,0-.8-.25c-2.17-.46-2.15-.44-1.38-2.47,1.88-5,3.77-9.93,5.56-14.93.43-1.2,1-.84,1.83-.63,1,.25.7.8.47,1.42-1.63,4.38-3.24,8.77-4.91,13.13-.35.93-.32,1.36.74,1.74A220.92,220.92,0,0,1,516.35,362.87c.13.47.8,1.21-.32,1.37-.75.11-1.62.82-2-.7-1.07-4.22-2.46-8.35-3.85-12.48-.28-.84-.59-1-1.45-.72-3.83,1.39-7.68,2.72-11.54,4-.81.28-.94.59-.67,1.39a200.41,200.41,0,0,1,8.62,35.56c.87,5.89,1.49,11.8,1.81,17.75.28,5.19.49,10.38.38,15.57a205,205,0,0,1-7,49.33c-.22.79-.14,1.11.72,1.32q6.39,1.58,12.75,3.27c.74.19.95,0,1.12-.69a231.84,231.84,0,0,0,4.94-24.52,220,220,0,0,0,2.1-38.47,203.69,203.69,0,0,0-1.79-21.36c-.61-4.47-1.29-8.93-2.23-13.34-.3-1.41.8-1.19,1.48-1.45,1-.36.8.5.89,1A217.7,217.7,0,0,1,524,407.43C524.33,412.42,524.48,417.41,524.47,422.4Zm-31-18.77c3-.13,6.31-.3,9.66-.41.79,0,.95-.34.87-1-.25-2.06-.46-4.12-.71-6.18a196.57,196.57,0,0,0-6.28-30.58q-1.57-5.47-3.49-10.83c-.25-.7-.15-1,.58-1.32s1.61-.39,2.4-.66c3.8-1.34,7.6-2.71,11.43-4,1-.34,1.12-.74.77-1.69a227.59,227.59,0,0,0-12.3-27.43,218.2,218.2,0,0,0-32.18-45.44,215.11,215.11,0,0,0-26.43-24.33q-8.08-6.3-16.73-11.83c-.43-.27-.83-.8-1.32.05-2.11,3.63-4.27,7.23-6.43,10.82-.31.5-.21.76.25,1.05,1.12.7,2.23,1.42,3.32,2.16a203.7,203.7,0,0,1,72.66,86c.69,1.54.67,1.47-.92,1.91-1.09.29-1.1-.54-1.35-1.08A201.52,201.52,0,0,0,451,284.21a206.05,206.05,0,0,0-24.41-22.28c-.61-.48-.93-.45-1.39.19-2.11,2.92-4.26,5.8-6.4,8.69-.92,1.25-.93,1.26.31,2.21A183.64,183.64,0,0,1,444,296.21a187.28,187.28,0,0,1,25.9,37.32A185.28,185.28,0,0,1,485,371.93a177.76,177.76,0,0,1,5.42,29.4C490.62,403.64,490.62,403.64,493.51,403.63Z" transform="translate(-82.12 -197.92)"/><path class="cls-2" d="M301.89,201.18a220.3,220.3,0,0,1,56.82,7c.63.17,1.29.19.91,1.18-.29.77-.23,1.58-1.56,1.22a208.39,208.39,0,0,0-30.34-5.67,212.71,212.71,0,0,0-33.38-1.19,218.14,218.14,0,0,0-54.41,9.21c-1.05.31-1.29.64-.86,1.7,1.48,3.71,2.88,7.45,4.26,11.2.3.83.66,1,1.48.74a195.39,195.39,0,0,1,32.14-7q9-1.22,18.14-1.58c3.15-.12,6.31-.09,9.46-.22,1.55-.07,1.1,1,1.23,1.72.17,1-.64.71-1.12.71a197.92,197.92,0,0,0-60.28,9.06c-1.23.39-1.64.09-2-1-1.61-4.46-3.34-8.89-5-13.35-.32-.89-.68-.93-1.48-.67a220.88,220.88,0,0,0-49.56,23.26,218.39,218.39,0,0,0-73.93,78q-5.2,9.33-9.51,19.09c-.66,1.51-.65,1.52.84,2.11l13.12,5.26c1.65.67,1.82,1.1,1.16,2.73a200.72,200.72,0,0,0-12.66,45.1q-1.59,10.13-2.17,20.35a192.68,192.68,0,0,0-.12,20.25,200.36,200.36,0,0,0,9,50.8,202.6,202.6,0,0,0,14,33.81c.2.38.76.86.29,1.26a4.2,4.2,0,0,1-1.72.77c-.35.09-.43-.4-.57-.67a202.86,202.86,0,0,1-21.24-64.06,174.1,174.1,0,0,1-2-20c0-.39-.08-.79-.12-1.19-.22-2.27-.22-2.24-2.47-2.21-4.31.06-8.62.42-12.93.31a13,13,0,0,0-2.15.19c-.72.1-1-.16-1-.89,0-4.64,0-9.28.12-13.91.13-4.23.43-8.45.82-12.67a221.21,221.21,0,0,1,4.21-27.08q1.7-7.78,4-15.41c.12-.4.06-1,.64-1a3.22,3.22,0,0,1,1.83.42c.37.23,0,.67-.06,1-2,6.89-3.78,13.86-5.13,20.93s-2.4,14.32-3.08,21.56a236.2,236.2,0,0,0-.93,23.94c0,1,.28,1.27,1.27,1.22q6.87-.3,13.77-.48c.9,0,1.07-.39,1-1.16-.25-3.35-.07-6.71,0-10.06A196.6,196.6,0,0,1,104,383.22a200.3,200.3,0,0,1,11.51-38.88c.33-.81.1-1.09-.65-1.39q-6.12-2.42-12.21-4.93c-.85-.35-1.29-.28-1.57.66s-.71,1.78-1.05,2.67c-.22.58-.44.92-1.22.7-1.51-.42-1.54-.36-.93-1.86a221.34,221.34,0,0,1,175-137A193.94,193.94,0,0,1,301.89,201.18Z" transform="translate(-82.12 -197.92)"/><path class="cls-2" d="M135.61,395.3c.48-2.6.95-5.36,1.5-8.1a169.22,169.22,0,0,1,15.19-43.4A166.68,166.68,0,0,1,177.69,307c1.64-1.8,3-3.81,4.8-5.49a1.37,1.37,0,0,1,2.24,0c2.91,2.8,5.87,5.55,8.78,8.34a17.21,17.21,0,0,1,1.86,1.67c.56.7.42,1.1-.17,1.69a139.63,139.63,0,0,0-12,13.4,153.64,153.64,0,0,0-32.91,102.51,151.19,151.19,0,0,0,7.6,40.84c.47,1.43.26,1.83-1.15,2.35-3.4,1.27-6.8,2.55-10.23,3.76-.89.31-1.17.62-.82,1.6a169.28,169.28,0,0,0,35.19,58.15c.42.45.91.85.11,1.41-.63.45-1.08,1.12-2,.17a174.06,174.06,0,0,1-12.48-15.18A169.63,169.63,0,0,1,143,477.09c-.57-1.65-.58-1.72,1.14-2.2,3.54-1,6.88-2.55,10.38-3.66.92-.29,1.1-.69.79-1.63a149.83,149.83,0,0,1-6.4-29.08,159.71,159.71,0,0,1-1.08-16.36,155.83,155.83,0,0,1,35.5-101.44c2.84-3.46,5.85-6.76,9-10,.58-.6.58-1,0-1.53q-3.84-3.54-7.59-7.15c-.49-.47-.76-.35-1.16.07A177.6,177.6,0,0,0,155,343.94a172.38,172.38,0,0,0-14.18,37.83q-1.68,6.87-2.73,13.86c-.11.65-.35,1-1,.79S135.59,396.54,135.61,395.3Z" transform="translate(-82.12 -197.92)"/><path class="cls-2" d="M164.36,420.23a138.15,138.15,0,0,1,14.83-61.59c.67-1.36,1.42-2.68,2.09-4,.31-.63.62-.69,1.19-.29,3.27,2.31,7,3.9,10.4,5.93.79.47,1.21.35,1.67-.49a122.23,122.23,0,0,1,11.19-16.85c1-1.21,1-1.25,2.1-.2,2.83,2.67,6.08,4.8,9,7.29.66.56,1,.39,1.54-.21a107.87,107.87,0,0,1,14.14-14.13l.45-.39a1.37,1.37,0,0,1,2.31.86c.12.58-.42.73-.73,1a110.47,110.47,0,0,0-23.78,27.39c-.22.36-.37,1-.8.93a4.87,4.87,0,0,1-1.76-1c-.3-.25.13-.57.28-.81a92.56,92.56,0,0,1,6.89-10.09c.68-.85.57-1.27-.25-1.88-2.47-1.84-4.89-3.74-7.29-5.66-.68-.55-1.07-.56-1.63.18a124.25,124.25,0,0,0-10.42,16.22c-.9,1.67-1,1.73-2.7.8-2.59-1.42-5.17-2.87-7.74-4.31-2.83-1.59-2.84-1.6-4.27,1.29a139.1,139.1,0,0,0-12.92,41.45,132.18,132.18,0,0,0-1.34,25.21A137.2,137.2,0,0,0,178,475.61c.36.82.72.88,1.44.53,3.06-1.48,6.13-2.94,9.22-4.35.74-.33.66-.67.39-1.28a124.7,124.7,0,0,1-8.19-26.87,127.15,127.15,0,0,1-2.08-21.06,124.63,124.63,0,0,1,6.78-42.72c.27-.79.54-1.58.86-2.36.15-.37.14-1.19.86-.68.55.39,1.92.14,1.4,1.55a124.24,124.24,0,0,0-5.2,18.55,122.18,122.18,0,0,0,8.6,74.34c.5,1.1.36,1.54-.76,2-3.61,1.6-7.15,3.36-10.76,5-1,.46-1,.87-.57,1.76a139.61,139.61,0,0,0,15.73,25.58c.24.31.84.62.47,1.08a4.67,4.67,0,0,1-1.49,1.18c-.32.18-.51-.29-.69-.53a141.91,141.91,0,0,1-11.8-17.74,138.88,138.88,0,0,1-15.49-42.85,136.65,136.65,0,0,1-2.11-17.82C164.45,426.35,164.41,423.8,164.36,420.23Z" transform="translate(-82.12 -197.92)"/><path class="cls-2" d="M82.85,440.7c0-1.54.84-2.16,2-1.75.47.17.38.56.41.9.52,6.85,1.42,13.65,2.61,20.41A218.41,218.41,0,0,0,143.77,572a220.05,220.05,0,0,0,38.81,32.8c1,.67,1.46.62,2.12-.42,2.48-3.91,5-7.77,7.63-11.62.57-.84.44-1.23-.38-1.77a202,202,0,0,1-30.87-25,204.44,204.44,0,0,1-29.39-36.51c-.42-.66-.65-1.11.24-1.62s1.26-.6,1.87.38A200.1,200.1,0,0,0,194,589.49c.17.11.33.22.51.32,1.87,1.06,1.91,1.17.74,3q-4.71,7.15-9.43,14.31c-.95,1.44-1.72,1.61-3.19.64a218.31,218.31,0,0,1-24.1-18.16q-8.25-7.15-15.77-15.06A221.88,221.88,0,0,1,112,533.42,220.64,220.64,0,0,1,84.25,453C83.67,448.79,83.23,444.58,82.85,440.7Z" transform="translate(-82.12 -197.92)"/><path class="cls-2" d="M135.4,408.33c1-.24,1.2.17,1.12,1.07a157,157,0,0,0-.27,19.76,162.19,162.19,0,0,0,3.61,27.75c.12.56.08.87-.62,1-5.38.74-10.54,2.5-15.81,3.74-1.25.29-1.5.07-1.77-1.18a177.11,177.11,0,0,1-3.24-20.08,184.9,184.9,0,0,1-.86-27c.3-6.43.82-12.82,1.73-19.19a187.06,187.06,0,0,1,87.58-133c.44-.27.95-.82,1.32.09.28.68,1.16,1.26-.1,2a179.65,179.65,0,0,0-24.64,18,186.26,186.26,0,0,0-22.16,22.86,184.23,184.23,0,0,0-38.9,86,191.76,191.76,0,0,0-2.44,24,186.09,186.09,0,0,0,3.71,44.05c.22,1.06.64,1.25,1.62,1q5.43-1.46,10.9-2.79c.83-.2,1-.58.83-1.35a168.6,168.6,0,0,1-3.3-38.1c.06-2.51.28-5,.36-7.54C134.11,408.46,134.46,408,135.4,408.33Z" transform="translate(-82.12 -197.92)"/><path class="cls-2" d="M299.9,643.54c-19.38,0-41.67-3.45-63.41-10.34a217.45,217.45,0,0,1-37.69-15.93c-.41-.22-1.41-.27-.71-1.18.46-.61.56-1.67,1.9-1a212.77,212.77,0,0,0,36.56,15.54,216.88,216.88,0,0,0,34.6,8.05A219.46,219.46,0,0,0,325,640.06c1.12-.11,1.33-.43,1.17-1.55-.74-5.37-1.33-10.76-2.07-16.14-.17-1.21.47-1.26,1.28-1.34,5.52-.54,11-1.4,16.45-2.45a200,200,0,0,0,49.33-16.32c4.9-2.36,9.68-4.92,14.38-7.65.4-.23.89-.8,1.21.08.25.67,1.24,1.36-.06,2.06-3.44,1.85-6.82,3.84-10.3,5.62A201.35,201.35,0,0,1,367,614.59a199.24,199.24,0,0,1-33.65,7.85c-2.13.3-4.26.63-6.4.87-.74.08-1,.3-.87,1,.62,4.75,1.24,9.5,1.78,14.25.11,1,.49,1.17,1.37,1,4.66-.65,9.33-1.26,13.95-2.2,1.51-.31,1.11.83,1.39,1.46.45,1-.45.83-.89.91q-8.82,1.65-17.76,2.56A244.87,244.87,0,0,1,299.9,643.54Z" transform="translate(-82.12 -197.92)"/><path class="cls-2" d="M126.25,471.07c.64-.15.66.33.79.76,1.38,4.64,2.86,9.23,4.57,13.75a184.44,184.44,0,0,0,109,108.33c.54.2,1.28.29.74,1.19-.37.64-.27,1.6-1.65,1.09A187.35,187.35,0,0,1,135,499.89a180,180,0,0,1-10.15-27C124.4,471.43,124.65,471.13,126.25,471.07Z" transform="translate(-82.12 -197.92)"/><path class="cls-2" d="M360.64,634.05c-.1-.76.52-.71.94-.83q7.68-2.13,15.18-4.81a218.6,218.6,0,0,0,103-76.73,1.55,1.55,0,0,1,2.57.1c.32.48-.17.73-.38,1-2.55,3.53-5.23,7-8,10.32a220.78,220.78,0,0,1-51.56,45.65,215.64,215.64,0,0,1-41.51,20.71c-1.08.4-1.16.84-.78,1.81,1.59,4.05,3.12,8.12,4.67,12.19a1.39,1.39,0,0,1-1.55,1.94c-.48,0-.48-.47-.6-.79-1.59-4.17-3.22-8.34-4.75-12.54-.38-1.05-.82-1.21-1.83-.85q-6.66,2.37-13.48,4.22C361,635.86,360.69,635.61,360.64,634.05Z" transform="translate(-82.12 -197.92)"/><path class="cls-2" d="M179.77,262.68c-.08.64-.57.83-.93,1.11-3.8,3-7.46,6.15-11,9.42a200.42,200.42,0,0,0-38.34,48c-2.29,4-4.45,8-6.38,12.21-.55,1.18-1.11.66-1.86.39s-.74-.81-.42-1.47a207.61,207.61,0,0,1,26.35-40.88,210.25,210.25,0,0,1,17.46-18.6c4.12-3.9,8.43-7.59,12.88-11.11.32-.25.67-.83,1.09-.53A7.31,7.31,0,0,1,179.77,262.68Z" transform="translate(-82.12 -197.92)"/><path class="cls-2" d="M208.32,542.44a8.88,8.88,0,0,1-1.18,1.43c-.47.37-.79-.23-1.09-.47a150.88,150.88,0,0,1-18.84-17.87,155.45,155.45,0,0,1-17.39-23.73,171.4,171.4,0,0,1-8.53-16.35c-.39-.85-.17-1.18.63-1.5s1.18-.51,1.62.49a151.77,151.77,0,0,0,18.76,31.38,153.79,153.79,0,0,0,25,25.53C207.68,541.64,208.15,541.84,208.32,542.44Z" transform="translate(-82.12 -197.92)"/><path class="cls-1" d="M190.41,343.89a10.1,10.1,0,0,1-1.65-1.07c-.29-.29.17-.64.36-.91A139.63,139.63,0,0,1,215.75,313c.52-.42.92-.77,1.41,0,.38.64,1.14,1.05.09,1.91a135.24,135.24,0,0,0-26,28.11C191,343.38,190.88,343.75,190.41,343.89Z" transform="translate(-82.12 -197.92)"/></g></svg>